<svg fill="none" viewBox="0 0 79 107" xmlns="http://www.w3.org/2000/svg" xmlns:xlink="http://www.w3.org/1999/xlink"><filter id="a" color-interpolation-filters="sRGB" filterUnits="userSpaceOnUse" height="28.61" width="31.67" x="34.71" y="74.28"><feFlood flood-opacity="0" result="BackgroundImageFix"/><feColorMatrix in="SourceAlpha" result="hardAlpha" values="0 0 0 0 0 0 0 0 0 0 0 0 0 0 0 0 0 0 127 0"/><feOffset dy="2"/><feGaussianBlur stdDeviation="1"/><feComposite in2="hardAlpha" operator="out"/><feColorMatrix values="0 0 0 0 0.203922 0 0 0 0 0.545098 0 0 0 0 0.462745 0 0 0 1 0"/><feBlend in2="BackgroundImageFix" result="effect1_dropShadow_55_376"/><feBlend in="SourceGraphic" in2="effect1_dropShadow_55_376" result="shape"/></filter><filter id="b" color-interpolation-filters="sRGB" filterUnits="userSpaceOnUse" height="29.72" width="33.63" x="44.85" y="1.86"><feFlood flood-opacity="0" result="BackgroundImageFix"/><feColorMatrix in="SourceAlpha" result="hardAlpha" values="0 0 0 0 0 0 0 0 0 0 0 0 0 0 0 0 0 0 127 0"/><feOffset dy="2"/><feGaussianBlur stdDeviation="1"/><feComposite in2="hardAlpha" operator="out"/><feColorMatrix values="0 0 0 0 0.203922 0 0 0 0 0.545098 0 0 0 0 0.462745 0 0 0 1 0"/><feBlend in2="BackgroundImageFix" result="effect1_dropShadow_55_376"/><feBlend in="SourceGraphic" in2="effect1_dropShadow_55_376" result="shape"/></filter><filter id="c" color-interpolation-filters="sRGB" filterUnits="userSpaceOnUse" height="30.92" width="33.26" x="3.19" y="41.27"><feFlood flood-opacity="0" result="BackgroundImageFix"/><feColorMatrix in="SourceAlpha" result="hardAlpha" values="0 0 0 0 0 0 0 0 0 0 0 0 0 0 0 0 0 0 127 0"/><feOffset dy="2"/><feGaussianBlur stdDeviation="1"/><feComposite in2="hardAlpha" operator="out"/><feColorMatrix values="0 0 0 0 0.203922 0 0 0 0 0.545098 0 0 0 0 0.462745 0 0 0 1 0"/><feBlend in2="BackgroundImageFix" result="effect1_dropShadow_55_376"/><feBlend in="SourceGraphic" in2="effect1_dropShadow_55_376" result="shape"/></filter><g filter="url(#a)"><g fill="#fff"><path d="m45.37 81.03c4.05.38 8.92 2.07 9.83 4.85.92 2.79-3.5 4.28-7.9 4.57-4.39.29-10.49.38-10.6-4.03-.1-4.41 4.62-5.77 8.67-5.4z"/><path d="m48.55 97.25c2.93-2.17 4.68-7.75 3.67-9.88-1.01-2.14-6.52-.9-9.26 1.36-2.74 2.25-5.23 5.64-3.6 8.23s6.27 2.45 9.2.29z"/><path d="m61.12 90.59c-1.7-3.7-7.66-6.14-10.31-5.8-2.66.35-2.56 5.82-1.1 9.55 1.46 3.74 5.59 4.32 8.3 3.3 2.73-1.02 4.81-3.35 3.11-7.05z"/><path d="m59.93 78.3c-3.73-.25-9.15 3.3-10.11 5.46-.97 2.15 2.33 3.84 5.82 4.46s6.8-.8 8.22-3.46c1.42-2.65-.2-6.2-3.93-6.46z"/><path d="m54.35 76.25c1.85 3.1.31 9.65-1.26 11.4-1.58 1.77-4.99-.62-6.98-3.55s-3.23-5.25-1.39-7.64c1.84-2.38 7.78-3.3 9.63-.21z"/></g><path d="m55.93 88.31c-.12 1.56-2.66 1.94-5.31 1.74s-5.47-.96-5.36-2.52c.12-1.56 3.1-3 5.75-2.81 2.65.2 5.03 2.03 4.92 3.6z" fill="#ffb627"/></g><g filter="url(#b)"><g fill="#fff"><path d="m71 19c-3.48.92-10.07 1.99-12.15-.08s.95-5.07 4.73-7.32c3.78-2.26 9.05-3.37 11.9-.57 2.86 2.8-1 7.05-4.48 7.97z"/><path d="m56.45 6.61c.01 3.6 3.12 10.24 5.37 10.93 2.26.7 5.07-4.2 5.26-7.74.2-3.53-1.36-7.29-4.37-7.83-3.01-.55-6.27 1.03-6.26 4.63z"/><path d="m48.89 16.24c2.82 2.22 9.75 2.1 11.7.77 1.95-1.34-.09-4.43-2.74-6.78s-6.36-2.99-8.96-1.47-2.83 5.25 0 7.48z"/><path d="m55.86 26.42c4.25-.76 6.65-7.1 6.53-9.45-.12-2.36-3.83-2.37-7.21-1.33-3.4 1.03-6.18 3.35-6.24 6.36s2.66 5.18 6.92 4.42z"/><path d="m64.5 27c-3.45-1.5-4.99-7.6-4.39-9.9.6-2.28 4.73-1.7 7.83 0 3.1 1.72 5.62 3.94 5.06 6.9s-5.06 4.5-8.5 3z"/></g><path d="m67 16.01c0 1.47-2.35 1.99-4.83 1.99-2.49 0-5.17-.52-5.17-1.99 0-1.46 2.68-3.01 5.17-3.01 2.48 0 4.83 1.55 4.83 3.01z" fill="#ffb627"/></g><g filter="url(#c)"><g fill="#fff"><path d="m27.38 60.73c-3.6-.16-10.2-1.1-11.58-3.7-1.37-2.59 2.42-4.56 6.7-5.58 4.28-1.03 9.64-.52 11.53 3 1.9 3.53-3.05 6.44-6.65 6.28z"/><path d="m17.18 44.57c-1.06 3.44-.07 10.7 1.87 12.03 1.95 1.34 6.09-2.5 7.33-5.82s.86-7.37-1.85-8.78c-2.7-1.42-6.3-.87-7.35 2.57z"/><path d="m7.1 51.5c2.03 2.97 8.68 4.92 10.93 4.22 2.26-.69 1.24-4.24-.6-7.28-1.82-3.03-5.17-4.75-8.11-4.07s-4.26 4.16-2.23 7.13z"/><path d="m10.71 63.3c4.29.54 8.47-4.79 9.05-7.08.6-2.28-2.95-3.4-6.49-3.41-3.54-.02-6.9 1.35-7.85 4.21s1 5.74 5.3 6.28z"/><path d="m18.8 66.43c-2.85-2.46-2.5-8.75-1.25-10.75s5.02-.22 7.47 2.33c2.46 2.56 4.2 5.42 2.78 8.09-1.42 2.66-6.17 2.79-9 .33z"/></g><path d="m24.84 55.1c.03 1.46-2.3 2.04-4.78 2.1-2.49.06-5.18-.4-5.22-1.86-.03-1.46 2.61-3.08 5.1-3.14 2.48-.06 4.87 1.44 4.9 2.9z" fill="#ffb627"/></g></svg>