<svg xmlns="http://www.w3.org/2000/svg" fill="none" viewBox="0 0 145 70"><path fill="#2BB3FF" stroke="#FFDC80" stroke-width="5" d="M7.17 7.17C2.49 11.85 2.5 17.77 2.5 22.64v24.71c0 4.88 0 10.8 4.67 15.48 4.68 4.67 10.6 4.67 15.47 4.67h24.71c4.88 0 10.8 0 15.48-4.67 4.67-4.68 4.67-10.6 4.67-15.47V22.65c0-4.88 0-10.8-4.67-15.48C58.15 2.5 52.23 2.5 47.36 2.5H22.65c-4.88 0-10.8 0-15.48 4.67Z"/><path stroke="#fff" stroke-linecap="round" stroke-linejoin="round" stroke-width="5" d="m41 29 12-12m0 0H41m12 0v12M41 41l12 12m0 0H41m12 0V41M29 29 17 17m0 0h12m-12 0v12m12 12L17 53m0 0h12m-12 0V41"/><path fill="#2BB3FF" stroke="#FFDC80" stroke-width="5" d="M82.17 7.17c-4.67 4.68-4.67 10.6-4.67 15.47v24.71c0 4.88 0 10.8 4.67 15.48 4.68 4.67 10.6 4.67 15.47 4.67h24.71c4.88 0 10.8 0 15.48-4.67 4.67-4.68 4.67-10.6 4.67-15.47V22.65c0-4.88 0-10.8-4.67-15.48-4.68-4.67-10.6-4.67-15.47-4.67H97.65c-4.88 0-10.8 0-15.48 4.67Z"/><path stroke="#fff" stroke-linecap="round" stroke-linejoin="round" stroke-width="5" d="m130 15-12 12m0 0h12m-12 0V15m12 40-12-12m0 0h12m-12 0v12M90 15l12 12m0 0H90m12 0V15M90 55l12-12m0 0H90m12 0v12"/></svg>