<svg xmlns="http://www.w3.org/2000/svg" fill="none" viewBox="0 0 407 629"><path fill="url(#a)" d="M330.35 305.83c2.7 0 5-.94 6.88-2.83a9.45 9.45 0 0 0 2.89-6.93c0-2.7-.96-5-2.88-6.89a9.29 9.29 0 0 0-6.89-2.88c-2.7 0-5.01.96-6.93 2.88a9.37 9.37 0 0 0-2.84 6.89c0 2.7.95 5 2.84 6.93a9.54 9.54 0 0 0 6.93 2.83Zm-10.74-29a21.27 21.27 0 0 1 10.74-2.74c6.09 0 11.26 2.15 15.53 6.45a21.06 21.06 0 0 1 6.44 15.53c0 6.08-2.14 11.28-6.44 15.57a21.14 21.14 0 0 1-15.53 6.4c-3.58 0-6.84-.73-9.77-2.2v11.23c0 1.7-.6 3.13-1.8 4.3a5.76 5.76 0 0 1-4.3 1.8c-1.7 0-3.14-.6-4.34-1.8a5.84 5.84 0 0 1-1.76-4.3V280.2c0-1.7.58-3.13 1.76-4.3a5.92 5.92 0 0 1 4.34-1.8 6 6 0 0 1 5.13 2.73Zm46.37 37.84-16.07-31.6a5.92 5.92 0 0 1-.44-4.63 5.97 5.97 0 0 1 3.03-3.61 5.78 5.78 0 0 1 4.64-.4 5.97 5.97 0 0 1 3.61 3.03l10.94 21.3 10.99-21.3a5.97 5.97 0 0 1 3.56-3.02 5.88 5.88 0 0 1 4.69.39 5.8 5.8 0 0 1 2.98 3.6c.52 1.6.39 3.15-.4 4.65l-19.62 39.1a25.94 25.94 0 0 1-5.23 8.46 10.7 10.7 0 0 1-8.25 3.51c-3.65 0-6.43-.88-8.35-2.63-1.92-1.76-2.88-3.65-2.88-5.67s.55-3.66 1.66-4.93a5.33 5.33 0 0 1 4.2-1.9c1.37 0 2.4.34 3.08 1.02a3.62 3.62 0 0 0 2.53 1.07c1.01.04 2.17-.84 3.47-2.63l1.86-3.81Z"/><path fill="url(#b)" d="M194.86 349.83c2.7 0 5-.94 6.89-2.83a9.45 9.45 0 0 0 2.88-6.93c0-2.7-.96-5-2.88-6.89a9.3 9.3 0 0 0-6.89-2.88c-2.7 0-5.01.96-6.93 2.88a9.37 9.37 0 0 0-2.83 6.89c0 2.7.94 5 2.83 6.93a9.53 9.53 0 0 0 6.93 2.83Zm10.74 9.48a21.26 21.26 0 0 1-10.74 2.73 21.3 21.3 0 0 1-15.57-6.4 21.3 21.3 0 0 1-6.4-15.57c0-6.1 2.13-11.27 6.4-15.53 4.3-4.3 9.49-6.45 15.57-6.45 3.58 0 6.84.74 9.77 2.2v-11.23c0-1.7.58-3.12 1.76-4.3a5.92 5.92 0 0 1 4.34-1.8c1.7 0 3.13.6 4.3 1.8a5.76 5.76 0 0 1 1.8 4.3v46.88c0 1.69-.6 3.14-1.8 4.34a5.84 5.84 0 0 1-4.3 1.76c-1.7 0-3.12-.6-4.3-1.8-.32-.3-.6-.61-.83-.94Zm34.6 2.73a21.3 21.3 0 0 1-15.57-6.4 21.3 21.3 0 0 1-6.4-15.57c0-6.1 2.13-11.27 6.4-15.53 4.3-4.3 9.49-6.45 15.57-6.45 6.09 0 11.27 2.15 15.53 6.45a21.06 21.06 0 0 1 6.45 15.53c0 6.08-2.15 11.28-6.45 15.57a21.14 21.14 0 0 1-15.53 6.4Zm0-12.2c2.7 0 5-.95 6.89-2.84a9.46 9.46 0 0 0 2.88-6.93c0-2.7-.96-5-2.88-6.89a9.3 9.3 0 0 0-6.89-2.88c-2.7 0-5.01.96-6.93 2.88a9.37 9.37 0 0 0-2.83 6.89c0 2.7.94 5 2.83 6.93a9.53 9.53 0 0 0 6.93 2.83Zm44.85 12.2a21.3 21.3 0 0 1-15.57-6.4 21.3 21.3 0 0 1-6.4-15.57c0-6.1 2.13-11.27 6.4-15.53 4.3-4.3 9.49-6.45 15.57-6.45 6.1 0 11.27 2.15 15.53 6.45a21.06 21.06 0 0 1 6.45 15.53c0 6.08-2.15 11.28-6.45 15.57a21.14 21.14 0 0 1-15.53 6.4Zm0-12.2c2.7 0 5-.95 6.89-2.84a9.45 9.45 0 0 0 2.88-6.93c0-2.7-.96-5-2.88-6.89a9.29 9.29 0 0 0-6.89-2.88c-2.7 0-5 .96-6.93 2.88a9.37 9.37 0 0 0-2.83 6.89c0 2.7.94 5 2.83 6.93a9.54 9.54 0 0 0 6.93 2.83Zm45.34 0c2.7 0 5-.95 6.89-2.84a9.45 9.45 0 0 0 2.88-6.93c0-2.7-.96-5-2.88-6.89a9.29 9.29 0 0 0-6.89-2.88c-2.7 0-5 .96-6.93 2.88a9.37 9.37 0 0 0-2.83 6.89c0 2.7.94 5 2.83 6.93a9.54 9.54 0 0 0 6.93 2.83Zm-10.74-29.01a21.26 21.26 0 0 1 10.74-2.74c6.1 0 11.27 2.15 15.53 6.45a21.06 21.06 0 0 1 6.45 15.53c0 6.08-2.15 11.28-6.45 15.57a21.14 21.14 0 0 1-15.53 6.4c-3.58 0-6.83-.73-9.76-2.2v11.23c0 1.7-.6 3.13-1.8 4.3a5.76 5.76 0 0 1-4.3 1.8c-1.7 0-3.15-.6-4.35-1.8a5.84 5.84 0 0 1-1.76-4.3V324.2c0-1.7.59-3.13 1.76-4.3a5.92 5.92 0 0 1 4.34-1.8 6 6 0 0 1 5.13 2.73Z"/><path fill="#fff" d="M308.94 370h12v11h-12z"/><path fill="url(#c)" d="M308.39 314.06v11.23c0 1.7.58 3.13 1.75 4.3a5.93 5.93 0 0 0 4.35 1.8c1.7 0 3.13-.6 4.3-1.8a5.76 5.76 0 0 0 1.8-4.3v-11.23c0-1.7-.6-3.12-1.8-4.3a5.76 5.76 0 0 0-4.3-1.8c-1.7 0-3.14.6-4.35 1.8a5.84 5.84 0 0 0-1.75 4.3Z"/><path fill="url(#d)" d="M194.86 305.83c2.7 0 5-.94 6.89-2.83a9.45 9.45 0 0 0 2.88-6.93c0-2.7-.96-5-2.88-6.89a9.3 9.3 0 0 0-6.89-2.88c-2.7 0-5.01.96-6.93 2.88a9.37 9.37 0 0 0-2.83 6.89c0 2.7.94 5 2.83 6.93a9.53 9.53 0 0 0 6.93 2.83Zm10.74 9.48a21.26 21.26 0 0 1-10.74 2.73 21.3 21.3 0 0 1-15.57-6.4 21.3 21.3 0 0 1-6.4-15.57c0-6.1 2.13-11.27 6.4-15.53 4.3-4.3 9.49-6.45 15.57-6.45 3.58 0 6.84.74 9.77 2.2v-11.23c0-1.7.58-3.12 1.76-4.3a5.92 5.92 0 0 1 4.34-1.8c1.7 0 3.13.6 4.3 1.8a5.76 5.76 0 0 1 1.8 4.3v46.88c0 1.69-.6 3.14-1.8 4.34a5.84 5.84 0 0 1-4.3 1.76c-1.7 0-3.12-.6-4.3-1.8-.32-.3-.6-.61-.83-.94Zm34.6 2.73a21.3 21.3 0 0 1-15.57-6.4 21.3 21.3 0 0 1-6.4-15.57c0-6.1 2.13-11.27 6.4-15.53 4.3-4.3 9.49-6.45 15.57-6.45 6.09 0 11.27 2.15 15.53 6.45a21.06 21.06 0 0 1 6.45 15.53c0 6.08-2.15 11.28-6.45 15.57a21.14 21.14 0 0 1-15.53 6.4Zm0-12.2c2.7 0 5-.95 6.89-2.84a9.46 9.46 0 0 0 2.88-6.93c0-2.7-.96-5-2.88-6.89a9.3 9.3 0 0 0-6.89-2.88c-2.7 0-5.01.96-6.93 2.88a9.37 9.37 0 0 0-2.83 6.89c0 2.7.94 5 2.83 6.93a9.53 9.53 0 0 0 6.93 2.83Zm44.85 12.2a21.3 21.3 0 0 1-15.57-6.4 21.3 21.3 0 0 1-6.4-15.57c0-6.1 2.13-11.27 6.4-15.53 4.3-4.3 9.49-6.45 15.57-6.45 6.1 0 11.27 2.15 15.53 6.45a21.06 21.06 0 0 1 6.45 15.53c0 6.08-2.15 11.28-6.45 15.57a21.14 21.14 0 0 1-15.53 6.4Zm0-12.2c2.7 0 5-.95 6.89-2.84a9.45 9.45 0 0 0 2.88-6.93c0-2.7-.96-5-2.88-6.89a9.29 9.29 0 0 0-6.89-2.88c-2.7 0-5 .96-6.93 2.88a9.37 9.37 0 0 0-2.83 6.89c0 2.7.94 5 2.83 6.93a9.54 9.54 0 0 0 6.93 2.83Z"/><path fill="url(#e)" d="M195.35 392.83c2.7 0 5-.94 6.89-2.83a9.45 9.45 0 0 0 2.88-6.93c0-2.7-.96-5-2.88-6.89a9.29 9.29 0 0 0-6.89-2.88c-2.7 0-5.01.96-6.93 2.88a9.37 9.37 0 0 0-2.83 6.89c0 2.7.94 5 2.83 6.93a9.54 9.54 0 0 0 6.93 2.83Zm9.62 10.1a22.02 22.02 0 0 1-9.62 2.1 21.3 21.3 0 0 1-15.58-6.39 21.3 21.3 0 0 1-6.4-15.57c0-6.1 2.14-11.27 6.4-15.53 4.3-4.3 9.5-6.45 15.58-6.45 3.97 0 7.55.92 10.74 2.74.23-.33.5-.65.83-.98a5.84 5.84 0 0 1 4.3-1.76c1.7 0 3.13.6 4.3 1.81a5.77 5.77 0 0 1 1.8 4.3v33.84c0 6.08-2.14 11.26-6.44 15.52-4.27 4.3-9.77 6.45-16.5 6.45-6.74 0-12.02-1.58-15.83-4.74-3.77-3.12-4.6-6.26-2.49-9.42 2.12-3.16 4.85-3.63 8.2-1.42 3.4 2.25 6.76 3.37 10.11 3.37 3.36 0 6-.96 7.91-2.88a9.4 9.4 0 0 0 2.69-4.98Zm35.72-10.1c2.7 0 5-.94 6.88-2.83a9.45 9.45 0 0 0 2.89-6.93c0-2.7-.96-5-2.89-6.89a9.3 9.3 0 0 0-6.88-2.88c-2.7 0-5.01.96-6.93 2.88a9.37 9.37 0 0 0-2.83 6.89c0 2.7.94 5 2.83 6.93a9.53 9.53 0 0 0 6.93 2.83Zm10.74 9.48a21.26 21.26 0 0 1-10.74 2.73 21.3 21.3 0 0 1-15.58-6.4 21.3 21.3 0 0 1-6.4-15.57c0-6.1 2.14-11.27 6.4-15.53 4.3-4.3 9.5-6.45 15.58-6.45 3.97 0 7.55.92 10.74 2.74.23-.33.5-.65.83-.98a5.84 5.84 0 0 1 4.3-1.76c1.7 0 3.13.6 4.3 1.81a5.77 5.77 0 0 1 1.8 4.3v31.74c0 1.69-.6 3.14-1.8 4.34a5.84 5.84 0 0 1-4.3 1.76c-1.7 0-3.13-.6-4.3-1.8-.32-.3-.6-.61-.83-.94Zm25.32-21.69v18.32c0 1.69-.6 3.14-1.8 4.34a5.84 5.84 0 0 1-4.3 1.76 6 6 0 0 1-6.1-6.1V367.2c0-1.7.58-3.13 1.75-4.3a5.92 5.92 0 0 1 4.35-1.8 6 6 0 0 1 4.35 1.75l.19.3a19.2 19.2 0 0 1 8.89-2.06c5.24 0 9.71 1.76 13.43 5.28a18.83 18.83 0 0 1 13.42-5.28c5.44 0 10.05 1.9 13.82 5.72a18.72 18.72 0 0 1 5.71 13.81v18.32c0 1.69-.6 3.14-1.8 4.34a5.84 5.84 0 0 1-4.3 1.76 6 6 0 0 1-6.1-6.1v-18.31c0-2.06-.72-3.78-2.15-5.18a6.95 6.95 0 0 0-5.18-2.15c-2.05 0-3.79.72-5.22 2.15a7.03 7.03 0 0 0-2.1 5.18v18.3c0 1.7-.6 3.15-1.8 4.35a5.84 5.84 0 0 1-4.3 1.76 6 6 0 0 1-6.1-6.1v-18.31c0-2.06-.73-3.78-2.16-5.18a6.95 6.95 0 0 0-5.17-2.15c-2.05 0-3.8.72-5.23 2.15a7.03 7.03 0 0 0-2.1 5.18Zm71.9 10.75a9.41 9.41 0 0 0 5.18 1.46c2.7 0 5.4-.94 8.1-2.83 2.74-1.92 5.33-1.63 7.77.88 2.44 2.5 1.92 5.5-1.56 8.98-3.45 3.45-8.22 5.18-14.3 5.18a21.3 21.3 0 0 1-15.58-6.4 21.3 21.3 0 0 1-6.4-15.57c0-6.1 2.13-11.27 6.4-15.53 4.3-4.3 9.48-6.45 15.57-6.45s10.87 1.73 14.36 5.18c2.44 2.47 3.72 5.26 3.85 8.35-.06 2.25-1 3.87-2.83 4.88l-20.56 11.87Zm9.97-17.1c-1.6-.64-3.2-.97-4.79-.97-2.7 0-5 .94-6.88 2.83a9.53 9.53 0 0 0-2.88 6.6l14.55-8.45Zm30.27 30.77c-5.86 0-10.09-.9-12.7-2.69-2.6-1.79-3.9-3.7-3.9-5.7 0-2.03.64-3.67 1.9-4.94a6.09 6.09 0 0 1 4.45-1.9c1.53 0 3.08.56 4.64 1.7a10.5 10.5 0 0 0 5.96 1.81c2.37.06 3.9-.4 4.58-1.42.69-1-.82-2.05-4.54-3.12-3.67-1.1-7.3-2.7-10.88-4.79-3.58-2.08-5.38-4.98-5.38-8.69 0-3.74 1.58-7.03 4.74-9.86a16.59 16.59 0 0 1 11.48-4.3c4.39 0 8.18.85 11.37 2.54 3.22 1.66 4.84 3.5 4.84 5.52 0 2.02-.64 3.66-1.9 4.93a5.93 5.93 0 0 1-4.4 1.9c-1.53 0-2.96-.5-4.3-1.5a8.7 8.7 0 0 0-5.22-1.67c-2.15-.06-3.57.4-4.25 1.42-.69 1 .57 2 3.76 2.98 3.22.97 6.87 2.5 10.94 4.59 4.06 2.05 6.1 5.06 6.1 9.03 0 3.74-1.6 7.05-4.79 9.91-3.15 2.83-7.32 4.25-12.5 4.25Z"/><path fill="url(#f)" d="M204.63 308.06v11.23c0 1.7.58 3.13 1.76 4.3a5.93 5.93 0 0 0 4.34 1.8c1.7 0 3.13-.6 4.3-1.8a5.76 5.76 0 0 0 1.8-4.3v-11.23c0-1.7-.6-3.12-1.8-4.3a5.76 5.76 0 0 0-4.3-1.8c-1.7 0-3.14.6-4.34 1.8a5.84 5.84 0 0 0-1.76 4.3Z"/><path fill="url(#g)" d="M149.95 591c60 3 70.55 14 70.55 14s33.86-35 42.5-44c-33.56 3.5 2.31-28.1-4.8-36.6-7.13-8.5-33.57 7-53.4 24-10.08 8.65-83.83 11.1-111.8 2.1l56.95 40.5Z"/><path fill="url(#h)" d="M88.84 538.56C63.97 523.78 67.5 494.6 57.18 494.6s-9.59 29.1-21.41 31.59c-11.83 2.47-20.75-19.5-27.35-15.44C1.82 514.8 16 616 107.5 628.5l-18.66-89.94Z"/><path fill="#94DE36" d="M265.79 509.94c-1.66-1.03-.31-10.65 8.34-14.53 8.66-3.88 14.5-.5 15 2.5S287.5 502 281.5 505s-14.05 5.98-15.71 4.94Z"/><path fill="#455AFF" d="M.63 475.98c-1.38 8.23 3.58 15.92 6.44 16.26 2.86.34 4.68-6.52 5.71-11.93 1-5.27 1.53-9.66-1.38-12.49C8.48 465 2 467.74.63 475.98Z"/><path fill="#44ADFA" d="M269.28 12.82c-4.74 5.9-43.46 68.96-43.46 68.96s-22.62-12.85-37.58-18.06c-14.97-5.2-19.81.87-23.1 8.24 0 0-20.55-9.5-30.4-12.55-9.85-3.03-14.39-2.86-21.02 4.82-13.6 15.73-41.67 68.88-51.28 118.58l86.02 66.7 26.56 8.99c26.16-19.82 99.04-80.5 93.86-109.77l56.4-104.9c1.7-9.74-5.67-24.6-25.48-32.05-19.8-7.46-25.78-4.86-30.52 1.04Z"/><path stroke="#AEFFFA" stroke-linecap="round" stroke-linejoin="round" stroke-width="10" d="M122.72 105.88s-16.6 36.4-21.46 66.94"/><path stroke="#AEFFFA" stroke-linejoin="round" stroke-width="10" d="M190.99 163.78c11-14.33 27.66-46.9 29.3-52.18 1.66-5.28 1.1-11.5-18.22-19.73s-24.68 3.07-28.54 9.58c-3.86 6.5-13.73 28.39-19.8 46.45-6.07 18.07 26.26 30.22 37.26 15.88Z"/><path fill="#44ADFA" d="M234.45 130.67c8.75 7.54 20.49 34.83 20.49 34.83L203.9 188.3l15.51-24.91s-22.46-4.69-33.64-15.43c-11.18-10.74-5.7-31.24 7.82-29.82 13.53 1.41 32.11 4.99 40.86 12.52Z"/><path stroke="#AEFFFA" stroke-linecap="round" stroke-linejoin="round" stroke-width="10" d="M215.35 166.56s-25.76-9.71-33.59-18.12c-7.82-8.41 1.78-30.94 11.17-33.83 9.38-2.9 29.22 5.39 43.16 13.5 13.93 8.12 19.92 14.47 17 28.99-2.93 14.51-41.66 55.62-76.55 75"/><path fill="#81E0FE" d="M321.9 28.8c-9.25-26.76-33.16-33.15-53.35-18.93l3.16 7.87c19-19.07 49.26 6.87 50.6 17.76l-.41-6.7Z"/><path fill="#3D7CC7" d="M264.48 9.22c-6.95 8.65-43.72 69.42-44.5 71.26-.8 1.84-1.7 5.25 3.16 7.87 1.8 1.15 6.49-2.33 8.51-6.16 8.9-16.85 29.92-50.84 40.07-64.45 4.7-7.23-1.48-8.68-2.9-7.21l-4.34-1.31Z"/><path fill="#81E0FE" d="M220.31 81.62s-35.5-27.05-52.87-14.35l8 6.73c4.82-11.32 28.6 5.6 47.7 14.35l-2.83-6.73Z"/><path fill="#3D7CC7" d="M168.09 70.86s3.05-6.3 6.85-4.86c3.46 1.31 3 4.14 2 5.5-1 1.36-5.5 9.5-8.97 8.56l-4.4-6.23 4.52-2.97Z"/><path fill="#81E0FE" d="M163.96 72.9c-22.38-9.52-37.9-15.66-43.8-13.28-5.9 2.37-4.18 13.13 2.78 13.38 4.74-13.74 28.83 1.72 45.03 7.05l-4.01-7.14Z"/><path fill="#3D7CC7" d="M64.88 179.1C63.59 138.78 115.44 63 115.44 63s13.25-3.05 8.15 8.91c-4.18 8.55-9.55 17.22-21.2 45.96-11.63 28.71-14.84 42.46-16.8 50.9l-.01.03-20.7 10.3Z"/><path fill="#1F499A" d="M86.21 168.59c-6.52-.01-23.16 8.44-22.47 13.19.7 4.75 24.9 29.2 50.92 46.08 26.02 16.88 41.6 23.78 49.76 26.29 8.17 2.51 20.93-9.56 19.87-16-1.07-6.43-14.81-26.46-43.8-46.43-29-19.97-47.76-23.13-54.28-23.13Z"/><path stroke="#203772" stroke-linecap="round" stroke-linejoin="round" stroke-width="5" d="M269.47 142.88c31.15-51.4 53.02-88.82 54.97-100.04 1.96-11.21-3.75-26.5-18.8-34.55-15.05-8.05-29.81-7.43-40.96 2.57-11.14 10-43.46 68.96-43.46 68.96s-18.02-10.89-32.98-16.1c-14.97-5.2-19.81.87-23.1 8.24 0 0-20.55-9.5-30.4-12.55-9.85-3.03-14.39-2.86-21.02 4.82-13.6 15.73-36.87 57.47-49.12 106.6-1.95 7.83.22 14.78 5.3 20.74 5.06 5.97 18.15 18.61 44.31 36.28 26.17 17.68 28.93 18.86 39.58 24.48 10.64 5.63 20.36 7.05 33.21-2.69"/><path stroke="#203772" stroke-linecap="round" stroke-linejoin="round" stroke-width="5" d="M269.27 143.34c14.49 20.85-56.1 86.48-82.27 106.3"/><path fill="#1F1652" stroke="#1F1652" stroke-linecap="round" stroke-linejoin="round" stroke-width="8" d="M130.58 206.03c-11.96-8.91-20.39-4.45-37.92-15.17 17.53 10.72 10.14 16.39 26.47 27.62 16.32 11.23 22.69 5.82 36.44 16.5-13.75-10.68-13.02-20.05-24.99-28.95Z"/><path stroke="#AEFFFA" stroke-linejoin="round" stroke-width="10" d="M223.27 119.93s39.13-68.65 53.2-86.57c14.08-17.92 38.53-3.69 30.1 16.1-8.43 19.77-53.45 93.52-53.45 93.52M152.1 150.47c7.31-15.9 15.72-36.78 17.38-42.06 1.65-5.27 1.09-11.49-14.55-18.15-15.64-6.67-24.55 1.49-28.41 8-3.86 6.5-9.16 18.92-10.63 38.95-1.47 20.03 28.88 29.16 36.2 13.26Z"/><mask id="i" width="321" height="422" x="-36" y="200" maskUnits="userSpaceOnUse" style="mask-type:alpha"><path fill="#40324A" d="M142.94 227.5c-1-13.5-15-30.5-37.5-26.5l-140.5 59.6v297l73 30.5L59 584.5l5-13L79.5 605l44.94 16.1 24.06-4.1 27.5-25.5 5.5 8L187 615l26-7.5 58.44-45.9 13.5-301-142-33.1Z"/></mask><g mask="url(#i)"><path fill="#FFD88C" d="M121.56 163.04c-5 15.5 5 28.5 5 28.5s-41 27-65 68l-16.5 44 32 129.5 85.38 26.55c-59-67.5-77.38-177.05-12.88-248.55 0 0 13.5 8.93 28 3s41.5-60 26-75.5-77 9-82 24.5Z"/><path fill="#DE9C76" d="M127.44 261.1c-8-7.5-38-29-51 2.5l13-34 30-31 36 4-25 36-3 22.5Z"/><path fill="#F25959" d="M47.56 607.04s27-25.5 27-81c0-44.88-48.72-148.62-25.85-234l14.73 32.05c0 65 102.4 122.56 126.12 157.45 35 51.5 39 92.5 26 137 0 0-49.5 24.5-99.5 17.5s-68.5-29-68.5-29Z"/><path fill="#A7386D" stroke="#A7386D" stroke-linecap="round" stroke-linejoin="round" stroke-width="10" d="M111.56 206.04c-113.62 114.55-13.62 240.55 5.88 277.05s49.37 84.06 22.5 149.5c-31.5-3.5-73.38-15.05-88.38-27.55 55.44-48.54 0-165.13-5.06-230.54-5.06-65.4 14.44-123.4 65.06-168.46Z"/><path stroke="#631A57" stroke-linecap="round" stroke-linejoin="round" stroke-width="5" d="M78.56 235.54c-78.5 89.5-10.94 231.04-6 290.5 4.94 59.46-25 81-25 81m167.5 10c13-44.5 10.5-85-26.5-135.5S63.44 390.09 63.44 324.09"/><path stroke="#631A57" stroke-linecap="round" stroke-linejoin="round" stroke-width="5" d="M169.94 460.6c-70.63-64.45-84.88-178.06-20.38-249.56 0 0 13.5 8.93 28 3s41.5-60 26-75.5-77 9-82 24.5 5 28.5 5 28.5-41 27-65 68"/><path fill="#94346E" d="M130.15 258.09c-4.36 7.78-11.34 12.16-16.45 9.3-5.1-2.87-6.9-12.17-2.53-19.95 4.36-7.78 12.7-11.4 18.34-8.23 5.66 3.17 5 11.1.64 18.88Z"/><path stroke="#631A57" stroke-linecap="round" stroke-width="5" d="M115.94 269.6c5.5 1.5 9.85-3.73 14.21-11.51 4.37-7.78 4.94-16.32-.71-19.5"/><path fill="#4A86CD" d="M169.7 173.29c7.24-5.22 17-4.75 20.43 0 3.43 4.75 1.15 13.94-6.09 19.16-7.23 5.23-16.3 5-20.1-.25-3.8-5.25-1.47-13.69 5.76-18.91Z"/><path fill="#94346E" d="M133.94 222.1c-4.3 5.39-11.12 7.15-14.91 4.13-3.8-3.02-4.27-10.55.03-15.95 4.3-5.4 11.33-6.94 15.53-3.6 4.2 3.35 3.64 10.02-.65 15.41Z"/><path fill="#CD4A79" d="M102.26 287.86c-1.82 9.85-5.6 16.83-13.82 15.73-8.22-1.1-15.03-10.32-13.21-20.16 1.81-9.85 9.91-17.05 19.2-15.34 9.3 1.72 9.64 9.92 7.83 19.77ZM118.63 324.72c.21 10.01-2.29 18.2-7.75 18.32-5.47.12-12.35-7.87-12.56-17.89-.21-10 5.74-18.23 11.79-18.36 6.04-.13 8.3 7.92 8.52 17.93Z"/><path stroke="#631A57" stroke-linecap="round" stroke-width="5" d="M109.44 342.6c5.46-.12 9.4-7.87 9.2-17.88-.22-10.01-4.16-17.76-10.2-17.63"/><path fill="#CD4A79" d="M102.85 359.01c3.22 9.48 5.71 17.53-.12 20.05-5.83 2.51-13.66-3.67-16.88-13.15-3.22-9.48-1.03-19.5 5.22-21.2 6.25-1.7 8.56 4.82 11.78 14.3ZM130.1 396.48c3.7 7.63 6.65 14.75 3.6 16.23-3.06 1.49-8.22-2.19-11.92-9.82-3.7-7.63-4.88-16.17-1.5-17.81 3.39-1.64 6.12 3.77 9.82 11.4Z"/><path stroke="#631A57" stroke-linecap="round" stroke-width="5" d="M131.44 411.6c3.05-1.5 4.2-7.88.5-15.5-3.7-7.64-8.62-11.15-12-9.5"/><path stroke="#671A51" stroke-linecap="round" stroke-width="3" d="M109.94 318.6c-2 3.5-1.5 9 .5 11.5M95.3 355.71c-.36 3.98.33 7.56 3.46 11.86M91.58 278.14c-4.16 2.43-5.16 9.93-3.16 13.93M125.44 249.1c-3.5 1-6.5 6-6 10M130.76 213.23c-3.32-.64-6.82 3.86-5.34 7.54"/></g><path fill="#FFD600" d="M373.94 551.58c-17.71-3.33-39.23 8.47-25.59 15.21 6.62 3.27 15.85 5.88 24.3 7.01 8.96 1.2 17.04.74 20.2-2.34 6.17-6-1.19-16.55-18.9-19.88Z"/><path fill="url(#j)" d="M127 616c-51 3.5-56.5-55-73-64s-26 26-6 48.5 48.5 30 73 28 47.5-25.5 56.5-22.5 4.5 12 15.5 12 43.5-22.5 67-36 53.5-16.5 55.5-23.5-17-15.5-38-8.5-39.5 24-48 32-23.5 26-35.5 28 3-33.5-10-33.5-25.18 37.32-57 39.5Z"/><defs><linearGradient id="a" x1="176.94" x2="394.44" y1="305.5" y2="305.5" gradientUnits="userSpaceOnUse"><stop stop-color="#FEC039"/><stop offset="1" stop-color="#FFD600"/></linearGradient><linearGradient id="b" x1="173.94" x2="350.44" y1="342" y2="343.5" gradientUnits="userSpaceOnUse"><stop stop-color="#46C56A"/><stop offset="1" stop-color="#94DE36"/></linearGradient><linearGradient id="c" x1="314.49" x2="314.49" y1="307.96" y2="331.39" gradientUnits="userSpaceOnUse"><stop offset=".15" stop-color="#FFCA08"/><stop offset="1" stop-color="#84D941"/></linearGradient><linearGradient id="d" x1="174.44" x2="394.44" y1="296.5" y2="293" gradientUnits="userSpaceOnUse"><stop stop-color="#FEC039"/><stop offset="1" stop-color="#FFD600"/></linearGradient><linearGradient id="e" x1="178.94" x2="397.44" y1="390" y2="390" gradientUnits="userSpaceOnUse"><stop stop-color="#4482FA"/><stop offset=".56" stop-color="#44ADFA"/></linearGradient><linearGradient id="f" x1="210.73" x2="210.73" y1="301.96" y2="325.39" gradientUnits="userSpaceOnUse"><stop offset=".13" stop-color="#FFBA12"/><stop offset=".9" stop-color="#54C961"/></linearGradient><linearGradient id="g" x1="272.87" x2="222.17" y1="530.45" y2="604.25" gradientUnits="userSpaceOnUse"><stop stop-color="#94DE36"/><stop offset="1" stop-color="#2EBD79"/></linearGradient><linearGradient id="h" x1="58.53" x2="71.13" y1="494.84" y2="576.13" gradientUnits="userSpaceOnUse"><stop stop-color="#277EFF"/><stop offset="1" stop-color="#8F00FF"/></linearGradient><linearGradient id="j" x1="50.5" x2="274.94" y1="563" y2="561" gradientUnits="userSpaceOnUse"><stop stop-color="#FF3D60"/><stop offset=".69" stop-color="#FFD600"/></linearGradient></defs></svg>