<svg xmlns="http://www.w3.org/2000/svg" fill="none" viewBox="0 0 300 300"><g clip-path="url(#a)"><path fill="#000" d="M217.07 31c12.12-10.87 28.07-11.33 43.81-2.92 16 8.55 22.23 24.9 20.09 37.2-.56 3.17-2.44 7.9-5.24 13.77a403.7 403.7 0 0 1-11.58 21.96c-9.52 17.03-22.6 38.95-37.94 64.27 1.58 3.02 1.86 6.52 1.3 10.19-.66 4.2-2.47 8.84-5.03 13.66-5.13 9.66-13.57 20.61-23.17 31.4-19.2 21.6-43.47 43.05-56.69 53.07l-.05.03c-6.72 5.1-12.85 7.44-18.87 7.62-5.98.17-11.52-1.8-17.02-4.7l-1.99-1.06c-9.21-4.85-13.28-6.99-37.81-23.56-26.28-17.75-39.57-30.55-44.83-36.74-5.5-6.48-7.99-14.24-5.81-22.96 12.32-49.43 35.74-91.55 49.65-107.64 3.48-4.02 6.73-6.46 10.72-7.24 3.86-.75 8 .15 12.93 1.68 5.08 1.56 12.8 4.75 19.15 7.5a585.34 585.34 0 0 1 9.32 4.13c1.6-3.04 3.78-6 7.22-7.76 4.36-2.23 10.1-2.25 17.9.46 7.65 2.67 16.03 6.76 22.44 10.15a270.31 270.31 0 0 1 8.76 4.85l.17-.3a1132.83 1132.83 0 0 1 16.18-28.24 567.37 567.37 0 0 1 14.49-23.35c4.57-6.89 8.84-12.72 11.9-15.47Z"/></g><defs><clipPath id="a"><path fill="#fff" d="M0 0h300v300H0z"/></clipPath></defs></svg>