<svg height="300pt" preserveAspectRatio="xMidYMid meet" viewBox="0 0 300 300" width="300pt" xmlns="http://www.w3.org/2000/svg"><path d="m2395 2822c-58-4-134-31-182-64-69-47-140-145-297-408-47-80-91-152-96-160-6-8-13-22-17-30s-17-32-30-53l-24-38-27 19c-35 24-213 106-275 126-54 18-133 21-173 6-14-6-39-24-55-41-32-35-29-35-139 14-79 35-84 37-150 58-70 23-139 26-183 10-118-45-367-475-502-866-87-252-109-380-78-454 25-60 66-108 183-215 177-161 680-490 811-529 67-20 147-14 214 17 94 43 274 195 505 426 144 144 194 201 278 315 126 170 155 232 158 341 2 58 7 89 22 115 11 18 59 99 107 179 215 356 360 623 396 727 40 118 1 266-96 365-84 85-242 148-350 140z" transform="matrix(.1 0 0 -.1 0 300)"/></svg>