<svg xmlns="http://www.w3.org/2000/svg" fill="none" viewBox="0 0 271 700"><g filter="url(#a)"><path fill="#fff" d="M198.75 668.45c3.79 1.5 10.51 2.07 12.6 0 2.07-2.06-.95-5.07-4.73-7.32-3.78-2.26-10-3.5-11.91-.57-1.92 2.93.26 6.39 4.04 7.9Z"/><path fill="#fff" d="M202.45 656.46c.01 3.6 4 9.69 6.26 10.39 2.25.7 4.18-3.66 4.37-7.2.2-3.54-1.37-7.3-4.37-7.84-3.01-.55-6.27 1.05-6.26 4.65Z"/><path fill="#fff" d="M220.09 665.34c-2.83 2.23-9.3 2.7-11.25 1.37-1.94-1.34.16-4.48 2.66-6.36 2.5-1.89 6.45-3.41 9.05-1.89 2.6 1.52 2.36 4.65-.47 6.88Z"/><path fill="#fff" d="M214.58 676.27c-4.25-.76-6.65-7.1-6.53-9.46.12-2.35 3.82-2.36 7.21-1.33 3.4 1.04 7.01 2.61 7.07 5.62.06 3.02-3.5 5.93-7.75 5.17Z"/><path fill="#fff" d="M207.52 676.23c3.05-1.92 4.66-8.45 4.06-10.74-.6-2.28-4.73-1.7-7.83 0-3.1 1.7-5.6 5.2-5.04 8.15.56 2.97 5.76 4.5 8.81 2.59Z"/><path fill="#FFB627" d="M215 665.86c0 1.46-2.58 1.99-5.32 1.99-2.73 0-5.68-.53-5.68-1.99s2.95-3.01 5.68-3.01c2.74 0 5.32 1.55 5.32 3.01Z"/></g><g filter="url(#b)"><path fill="#fff" d="M253.5 686.85c-3.66-1.78-7.62-5.08-7.5-8 .12-2.93 4.79-2.78 9-1.5 4.21 1.27 9.95 3.33 8.5 7.5-1.45 4.16-6.34 3.78-10 2Z"/><path fill="#fff" d="M256.22 670.54c-3.5 1-7.1 5.61-6.9 7.97.2 2.35 5.79 3.12 9.14 1.98 3.35-1.15 6.88-3.45 6.26-6.45-.62-3-5-4.5-8.5-3.5Z"/><path fill="#fff" d="M242.12 672.36c.28 4.06 5 8.44 7.61 9.05 2.6.6 4.44-4.55 4.39-8.55-.06-4.01-3.72-6.01-6.62-6.01s-5.68 1.44-5.38 5.5Z"/><path fill="#fff" d="M238.9 684.27c3.4 1.55 9.73.14 11.4-1.54 1.65-1.68-.84-4.42-3.89-6.23-3.05-1.8-6.64-1.64-8.91.35-2.27 1.98-2 5.88 1.4 7.42Z"/><path fill="#fff" d="M243.41 688.16c-.64-3.54 3.1-9.14 5.2-10.24 2.08-1.09 4.44 2.35 5.27 5.79.83 3.44 1.19 6.05-1.38 7.64-2.56 1.58-8.45.35-9.09-3.19Z"/><path fill="#FFB627" d="M256.15 679.6c0 1.57-2.51 2.13-5.17 2.13s-5.53-.56-5.53-2.13c0-1.56 2.87-3.22 5.53-3.22s5.17 1.66 5.17 3.23Z"/></g><g filter="url(#c)"><path fill="#fff" d="M182.37 81.03c4.05.38 8.92 2.07 9.83 4.85.92 2.79-3.5 4.28-7.9 4.57-4.39.29-10.49.38-10.6-4.03-.1-4.41 4.62-5.77 8.67-5.4Z"/><path fill="#fff" d="M185.55 97.25c2.93-2.17 4.68-7.75 3.67-9.88-1.01-2.14-6.52-.9-9.26 1.36-2.74 2.25-5.23 5.64-3.6 8.23 1.63 2.59 6.27 2.45 9.2.29Z"/><path fill="#fff" d="M198.12 90.59c-1.7-3.7-7.66-6.14-10.31-5.8-2.66.35-2.56 5.82-1.1 9.55 1.46 3.74 5.59 4.32 8.3 3.3 2.73-1.02 4.81-3.35 3.11-7.05Z"/><path fill="#fff" d="M196.94 78.3c-3.74-.25-9.16 3.3-10.12 5.46-.97 2.15 2.33 3.84 5.82 4.46 3.49.62 6.8-.8 8.22-3.46 1.42-2.65-.2-6.2-3.93-6.46Z"/><path fill="#fff" d="M191.35 76.25c1.85 3.1.31 9.65-1.26 11.4-1.58 1.77-4.99-.62-6.98-3.55-1.99-2.93-3.23-5.25-1.39-7.64 1.84-2.38 7.78-3.3 9.63-.21Z"/><path fill="#FFB627" d="M192.93 88.31c-.12 1.56-2.66 1.94-5.31 1.74-2.65-.2-5.47-.96-5.36-2.52.12-1.56 3.1-3 5.75-2.81 2.65.2 5.03 2.03 4.92 3.6Z"/></g><g filter="url(#d)"><path fill="#fff" d="M208 19c-3.48.92-10.07 1.99-12.15-.08s.94-5.07 4.73-7.32c3.78-2.26 9.05-3.37 11.9-.57 2.86 2.8-1 7.05-4.48 7.97Z"/><path fill="#fff" d="M193.45 6.61c.01 3.6 3.12 10.24 5.37 10.93 2.26.7 5.07-4.2 5.26-7.74.2-3.53-1.37-7.29-4.37-7.83-3.01-.55-6.27 1.04-6.26 4.64Z"/><path fill="#fff" d="M185.89 16.24c2.83 2.22 9.75 2.1 11.7.77 1.95-1.34-.09-4.43-2.74-6.78-2.65-2.35-6.36-2.99-8.96-1.47-2.6 1.52-2.83 5.25 0 7.48Z"/><path fill="#fff" d="M192.85 26.42c4.26-.76 6.66-7.1 6.54-9.45-.12-2.36-3.83-2.37-7.21-1.33-3.4 1.03-6.18 3.35-6.24 6.36-.06 3.01 2.66 5.18 6.91 4.42Z"/><path fill="#fff" d="M201.5 27c-3.44-1.5-4.99-7.6-4.39-9.9.6-2.28 4.73-1.7 7.83 0 3.1 1.72 5.62 3.94 5.06 6.9-.56 2.96-5.06 4.5-8.5 3Z"/><path fill="#FFB627" d="M204 16.01c0 1.47-2.35 1.99-4.83 1.99-2.49 0-5.17-.52-5.17-1.99 0-1.46 2.68-3.01 5.17-3.01 2.48 0 4.83 1.55 4.83 3.01Z"/></g><g filter="url(#e)"><path fill="#fff" d="M164.38 60.73c-3.6-.16-10.2-1.1-11.58-3.7-1.37-2.59 2.42-4.56 6.7-5.58 4.28-1.03 9.64-.52 11.53 3 1.9 3.53-3.05 6.44-6.65 6.28Z"/><path fill="#fff" d="M154.18 44.57c-1.06 3.44-.07 10.7 1.87 12.03 1.95 1.34 6.09-2.5 7.33-5.82 1.24-3.32.86-7.37-1.84-8.78-2.71-1.42-6.3-.87-7.36 2.57Z"/><path fill="#fff" d="M144.1 51.5c2.03 2.97 8.68 4.92 10.94 4.22 2.25-.69 1.23-4.24-.6-7.28-1.83-3.03-5.19-4.75-8.12-4.07-2.94.68-4.26 4.16-2.23 7.13Z"/><path fill="#fff" d="M147.71 63.3c4.29.54 8.47-4.79 9.05-7.08.6-2.28-2.94-3.4-6.49-3.41-3.54-.02-6.9 1.35-7.84 4.21-.96 2.86 1 5.74 5.28 6.28Z"/><path fill="#fff" d="M155.8 66.43c-2.85-2.46-2.5-8.75-1.25-10.75s5.02-.22 7.47 2.33c2.46 2.56 4.2 5.42 2.78 8.09-1.42 2.66-6.17 2.79-9 .33Z"/><path fill="#FFB627" d="M161.84 55.1c.03 1.46-2.3 2.04-4.78 2.1-2.49.06-5.18-.4-5.22-1.86-.03-1.46 2.61-3.08 5.1-3.14 2.48-.06 4.87 1.44 4.9 2.9Z"/></g><g filter="url(#f)"><path fill="#fff" d="M19.36 386.92c3.78 1.5 10.59 2.06 12.67 0 2.08-2.07-.95-5.07-4.73-7.32-3.78-2.26-9.45-4.33-11.9-.57-2.47 3.76.18 6.39 3.96 7.89Z"/><path fill="#fff" d="M23.78 376.61c0 3.6 3.11 10.24 5.37 10.93 2.26.7 5.07-4.2 5.26-7.74.2-3.53-1.37-7.29-4.37-7.83-3.01-.55-6.27 1.04-6.26 4.64Z"/><path fill="#fff" d="M39.88 383.9c-2.83 2.23-9.3 2.7-11.24 1.37-1.95-1.33.33-3.8 2.98-6.15 2.65-2.35 6.12-3.61 8.72-2.1 2.6 1.53 2.37 4.66-.46 6.88Z"/><path fill="#fff" d="M35.02 394.42c-4.25-.76-6.66-7.1-6.53-9.45.12-2.36 3.82-2.37 7.21-1.33 3.39 1.03 7 2.6 7.07 5.62.06 3.01-3.5 5.92-7.75 5.16Z"/><path fill="#fff" d="M26.7 395.84c3.05-1.91 4.67-8.45 4.06-10.73-.6-2.29-4.72-1.7-7.83 0-3.1 1.7-5.6 5.19-5.03 8.15.55 2.96 5.76 4.5 8.8 2.58Z"/><path fill="#FFB627" d="M35.44 384.12c0 1.75-2.82 2.38-5.8 2.38s-6.2-.63-6.2-2.38c0-1.76 3.22-3.62 6.2-3.62s5.8 1.86 5.8 3.62Z"/></g><g filter="url(#g)"><path fill="#fff" d="M25.52 444.92c-3.78 1.5-10.59 2.06-12.67 0-2.08-2.07.95-5.07 4.73-7.32 3.78-2.26 9.45-4.33 11.9-.57 2.46 3.76-.18 6.39-3.96 7.89Z"/><path fill="#fff" d="M10.89 433.61c.01 3.6 3.12 10.24 5.37 10.93 2.26.7 5.07-4.2 5.26-7.74.2-3.53-1.37-7.29-4.37-7.83-3.01-.55-6.27 1.04-6.26 4.64Z"/><path fill="#fff" d="M5 441.9c2.83 2.23 9.29 2.7 11.24 1.37 1.95-1.33-.33-3.8-2.98-6.15-2.65-2.35-6.12-3.61-8.72-2.1-2.6 1.53-2.37 4.66.46 6.88Z"/><path fill="#fff" d="M9.86 452.42c4.25-.76 6.65-7.1 6.53-9.45-.12-2.36-3.83-2.37-7.22-1.33C5.8 442.67 3 444.99 2.94 448c-.06 3.01 2.66 5.18 6.92 4.42Z"/><path fill="#fff" d="M18.17 453.84c-3.05-1.91-4.66-8.45-4.06-10.73.6-2.29 4.73-1.7 7.83 0 3.1 1.7 5.6 5.19 5.04 8.15-.56 2.96-5.76 4.5-8.8 2.58Z"/><path fill="#FFB627" d="M22.44 442.62c0 1.75-2.82 2.38-5.8 2.38s-6.2-.63-6.2-2.38c0-1.76 3.22-3.62 6.2-3.62s5.8 1.86 5.8 3.62Z"/></g><g filter="url(#h)"><path fill="#fff" d="M73.34 432.1c-3.15 1.25-8.83 1.72-10.56 0-1.73-1.72.79-4.23 3.94-6.1 3.15-1.88 7.88-3.6 9.92-.47 2.05 3.13-.15 5.32-3.3 6.57Z"/><path fill="#fff" d="M70.28 422.51c0 3-2.6 8.53-4.48 9.1-1.88.6-4.22-3.5-4.38-6.44-.16-2.95 1.14-6.07 3.65-6.53 2.5-.46 5.22.87 5.21 3.87Z"/><path fill="#fff" d="M55.06 428.93c2.35 1.86 7.74 2.25 9.36 1.14 1.63-1.11-.27-3.16-2.48-5.12-2.2-1.96-5.1-3.02-7.27-1.75s-1.97 3.88.39 5.73Z"/><path fill="#fff" d="M60.29 438.35c3.54-.63 5.54-5.91 5.44-7.88-.1-1.96-3.19-1.97-6.01-1.1-2.82.86-5.84 2.17-5.89 4.68-.05 2.51 2.91 4.94 6.46 4.3Z"/><path fill="#fff" d="M67.22 439.54c-2.54-1.6-3.89-7.05-3.39-8.95.5-1.9 3.94-1.42 6.53 0 2.59 1.42 4.66 4.33 4.2 6.8-.47 2.46-4.8 3.74-7.34 2.15Z"/><path fill="#FFB627" d="M59.94 429.76c0 1.47 2.35 1.99 4.83 1.99 2.49 0 5.17-.52 5.17-1.99 0-1.46-2.68-3.01-5.17-3.01-2.48 0-4.83 1.55-4.83 3.01Z"/></g><defs><filter id="a" width="32.36" height="29.37" x="192" y="651.71" color-interpolation-filters="sRGB" filterUnits="userSpaceOnUse"><feFlood flood-opacity="0" result="BackgroundImageFix"/><feColorMatrix in="SourceAlpha" result="hardAlpha" values="0 0 0 0 0 0 0 0 0 0 0 0 0 0 0 0 0 0 127 0"/><feOffset dy="2"/><feGaussianBlur stdDeviation="1"/><feComposite in2="hardAlpha" operator="out"/><feColorMatrix values="0 0 0 0 0.203922 0 0 0 0 0.545098 0 0 0 0 0.462745 0 0 0 1 0"/><feBlend in2="BackgroundImageFix" result="effect1_dropShadow_52_4081"/><feBlend in="SourceGraphic" in2="effect1_dropShadow_52_4081" result="shape"/></filter><filter id="b" width="32.76" height="29.18" x="234.03" y="666.85" color-interpolation-filters="sRGB" filterUnits="userSpaceOnUse"><feFlood flood-opacity="0" result="BackgroundImageFix"/><feColorMatrix in="SourceAlpha" result="hardAlpha" values="0 0 0 0 0 0 0 0 0 0 0 0 0 0 0 0 0 0 127 0"/><feOffset dy="2"/><feGaussianBlur stdDeviation="1"/><feComposite in2="hardAlpha" operator="out"/><feColorMatrix values="0 0 0 0 0.203922 0 0 0 0 0.545098 0 0 0 0 0.462745 0 0 0 1 0"/><feBlend in2="BackgroundImageFix" result="effect1_dropShadow_52_4081"/><feBlend in="SourceGraphic" in2="effect1_dropShadow_52_4081" result="shape"/></filter><filter id="c" width="31.67" height="28.61" x="171.71" y="74.28" color-interpolation-filters="sRGB" filterUnits="userSpaceOnUse"><feFlood flood-opacity="0" result="BackgroundImageFix"/><feColorMatrix in="SourceAlpha" result="hardAlpha" values="0 0 0 0 0 0 0 0 0 0 0 0 0 0 0 0 0 0 127 0"/><feOffset dy="2"/><feGaussianBlur stdDeviation="1"/><feComposite in2="hardAlpha" operator="out"/><feColorMatrix values="0 0 0 0 0.203922 0 0 0 0 0.545098 0 0 0 0 0.462745 0 0 0 1 0"/><feBlend in2="BackgroundImageFix" result="effect1_dropShadow_52_4081"/><feBlend in="SourceGraphic" in2="effect1_dropShadow_52_4081" result="shape"/></filter><filter id="d" width="33.63" height="29.72" x="181.85" y="1.86" color-interpolation-filters="sRGB" filterUnits="userSpaceOnUse"><feFlood flood-opacity="0" result="BackgroundImageFix"/><feColorMatrix in="SourceAlpha" result="hardAlpha" values="0 0 0 0 0 0 0 0 0 0 0 0 0 0 0 0 0 0 127 0"/><feOffset dy="2"/><feGaussianBlur stdDeviation="1"/><feComposite in2="hardAlpha" operator="out"/><feColorMatrix values="0 0 0 0 0.203922 0 0 0 0 0.545098 0 0 0 0 0.462745 0 0 0 1 0"/><feBlend in2="BackgroundImageFix" result="effect1_dropShadow_52_4081"/><feBlend in="SourceGraphic" in2="effect1_dropShadow_52_4081" result="shape"/></filter><filter id="e" width="33.26" height="30.92" x="140.19" y="41.27" color-interpolation-filters="sRGB" filterUnits="userSpaceOnUse"><feFlood flood-opacity="0" result="BackgroundImageFix"/><feColorMatrix in="SourceAlpha" result="hardAlpha" values="0 0 0 0 0 0 0 0 0 0 0 0 0 0 0 0 0 0 127 0"/><feOffset dy="2"/><feGaussianBlur stdDeviation="1"/><feComposite in2="hardAlpha" operator="out"/><feColorMatrix values="0 0 0 0 0.203922 0 0 0 0 0.545098 0 0 0 0 0.462745 0 0 0 1 0"/><feBlend in2="BackgroundImageFix" result="effect1_dropShadow_52_4081"/><feBlend in="SourceGraphic" in2="effect1_dropShadow_52_4081" result="shape"/></filter><filter id="f" width="32.33" height="28.83" x="12.44" y="371.86" color-interpolation-filters="sRGB" filterUnits="userSpaceOnUse"><feFlood flood-opacity="0" result="BackgroundImageFix"/><feColorMatrix in="SourceAlpha" result="hardAlpha" values="0 0 0 0 0 0 0 0 0 0 0 0 0 0 0 0 0 0 127 0"/><feOffset dy="2"/><feGaussianBlur stdDeviation="1"/><feComposite in2="hardAlpha" operator="out"/><feColorMatrix values="0 0 0 0 0.203922 0 0 0 0 0.545098 0 0 0 0 0.462745 0 0 0 1 0"/><feBlend in2="BackgroundImageFix" result="effect1_dropShadow_52_4081"/><feBlend in="SourceGraphic" in2="effect1_dropShadow_52_4081" result="shape"/></filter><filter id="g" width="31.72" height="29.83" x=".72" y="428.86" color-interpolation-filters="sRGB" filterUnits="userSpaceOnUse"><feFlood flood-opacity="0" result="BackgroundImageFix"/><feColorMatrix in="SourceAlpha" result="hardAlpha" values="0 0 0 0 0 0 0 0 0 0 0 0 0 0 0 0 0 0 127 0"/><feOffset dy="2"/><feGaussianBlur stdDeviation="1"/><feComposite in2="hardAlpha" operator="out"/><feColorMatrix values="0 0 0 0 0.203922 0 0 0 0 0.545098 0 0 0 0 0.462745 0 0 0 1 0"/><feBlend in2="BackgroundImageFix" result="effect1_dropShadow_52_4081"/><feBlend in="SourceGraphic" in2="effect1_dropShadow_52_4081" result="shape"/></filter><filter id="h" width="28.28" height="25.69" x="51.16" y="418.55" color-interpolation-filters="sRGB" filterUnits="userSpaceOnUse"><feFlood flood-opacity="0" result="BackgroundImageFix"/><feColorMatrix in="SourceAlpha" result="hardAlpha" values="0 0 0 0 0 0 0 0 0 0 0 0 0 0 0 0 0 0 127 0"/><feOffset dy="2"/><feGaussianBlur stdDeviation="1"/><feComposite in2="hardAlpha" operator="out"/><feColorMatrix values="0 0 0 0 0.203922 0 0 0 0 0.545098 0 0 0 0 0.462745 0 0 0 1 0"/><feBlend in2="BackgroundImageFix" result="effect1_dropShadow_52_4081"/><feBlend in="SourceGraphic" in2="effect1_dropShadow_52_4081" result="shape"/></filter></defs></svg>