<svg fill="none" viewBox="0 0 79 51" xmlns="http://www.w3.org/2000/svg" xmlns:xlink="http://www.w3.org/1999/xlink"><filter id="a" color-interpolation-filters="sRGB" filterUnits="userSpaceOnUse" height="29.37" width="32.36" x="0" y="2.71"><feFlood flood-opacity="0" result="BackgroundImageFix"/><feColorMatrix in="SourceAlpha" result="hardAlpha" values="0 0 0 0 0 0 0 0 0 0 0 0 0 0 0 0 0 0 127 0"/><feOffset dy="2"/><feGaussianBlur stdDeviation="1"/><feComposite in2="hardAlpha" operator="out"/><feColorMatrix values="0 0 0 0 0.203922 0 0 0 0 0.545098 0 0 0 0 0.462745 0 0 0 1 0"/><feBlend in2="BackgroundImageFix" result="effect1_dropShadow_55_375"/><feBlend in="SourceGraphic" in2="effect1_dropShadow_55_375" result="shape"/></filter><filter id="b" color-interpolation-filters="sRGB" filterUnits="userSpaceOnUse" height="29.18" width="32.76" x="42.03" y="17.85"><feFlood flood-opacity="0" result="BackgroundImageFix"/><feColorMatrix in="SourceAlpha" result="hardAlpha" values="0 0 0 0 0 0 0 0 0 0 0 0 0 0 0 0 0 0 127 0"/><feOffset dy="2"/><feGaussianBlur stdDeviation="1"/><feComposite in2="hardAlpha" operator="out"/><feColorMatrix values="0 0 0 0 0.203922 0 0 0 0 0.545098 0 0 0 0 0.462745 0 0 0 1 0"/><feBlend in2="BackgroundImageFix" result="effect1_dropShadow_55_375"/><feBlend in="SourceGraphic" in2="effect1_dropShadow_55_375" result="shape"/></filter><g filter="url(#a)"><g fill="#fff"><path d="m6.75 19.45c3.79 1.5 10.51 2.07 12.6 0 2.07-2.06-.95-5.07-4.73-7.32-3.78-2.26-10-3.5-11.91-.57-1.92 2.93.26 6.39 4.04 7.9z"/><path d="m10.45 7.46c.01 3.6 4 9.69 6.26 10.39 2.25.7 4.18-3.66 4.37-7.2.2-3.54-1.36-7.3-4.37-7.84-3.01-.55-6.27 1.05-6.26 4.65z"/><path d="m28.08 16.34c-2.82 2.23-9.28 2.7-11.23 1.37-1.95-1.34.15-4.48 2.65-6.36 2.5-1.89 6.45-3.41 9.05-1.89s2.36 4.65-.47 6.88z"/><path d="m22.58 27.27c-4.25-.76-6.65-7.1-6.53-9.46s3.83-2.36 7.21-1.33c3.4 1.04 7.01 2.61 7.07 5.62.06 3.02-3.5 5.93-7.75 5.17z"/><path d="m15.52 27.23c3.05-1.92 4.66-8.45 4.06-10.74-.6-2.28-4.73-1.7-7.83 0s-5.6 5.2-5.04 8.15c.56 2.97 5.76 4.5 8.81 2.59z"/></g><path d="m23 16.86c0 1.46-2.58 1.99-5.32 1.99-2.73 0-5.68-.53-5.68-1.99s2.95-3.01 5.68-3.01c2.74 0 5.32 1.55 5.32 3.01z" fill="#ffb627"/></g><g filter="url(#b)"><g fill="#fff"><path d="m61.5 37.85c-3.66-1.78-7.62-5.08-7.5-8 .12-2.93 4.79-2.78 9-1.5 4.21 1.27 9.95 3.33 8.5 7.5-1.45 4.16-6.34 3.78-10 2z"/><path d="m64.22 21.54c-3.5 1-7.1 5.61-6.9 7.96.2 2.36 5.79 3.13 9.14 1.99 3.35-1.15 6.88-3.45 6.26-6.45-.61-3-5-4.5-8.5-3.5z"/><path d="m50.12 23.36c.29 4.06 5 8.44 7.61 9.05 2.6.6 4.44-4.55 4.39-8.55-.06-4.01-3.71-6.01-6.62-6.01-2.9 0-5.68 1.44-5.38 5.5z"/><path d="m46.9 35.27c3.4 1.55 9.73.14 11.4-1.54 1.65-1.68-.84-4.42-3.89-6.23-3.05-1.8-6.64-1.64-8.91.35-2.27 1.98-2 5.88 1.4 7.42z"/><path d="m51.41 39.16c-.64-3.54 3.1-9.14 5.2-10.23 2.09-1.1 4.44 2.34 5.27 5.78s1.18 6.05-1.38 7.64c-2.57 1.58-8.45.35-9.09-3.19z"/></g><path d="m64.15 30.6c0 1.57-2.51 2.13-5.17 2.13s-5.53-.56-5.53-2.13c0-1.56 2.87-3.22 5.53-3.22s5.17 1.66 5.17 3.22z" fill="#ffb627"/></g></svg>