<svg xmlns="http://www.w3.org/2000/svg" xmlns:xlink="http://www.w3.org/1999/xlink" width="872" height="1184" fill="none"><defs><path id="reuse-0" fill="#60D86B" d="M211.8 22.8c-5.7 3.2-7.2 8.8-8.7 14.6l-7.3 27.1c-1.5 5.8-3 11.4.2 17 3.3 5.6 8.9 7.1 14.6 8.7l27.2 7.2c5.7 1.6 11.3 3 17-.2 5.6-3.2 7-8.8 8.6-14.6l7.3-27.1c1.5-5.8 3-11.4-.2-17-3.3-5.6-8.9-7.1-14.6-8.7l-27.2-7.2c-5.7-1.6-11.3-3-17 .2ZM192.6 94.2c-5.6 3.3-7.1 8.9-8.7 14.6l-7.2 27.2c-1.6 5.7-3 11.4.2 17s8.8 7.1 14.6 8.6l27.1 7.3c5.8 1.6 11.4 3 17-.2s7.1-8.8 8.7-14.6l7.3-27.1c1.5-5.8 3-11.4-.3-17-3.2-5.6-8.8-7.2-14.6-8.7L209.6 94c-5.8-1.5-11.4-3-17 .2ZM173.5 165.7c-5.7 3.3-7.2 8.9-8.7 14.6l-7.3 27.2c-1.5 5.7-3 11.3.2 17 3.3 5.6 8.9 7 14.6 8.6l27.2 7.3c5.7 1.5 11.3 3 17-.2 5.6-3.3 7-8.9 8.6-14.6l7.3-27.2c1.5-5.7 3-11.3-.2-17-3.3-5.6-8.9-7-14.6-8.6l-27.2-7.3c-5.7-1.5-11.3-3-17 .2ZM154.3 237.2c-5.6 3.2-7.1 8.9-8.7 14.6l-7.2 27.2c-1.6 5.7-3 11.3.2 17 3.2 5.6 8.8 7 14.6 8.6l27.1 7.3c5.8 1.5 11.4 3 17-.2 5.6-3.3 7.1-8.9 8.7-14.6l7.2-27.2c1.6-5.7 3-11.3-.2-17-3.2-5.6-8.8-7-14.6-8.6l-27.1-7.3c-5.8-1.5-11.4-3-17 .2ZM135.2 308.7c-5.7 3.2-7.2 8.8-8.7 14.6l-7.3 27.1c-1.5 5.8-3 11.4.2 17 3.3 5.6 8.9 7.1 14.6 8.7l27.2 7.3c5.7 1.5 11.3 3 17-.2 5.6-3.3 7-9 8.6-14.7l7.3-27.1c1.5-5.7 3-11.4-.2-17-3.3-5.6-8.9-7.1-14.6-8.7l-27.2-7.2c-5.7-1.6-11.3-3-17 .2ZM116 380.2c-5.6 3.2-7.1 8.8-8.7 14.6l-7.2 27.1c-1.6 5.8-3 11.4.2 17s8.8 7.1 14.6 8.7l27.1 7.2c5.8 1.6 11.4 3 17-.2s7.1-8.8 8.7-14.6l7.2-27.1c1.6-5.8 3-11.4-.2-17s-8.8-7.1-14.6-8.7L133 380c-5.8-1.5-11.4-3-17 .3ZM96.8 451.6c-5.6 3.3-7 8.9-8.6 14.6l-7.3 27.2c-1.5 5.7-3 11.3.2 17 3.3 5.6 8.9 7.1 14.6 8.6l27.2 7.3c5.7 1.6 11.3 3 17-.2 5.6-3.2 7-8.9 8.6-14.6l7.3-27.1c1.5-5.8 3-11.4-.2-17-3.3-5.7-8.9-7.2-14.6-8.7l-27.2-7.3c-5.7-1.5-11.3-3-17 .2ZM77.7 523.1c-5.6 3.3-7.1 8.9-8.7 14.6L61.7 565c-1.5 5.7-3 11.3.3 17 3.2 5.6 8.8 7 14.6 8.6l27.1 7.3c5.8 1.5 11.4 3 17-.2 5.6-3.3 7.1-8.9 8.7-14.6l7.2-27.2c1.6-5.7 3-11.3-.2-17-3.2-5.6-8.8-7-14.6-8.6l-27.1-7.3c-5.8-1.5-11.4-3-17 .2ZM58.5 594.6c-5.6 3.2-7 8.9-8.6 14.6l-7.3 27.1c-1.5 5.8-3 11.4.2 17 3.2 5.7 8.9 7.2 14.6 8.7l27.2 7.3c5.7 1.5 11.3 3 17-.2 5.6-3.3 7-8.9 8.6-14.6l7.3-27.2c1.5-5.7 3-11.3-.2-17-3.3-5.6-8.9-7.1-14.6-8.6l-27.2-7.3c-5.7-1.6-11.3-3-17 .2ZM283.2 42c-5.6 3.2-7 8.8-8.6 14.5l-7.3 27.2c-1.5 5.7-3 11.3.2 17 3.2 5.6 8.9 7 14.6 8.6l27.2 7.3c5.7 1.5 11.3 3 17-.2 5.6-3.3 7-8.9 8.6-14.6l7.3-27.2c1.5-5.7 3-11.3-.2-17-3.3-5.6-8.9-7-14.6-8.6l-27.2-7.3c-5.7-1.5-11.3-3-17 .2ZM264 113.4c-5.5 3.2-7 8.9-8.6 14.6l-7.3 27.1c-1.5 5.8-3 11.4.2 17 3.3 5.7 9 7.2 14.7 8.7l27.1 7.3c5.7 1.5 11.4 3 17-.2 5.6-3.3 7.1-8.9 8.7-14.6L323 146c1.6-5.7 3-11.3-.2-17-3.2-5.6-8.8-7.1-14.6-8.6l-27.1-7.3c-5.8-1.6-11.4-3-17 .2ZM245 184.9c-5.7 3.2-7.2 8.8-8.7 14.6l-7.3 27.1c-1.6 5.8-3 11.4.2 17s8.9 7.1 14.6 8.7l27.1 7.3c5.8 1.5 11.4 3 17-.3 5.7-3.2 7.2-8.8 8.7-14.6l7.3-27.1c1.5-5.7 3-11.4-.2-17-3.3-5.6-8.9-7.1-14.6-8.7l-27.2-7.2c-5.7-1.6-11.3-3-17 .2ZM225.8 256.4c-5.6 3.2-7.2 8.8-8.7 14.6l-7.3 27.1c-1.5 5.7-3 11.4.2 17 3.3 5.6 8.9 7.1 14.6 8.7l27.2 7.2c5.7 1.6 11.4 3 17-.2s7.1-8.8 8.7-14.6l7.2-27.1c1.6-5.8 3-11.4-.2-17s-8.8-7.1-14.6-8.7l-27.1-7.3c-5.8-1.5-11.4-3-17 .3ZM206.6 327.8c-5.6 3.3-7.1 8.9-8.6 14.6l-7.3 27.2c-1.6 5.7-3 11.3.2 17 3.2 5.6 8.9 7.1 14.6 8.6l27.1 7.3c5.8 1.6 11.4 3 17-.2 5.7-3.2 7.2-8.9 8.7-14.6l7.3-27.1c1.5-5.8 3-11.4-.2-17-3.3-5.7-8.9-7.2-14.6-8.7l-27.2-7.3c-5.7-1.5-11.3-3-17 .2ZM187.5 399.3c-5.7 3.3-7.2 8.9-8.7 14.6l-7.3 27.2c-1.5 5.7-3 11.3.2 17 3.3 5.6 8.9 7 14.6 8.6l27.2 7.3c5.7 1.5 11.3 3 17-.2 5.6-3.3 7.1-8.9 8.6-14.6l7.3-27.2c1.6-5.7 3-11.3-.2-17-3.2-5.6-8.8-7-14.6-8.6l-27.1-7.3c-5.8-1.5-11.4-3-17 .2ZM168.3 470.8c-5.6 3.2-7.1 8.8-8.6 14.6l-7.3 27.1c-1.6 5.8-3 11.4.2 17 3.2 5.7 8.8 7.2 14.6 8.7l27.1 7.3c5.8 1.5 11.4 3 17-.2 5.6-3.3 7.2-8.9 8.7-14.6l7.3-27.2c1.5-5.7 3-11.3-.2-17-3.3-5.6-8.9-7.1-14.6-8.6l-27.2-7.3c-5.7-1.6-11.4-3-17 .2ZM149.2 542.3c-5.7 3.2-7.2 8.8-8.7 14.6l-7.3 27.1c-1.5 5.8-3 11.4.2 17 3.3 5.6 8.9 7.1 14.6 8.7l27.2 7.2c5.7 1.6 11.3 3 17-.2 5.6-3.2 7.1-8.8 8.6-14.6l7.3-27.1c1.6-5.8 3-11.4-.2-17s-8.9-7.1-14.6-8.7l-27.1-7.2c-5.8-1.6-11.4-3-17 .2ZM130 613.7c-5.6 3.3-7.1 8.9-8.7 14.6l-7.2 27.2c-1.6 5.7-3 11.4.2 17s8.8 7.1 14.6 8.7l27.1 7.2c5.8 1.6 11.4 3 17-.2s7.1-8.8 8.7-14.6l7.3-27.1c1.5-5.8 3-11.4-.2-17-3.3-5.6-9-7.1-14.6-8.7l-27.2-7.3c-5.7-1.5-11.4-3-17 .2Z"/><path id="reuse-1" fill="#60D86B" d="M283.2 42c-5.6 3.2-7 8.8-8.6 14.5l-7.3 27.2c-1.5 5.7-3 11.3.2 17 3.2 5.6 8.9 7 14.6 8.6l27.2 7.3c5.7 1.5 11.3 3 17-.2 5.6-3.3 7-8.9 8.6-14.6l7.3-27.2c1.5-5.7 3-11.3-.2-17-3.3-5.6-8.9-7-14.6-8.6l-27.2-7.3c-5.7-1.5-11.3-3-17 .2ZM264 113.4c-5.5 3.2-7 8.9-8.6 14.6l-7.3 27.1c-1.5 5.8-3 11.4.2 17 3.3 5.7 9 7.2 14.7 8.7l27.1 7.3c5.7 1.5 11.4 3 17-.2 5.6-3.3 7.1-8.9 8.7-14.6L323 146c1.6-5.7 3-11.3-.2-17-3.2-5.6-8.8-7.1-14.6-8.6l-27.1-7.3c-5.8-1.6-11.4-3-17 .2ZM245 184.9c-5.7 3.2-7.2 8.8-8.7 14.6l-7.3 27.1c-1.6 5.8-3 11.4.2 17s8.9 7.1 14.6 8.7l27.1 7.3c5.8 1.5 11.4 3 17-.3 5.7-3.2 7.2-8.8 8.7-14.6l7.3-27.1c1.5-5.7 3-11.4-.2-17-3.3-5.6-8.9-7.1-14.6-8.7l-27.2-7.2c-5.7-1.6-11.3-3-17 .2ZM225.8 256.4c-5.6 3.2-7.2 8.8-8.7 14.6l-7.3 27.1c-1.5 5.7-3 11.4.2 17 3.3 5.6 8.9 7.1 14.6 8.7l27.2 7.2c5.7 1.6 11.4 3 17-.2s7.1-8.8 8.7-14.6l7.2-27.1c1.6-5.8 3-11.4-.2-17s-8.8-7.1-14.6-8.7l-27.1-7.3c-5.8-1.5-11.4-3-17 .3ZM206.6 327.8c-5.6 3.3-7.1 8.9-8.6 14.6l-7.3 27.2c-1.6 5.7-3 11.3.2 17 3.2 5.6 8.9 7.1 14.6 8.6l27.1 7.3c5.8 1.6 11.4 3 17-.2 5.7-3.2 7.2-8.9 8.7-14.6l7.3-27.1c1.5-5.8 3-11.4-.2-17-3.3-5.7-8.9-7.2-14.6-8.7l-27.2-7.3c-5.7-1.5-11.3-3-17 .2ZM187.5 399.3c-5.7 3.3-7.2 8.9-8.7 14.6l-7.3 27.2c-1.5 5.7-3 11.3.2 17 3.3 5.6 8.9 7 14.6 8.6l27.2 7.3c5.7 1.5 11.3 3 17-.2 5.6-3.3 7.1-8.9 8.6-14.6l7.3-27.2c1.6-5.7 3-11.3-.2-17-3.2-5.6-8.8-7-14.6-8.6l-27.1-7.3c-5.8-1.5-11.4-3-17 .2ZM168.3 470.8c-5.6 3.2-7.1 8.8-8.6 14.6l-7.3 27.1c-1.6 5.8-3 11.4.2 17 3.2 5.7 8.8 7.2 14.6 8.7l27.1 7.3c5.8 1.5 11.4 3 17-.2 5.6-3.3 7.2-8.9 8.7-14.6l7.3-27.2c1.5-5.7 3-11.3-.2-17-3.3-5.6-8.9-7.1-14.6-8.6l-27.2-7.3c-5.7-1.6-11.4-3-17 .2ZM149.2 542.3c-5.7 3.2-7.2 8.8-8.7 14.6l-7.3 27.1c-1.5 5.8-3 11.4.2 17 3.3 5.6 8.9 7.1 14.6 8.7l27.2 7.2c5.7 1.6 11.3 3 17-.2 5.6-3.2 7.1-8.8 8.6-14.6l7.3-27.1c1.6-5.8 3-11.4-.2-17s-8.9-7.1-14.6-8.7l-27.1-7.2c-5.8-1.6-11.4-3-17 .2ZM130 613.7c-5.6 3.3-7.1 8.9-8.7 14.6l-7.2 27.2c-1.6 5.7-3 11.4.2 17s8.8 7.1 14.6 8.7l27.1 7.2c5.8 1.6 11.4 3 17-.2s7.1-8.8 8.7-14.6l7.3-27.1c1.5-5.8 3-11.4-.2-17-3.3-5.6-9-7.1-14.6-8.7l-27.2-7.3c-5.7-1.5-11.4-3-17 .2ZM354.7 61c-5.6 3.3-7.1 9-8.7 14.7l-7.2 27.1c-1.6 5.8-3 11.4.2 17s8.8 7.1 14.6 8.7l27.1 7.3c5.8 1.5 11.4 3 17-.3 5.6-3.2 7.1-8.8 8.7-14.6l7.3-27.1c1.5-5.8 3-11.4-.2-17-3.3-5.6-8.9-7.1-14.6-8.7L371.7 61c-5.7-1.6-11.4-3-17 .2ZM335.6 132.5c-5.7 3.3-7.2 9-8.7 14.7l-7.3 27.1c-1.5 5.7-3 11.4.2 17 3.3 5.6 8.9 7.1 14.6 8.7l27.2 7.2c5.7 1.6 11.3 3 17-.2 5.6-3.2 7.1-8.8 8.6-14.6l7.3-27.1c1.5-5.8 3-11.4-.2-17s-8.9-7.1-14.6-8.7l-27.2-7.3c-5.7-1.5-11.3-3-17 .2ZM316.4 204c-5.6 3.3-7.1 8.9-8.7 14.6l-7.2 27.2c-1.6 5.7-3 11.3.2 17 3.2 5.6 8.8 7 14.6 8.6l27.1 7.3c5.8 1.5 11.4 3 17-.2s7.1-8.9 8.7-14.6l7.3-27.2c1.5-5.7 3-11.3-.2-17-3.3-5.6-9-7-14.7-8.6l-27.1-7.3c-5.7-1.5-11.4-3-17 .2ZM297.3 275.5c-5.7 3.3-7.2 8.9-8.7 14.6l-7.3 27.2c-1.5 5.7-3 11.3.2 17 3.3 5.6 8.9 7 14.6 8.6l27.2 7.3c5.7 1.5 11.3 3 17-.2 5.6-3.3 7-8.9 8.6-14.6l7.3-27.2c1.5-5.7 3-11.3-.2-17-3.3-5.6-8.9-7-14.6-8.6l-27.2-7.3c-5.7-1.5-11.3-3-17 .2ZM278.1 347c-5.6 3.2-7.1 8.8-8.7 14.6l-7.2 27.1c-1.6 5.8-3 11.4.2 17s8.8 7.2 14.6 8.7l27.1 7.3c5.8 1.5 11.4 3 17-.2 5.6-3.3 7.1-8.9 8.7-14.6l7.3-27.2c1.5-5.7 3-11.4-.3-17-3.2-5.6-8.8-7.1-14.6-8.6l-27.1-7.3c-5.8-1.6-11.4-3-17 .2ZM259 418.5c-5.7 3.2-7.2 8.8-8.7 14.6l-7.3 27.1c-1.5 5.8-3 11.4.2 17 3.3 5.6 8.9 7.1 14.6 8.7L285 493c5.7 1.6 11.3 3 17-.2 5.6-3.2 7-8.8 8.6-14.6l7.3-27.1c1.5-5.8 3-11.4-.2-17-3.3-5.6-8.9-7.1-14.6-8.7l-27.2-7.2c-5.7-1.6-11.3-3-17 .2ZM239.8 490c-5.6 3.2-7.1 8.8-8.7 14.5l-7.2 27.2c-1.6 5.7-3 11.3.2 17 3.2 5.6 8.8 7.1 14.6 8.6l27.1 7.3c5.8 1.6 11.4 3 17-.2s7.1-8.8 8.7-14.6l7.2-27.1c1.6-5.8 3-11.4-.2-17s-8.8-7.2-14.6-8.7l-27.1-7.3c-5.8-1.5-11.4-3-17 .2ZM220.6 561.4c-5.6 3.3-7 8.9-8.6 14.6l-7.3 27.2c-1.5 5.7-3 11.3.2 17 3.3 5.6 8.9 7 14.6 8.6l27.2 7.3c5.7 1.5 11.3 3 17-.2 5.6-3.3 7-8.9 8.6-14.6l7.3-27.2c1.5-5.7 3-11.3-.2-17-3.3-5.6-8.9-7-14.6-8.6l-27.2-7.3c-5.7-1.5-11.3-3-17 .2ZM201.5 632.9c-5.6 3.2-7.1 8.9-8.7 14.6l-7.2 27.1c-1.6 5.8-3 11.4.2 17 3.2 5.7 8.8 7.2 14.6 8.7l27.1 7.3c5.8 1.5 11.4 3 17-.2 5.6-3.3 7.1-8.9 8.7-14.6l7.2-27.2c1.6-5.7 3-11.3-.2-17-3.2-5.6-8.8-7.1-14.6-8.6l-27.1-7.3c-5.8-1.6-11.4-3-17 .2ZM426.2 80.2c-5.6 3.3-7.1 8.9-8.7 14.6l-7.2 27.2c-1.6 5.7-3 11.3.2 17 3.2 5.6 8.8 7 14.6 8.6l27.1 7.3c5.8 1.5 11.4 3 17-.2 5.6-3.3 7.1-8.9 8.7-14.6l7.2-27.2c1.6-5.7 3-11.3-.2-17-3.2-5.6-8.8-7-14.6-8.6L443.2 80c-5.8-1.5-11.4-3-17 .2ZM407 151.7c-5.6 3.2-7 8.9-8.6 14.6l-7.3 27.2c-1.5 5.7-3 11.3.2 17 3.3 5.6 8.9 7 14.6 8.6l27.2 7.3c5.7 1.5 11.3 3 17-.2 5.6-3.3 7-8.9 8.6-14.6l7.3-27.2c1.5-5.7 3-11.3-.2-17-3.3-5.6-8.9-7-14.6-8.6l-27.2-7.3c-5.7-1.5-11.3-3-17 .2ZM387.9 223.2c-5.6 3.2-7.1 8.8-8.7 14.6l-7.3 27.1c-1.5 5.8-3 11.4.3 17 3.2 5.6 8.8 7.1 14.6 8.7l27.1 7.3c5.8 1.5 11.4 3 17-.2 5.6-3.3 7.1-9 8.7-14.7l7.2-27.1c1.6-5.7 3-11.4-.2-17s-8.8-7.1-14.6-8.7L405 223c-5.8-1.6-11.4-3-17 .2ZM368.7 294.7c-5.6 3.2-7 8.8-8.6 14.6l-7.3 27.1c-1.5 5.8-3 11.4.2 17s8.9 7.1 14.6 8.7l27.2 7.2c5.7 1.6 11.3 3 17-.2 5.6-3.2 7-8.8 8.6-14.6l7.3-27.1c1.5-5.8 3-11.4-.2-17-3.3-5.6-8.9-7.1-14.6-8.7l-27.2-7.3c-5.7-1.5-11.3-3-17 .3ZM349.6 366.1c-5.6 3.3-7.1 8.9-8.7 14.6l-7.3 27.2c-1.5 5.7-3 11.3.2 17 3.3 5.6 9 7.1 14.7 8.6l27.1 7.3c5.7 1.6 11.4 3 17-.2s7.1-8.9 8.7-14.6l7.2-27.1c1.6-5.8 3-11.4-.2-17-3.2-5.7-8.8-7.2-14.6-8.7l-27.1-7.3c-5.8-1.5-11.4-3-17 .2ZM330.4 437.6c-5.6 3.3-7.1 8.9-8.6 14.6l-7.3 27.2c-1.6 5.7-3 11.3.2 17 3.2 5.6 8.9 7 14.6 8.6l27.1 7.3c5.8 1.5 11.4 3 17-.2 5.7-3.3 7.2-8.9 8.7-14.6l7.3-27.2c1.5-5.7 3-11.3-.2-17-3.3-5.6-8.9-7-14.6-8.6l-27.2-7.3c-5.7-1.5-11.3-3-17 .2ZM311.3 509c-5.6 3.3-7.2 9-8.7 14.7l-7.3 27.1c-1.5 5.8-3 11.4.2 17 3.3 5.7 8.9 7.2 14.6 8.7l27.2 7.3c5.7 1.5 11.4 3 17-.2 5.6-3.3 7.1-8.9 8.6-14.6l7.3-27.2c1.6-5.7 3-11.3-.2-17-3.2-5.6-8.8-7.1-14.6-8.6l-27.1-7.3c-5.8-1.6-11.4-3-17 .2ZM292.1 580.6c-5.6 3.2-7.1 8.8-8.6 14.6l-7.3 27.1c-1.6 5.8-3 11.4.2 17s8.9 7.1 14.6 8.7l27.1 7.3c5.8 1.5 11.4 3 17-.3 5.7-3.2 7.2-8.8 8.7-14.6l7.3-27.1c1.5-5.8 3-11.4-.2-17-3.3-5.6-8.9-7.1-14.6-8.7l-27.2-7.2c-5.7-1.6-11.3-3-17 .2ZM273 652c-5.7 3.3-7.2 9-8.7 14.7l-7.3 27.1c-1.5 5.7-3 11.4.2 17 3.3 5.6 8.9 7.1 14.6 8.7l27.2 7.2c5.7 1.6 11.3 3 17-.2 5.6-3.2 7.1-8.8 8.6-14.6l7.3-27.1c1.6-5.8 3-11.4-.2-17s-8.8-7.1-14.6-8.7l-27.1-7.3c-5.8-1.5-11.4-3-17 .2ZM497.7 99.4c-5.7 3.2-7.2 8.8-8.7 14.6l-7.3 27.1c-1.5 5.8-3 11.4.2 17 3.3 5.6 8.9 7.1 14.6 8.7l27.2 7.3c5.7 1.5 11.3 3 17-.3 5.6-3.2 7.1-8.8 8.6-14.6l7.3-27.1c1.6-5.7 3-11.4-.2-17s-8.8-7.1-14.6-8.7l-27.1-7.2c-5.8-1.6-11.4-3-17 .2ZM478.5 170.9c-5.6 3.2-7.1 8.8-8.6 14.6l-7.3 27.1c-1.6 5.8-3 11.4.2 17s8.8 7.1 14.6 8.7l27.1 7.2c5.8 1.6 11.4 3 17-.2s7.2-8.8 8.7-14.6l7.3-27.1c1.5-5.8 3-11.4-.2-17-3.3-5.6-8.9-7.1-14.6-8.7l-27.2-7.3c-5.7-1.5-11.4-3-17 .3ZM459.4 242.3c-5.7 3.3-7.2 8.9-8.7 14.6l-7.3 27.2c-1.5 5.7-3 11.3.2 17 3.3 5.6 8.9 7.1 14.6 8.6l27.2 7.3c5.7 1.6 11.3 3 17-.2 5.6-3.2 7.1-8.9 8.6-14.6l7.3-27.1c1.6-5.8 3-11.4-.2-17-3.2-5.7-8.9-7.2-14.6-8.7l-27.1-7.3c-5.8-1.5-11.4-3-17 .2ZM440.2 313.8c-5.6 3.3-7.1 8.9-8.7 14.6l-7.2 27.2c-1.6 5.7-3 11.3.2 17 3.2 5.6 8.8 7 14.6 8.6l27.1 7.3c5.8 1.5 11.4 3 17-.2 5.6-3.3 7.1-8.9 8.7-14.6l7.3-27.2c1.5-5.7 3-11.3-.2-17-3.3-5.6-9-7-14.6-8.6l-27.2-7.3c-5.7-1.5-11.4-3-17 .2ZM421 385.3c-5.6 3.2-7 8.8-8.6 14.6L405 427c-1.5 5.8-3 11.4.2 17 3.3 5.7 8.9 7.2 14.6 8.7l27.2 7.3c5.7 1.5 11.3 3 17-.2 5.6-3.3 7-8.9 8.6-14.6L480 418c1.5-5.7 3-11.3-.2-17-3.2-5.6-8.9-7.1-14.6-8.6L438 385c-5.7-1.6-11.3-3-17 .2ZM402 456.8c-5.7 3.2-7.2 8.8-8.8 14.6l-7.2 27.1c-1.6 5.8-3 11.4.2 17s8.8 7.1 14.6 8.7l27.1 7.2c5.8 1.6 11.4 3 17-.2s7.1-8.8 8.7-14.6l7.3-27.1c1.5-5.8 3-11.4-.3-17-3.2-5.6-8.8-7.1-14.6-8.7l-27.1-7.2c-5.7-1.6-11.4-3-17 .2ZM382.8 528.2c-5.7 3.3-7.2 8.9-8.7 14.6l-7.3 27.2c-1.5 5.7-3 11.4.2 17 3.3 5.6 8.9 7.1 14.6 8.7l27.2 7.2c5.7 1.6 11.3 3 17-.2 5.6-3.2 7-8.8 8.6-14.6l7.3-27.1c1.5-5.8 3-11.4-.2-17-3.3-5.6-8.9-7.1-14.6-8.7l-27.2-7.3c-5.7-1.5-11.3-3-17 .2ZM363.6 599.7c-5.6 3.3-7.1 8.9-8.7 14.6l-7.2 27.2c-1.6 5.7-3 11.3.2 17 3.2 5.6 8.8 7 14.6 8.6l27.1 7.3c5.8 1.5 11.4 3 17-.2s7.1-8.9 8.7-14.6l7.3-27.2c1.5-5.7 3-11.3-.3-17-3.2-5.6-8.8-7-14.6-8.6l-27.1-7.3c-5.8-1.5-11.4-3-17 .2ZM344.5 671.2c-5.7 3.2-7.2 8.9-8.7 14.6l-7.3 27.2c-1.5 5.7-3 11.3.2 17 3.3 5.6 8.9 7 14.6 8.6l27.2 7.3c5.7 1.5 11.3 3 17-.2 5.6-3.3 7-8.9 8.6-14.6l7.3-27.2c1.5-5.7 3-11.3-.2-17-3.3-5.6-8.9-7-14.6-8.6l-27.2-7.3c-5.7-1.5-11.3-3-17 .2ZM569.2 118.5c-5.7 3.3-7.2 8.9-8.7 14.6l-7.3 27.2c-1.5 5.7-3 11.3.2 17 3.3 5.6 8.9 7 14.6 8.6l27.2 7.3c5.7 1.5 11.3 3 17-.2 5.6-3.2 7-8.9 8.6-14.6l7.3-27.2c1.5-5.7 3-11.3-.2-17-3.3-5.6-8.9-7-14.6-8.6l-27.2-7.3c-5.7-1.5-11.3-3-17 .2ZM550 190c-5.6 3.3-7.1 8.9-8.7 14.6l-7.2 27.2c-1.6 5.7-3 11.3.2 17 3.2 5.6 8.8 7 14.6 8.6l27.1 7.3c5.8 1.5 11.4 3 17-.2 5.6-3.3 7.1-8.9 8.7-14.6l7.2-27.2c1.6-5.7 3-11.3-.2-17-3.2-5.6-8.8-7-14.6-8.6l-27.1-7.3c-5.8-1.5-11.4-3-17 .2ZM530.8 261.5c-5.6 3.2-7 8.8-8.6 14.6l-7.3 27.1c-1.5 5.8-3 11.4.2 17 3.3 5.6 8.9 7.2 14.6 8.7l27.2 7.3c5.7 1.5 11.3 3 17-.2 5.6-3.3 7-8.9 8.6-14.6l7.3-27.2c1.5-5.7 3-11.4-.2-17-3.3-5.6-8.9-7.1-14.6-8.6l-27.2-7.3c-5.7-1.6-11.3-3-17 .2ZM511.7 333c-5.6 3.2-7.1 8.8-8.7 14.6l-7.3 27.1c-1.5 5.8-3 11.4.3 17 3.2 5.6 8.8 7.1 14.6 8.7l27.1 7.2c5.8 1.6 11.4 3 17-.2s7.1-8.8 8.7-14.6l7.2-27.1c1.6-5.8 3-11.4-.2-17s-8.8-7.1-14.6-8.7l-27.1-7.2c-5.8-1.6-11.4-3-17 .2ZM492.5 404.4c-5.6 3.3-7 8.9-8.6 14.6l-7.3 27.2c-1.5 5.7-3 11.4.2 17 3.3 5.6 8.9 7.1 14.6 8.6l27.2 7.3c5.7 1.6 11.3 3 17-.2 5.6-3.2 7-8.8 8.6-14.6l7.3-27.1c1.5-5.8 3-11.4-.2-17-3.3-5.6-8.9-7.2-14.6-8.7l-27.2-7.3c-5.7-1.5-11.3-3-17 .2ZM473.4 476c-5.6 3.2-7.1 8.8-8.7 14.5l-7.3 27.2c-1.5 5.7-3 11.3.3 17 3.2 5.6 8.8 7 14.6 8.6l27.1 7.3c5.8 1.5 11.4 3 17-.2 5.6-3.3 7.1-8.9 8.7-14.6l7.2-27.2c1.6-5.7 3-11.3-.2-17-3.2-5.6-8.8-7-14.6-8.6l-27.1-7.3c-5.8-1.5-11.4-3-17 .2ZM454.2 547.4c-5.6 3.2-7 8.9-8.6 14.6l-7.3 27.2c-1.5 5.7-3 11.3.2 17 3.2 5.6 8.9 7 14.6 8.6l27.2 7.3c5.7 1.5 11.3 3 17-.2 5.6-3.3 7-8.9 8.6-14.6l7.3-27.2c1.5-5.7 3-11.3-.2-17-3.3-5.6-8.9-7.1-14.6-8.6l-27.2-7.3c-5.7-1.5-11.3-3-17 .2ZM435 618.9c-5.5 3.2-7 8.8-8.6 14.6l-7.3 27.1c-1.5 5.8-3 11.4.2 17 3.3 5.6 9 7.1 14.7 8.7l27.1 7.3c5.7 1.5 11.4 3 17-.2 5.6-3.3 7.1-9 8.7-14.7l7.2-27.1c1.6-5.7 3-11.4-.2-17s-8.8-7.1-14.6-8.7l-27.1-7.2c-5.8-1.6-11.4-3-17 .2ZM416 690.4c-5.7 3.2-7.2 8.8-8.7 14.6L400 732c-1.6 5.8-3 11.4.2 17s8.9 7.1 14.6 8.7l27.1 7.2c5.8 1.6 11.4 3 17-.2 5.7-3.2 7.2-8.8 8.7-14.6l7.3-27.1c1.5-5.8 3-11.4-.2-17-3.3-5.6-8.9-7.1-14.6-8.7l-27.2-7.3c-5.7-1.5-11.3-3-17 .3ZM640.6 137.7c-5.6 3.2-7.1 8.8-8.6 14.6l-7.3 27.1c-1.6 5.8-3 11.4.2 17s8.9 7.1 14.6 8.7l27.1 7.3c5.8 1.5 11.4 3 17-.2 5.7-3.3 7.2-9 8.7-14.6l7.3-27.2c1.5-5.7 3-11.4-.2-17-3.3-5.6-8.9-7.1-14.6-8.7l-27.2-7.2c-5.7-1.6-11.3-3-17 .2ZM621.5 209.2c-5.6 3.2-7.2 8.8-8.7 14.6l-7.3 27.1c-1.5 5.8-3 11.4.2 17 3.3 5.6 8.9 7.1 14.6 8.7l27.2 7.2c5.7 1.6 11.4 3 17-.2s7.1-8.8 8.6-14.6l7.3-27.1c1.6-5.8 3-11.4-.2-17s-8.8-7.1-14.6-8.7l-27.1-7.3c-5.8-1.5-11.4-3-17 .3ZM602.3 280.6c-5.6 3.3-7.1 8.9-8.6 14.6l-7.3 27.2c-1.6 5.7-3 11.3.2 17 3.2 5.6 8.8 7.1 14.6 8.6l27.1 7.3c5.8 1.6 11.4 3 17-.2 5.7-3.2 7.2-8.8 8.7-14.6l7.3-27.1c1.5-5.8 3-11.4-.2-17-3.3-5.7-8.9-7.2-14.6-8.7l-27.2-7.3c-5.7-1.5-11.3-3-17 .2ZM583.2 352.1c-5.7 3.3-7.2 8.9-8.7 14.6l-7.3 27.2c-1.5 5.7-3 11.3.2 17 3.3 5.6 8.9 7 14.6 8.6l27.2 7.3c5.7 1.5 11.3 3 17-.2 5.6-3.3 7.1-8.9 8.6-14.6l7.3-27.2c1.6-5.7 3-11.3-.2-17-3.2-5.6-8.8-7-14.6-8.6l-27.1-7.3c-5.8-1.5-11.4-3-17 .2ZM564 423.6c-5.6 3.2-7.1 8.9-8.6 14.6l-7.3 27.1c-1.6 5.8-3 11.4.2 17 3.2 5.7 8.8 7.2 14.6 8.7l27.1 7.3c5.8 1.5 11.4 3 17-.2 5.6-3.3 7.2-8.9 8.7-14.6l7.3-27.2c1.5-5.7 3-11.3-.2-17-3.3-5.6-8.9-7.1-14.6-8.6l-27.2-7.3c-5.7-1.6-11.4-3-17 .2ZM544.9 495c-5.7 3.3-7.2 9-8.7 14.7l-7.3 27.1c-1.5 5.8-3 11.4.2 17 3.3 5.6 8.9 7.1 14.6 8.7l27.2 7.3c5.7 1.5 11.3 3 17-.3 5.6-3.2 7.1-8.8 8.6-14.6l7.3-27.1c1.6-5.8 3-11.4-.2-17s-8.9-7.1-14.6-8.7l-27.1-7.2c-5.8-1.6-11.4-3-17 .2ZM525.7 566.5c-5.6 3.3-7.1 9-8.7 14.7l-7.2 27.1c-1.6 5.7-3 11.4.2 17s8.8 7.1 14.6 8.7l27.1 7.2c5.8 1.6 11.4 3 17-.2s7.1-8.8 8.7-14.6l7.3-27.1c1.5-5.8 3-11.4-.2-17-3.3-5.6-9-7.1-14.6-8.7l-27.2-7.3c-5.7-1.5-11.4-3-17 .2ZM506.6 638c-5.7 3.3-7.2 8.9-8.7 14.6l-7.3 27.2c-1.5 5.7-3 11.3.2 17 3.3 5.6 8.9 7.1 14.6 8.6l27.2 7.3c5.7 1.5 11.3 3 17-.2 5.6-3.2 7-8.9 8.6-14.6l7.3-27.2c1.5-5.7 3-11.3-.2-17-3.2-5.6-8.9-7-14.6-8.6l-27.2-7.3c-5.7-1.5-11.3-3-17 .2ZM487.4 709.5c-5.6 3.3-7.1 8.9-8.7 14.6l-7.2 27.2c-1.6 5.7-3 11.3.2 17 3.2 5.6 8.8 7 14.6 8.6l27.1 7.3c5.8 1.5 11.4 3 17-.2 5.6-3.3 7.1-8.9 8.7-14.6l7.3-27.2c1.5-5.7 3-11.3-.3-17-3.2-5.6-8.8-7-14.6-8.6l-27.1-7.3c-5.8-1.5-11.4-3-17 .2ZM712.1 156.8c-5.6 3.3-7.1 8.9-8.7 14.6l-7.2 27.2c-1.6 5.7-3 11.3.2 17 3.2 5.6 8.8 7.1 14.6 8.6l27.1 7.3c5.8 1.6 11.4 3 17-.2s7.1-8.9 8.7-14.6l7.3-27.1c1.5-5.8 3-11.4-.3-17-3.2-5.7-8.8-7.2-14.6-8.7l-27.1-7.3c-5.8-1.5-11.4-3-17 .2ZM693 228.3c-5.7 3.3-7.2 8.9-8.7 14.6l-7.3 27.2c-1.5 5.7-3 11.3.2 17 3.3 5.6 8.9 7 14.6 8.6L719 303c5.7 1.5 11.3 3 17-.2 5.6-3.3 7-8.9 8.6-14.6L752 261c1.5-5.7 3-11.3-.2-17-3.3-5.6-8.9-7-14.6-8.6l-27.2-7.3c-5.7-1.5-11.3-3-17 .2ZM673.8 299.8c-5.6 3.2-7.1 8.8-8.7 14.6l-7.2 27.1c-1.6 5.8-3 11.4.2 17 3.2 5.7 8.8 7.2 14.6 8.7l27.1 7.3c5.8 1.5 11.4 3 17-.2 5.6-3.3 7.1-8.9 8.7-14.6l7.2-27.2c1.6-5.7 3-11.3-.2-17-3.2-5.6-8.8-7.1-14.6-8.6l-27.1-7.3c-5.8-1.6-11.4-3-17 .2ZM654.7 371.3c-5.7 3.2-7.2 8.8-8.7 14.6l-7.3 27.1c-1.5 5.8-3 11.4.2 17 3.3 5.6 8.9 7.1 14.6 8.7l27.2 7.2c5.7 1.6 11.3 3 17-.2 5.6-3.2 7-8.8 8.6-14.6l7.3-27.1c1.5-5.8 3-11.4-.2-17-3.3-5.6-8.9-7.1-14.6-8.7l-27.2-7.2c-5.7-1.6-11.3-3-17 .2ZM635.5 442.7c-5.6 3.3-7.1 9-8.7 14.6l-7.2 27.2c-1.6 5.7-3 11.4.2 17s8.8 7.1 14.6 8.7l27.1 7.2c5.8 1.6 11.4 3 17-.2s7.1-8.8 8.7-14.6l7.2-27.1c1.6-5.8 3-11.4-.2-17s-8.8-7.1-14.6-8.7l-27.1-7.3c-5.8-1.5-11.4-3-17 .2ZM616.3 514.2c-5.6 3.3-7 8.9-8.6 14.6l-7.3 27.2c-1.5 5.7-3 11.3.2 17 3.3 5.6 8.9 7 14.6 8.6l27.2 7.3c5.7 1.5 11.3 3 17-.2 5.6-3.2 7-8.9 8.6-14.6l7.3-27.2c1.5-5.7 3-11.3-.2-17-3.3-5.6-8.9-7-14.6-8.6l-27.2-7.3c-5.7-1.5-11.3-3-17 .2ZM597.2 585.7c-5.6 3.3-7.1 8.9-8.7 14.6l-7.3 27.2c-1.5 5.7-3 11.3.3 17 3.2 5.6 8.8 7 14.6 8.6l27.1 7.3c5.8 1.5 11.4 3 17-.2 5.6-3.3 7.1-8.9 8.7-14.6l7.2-27.2c1.6-5.7 3-11.3-.2-17-3.2-5.6-8.8-7-14.6-8.6l-27.1-7.3c-5.8-1.5-11.4-3-17 .2ZM578 657.2c-5.6 3.2-7 8.8-8.6 14.6l-7.3 27.1c-1.5 5.8-3 11.4.2 17 3.3 5.6 8.9 7.1 14.6 8.7l27.2 7.3c5.7 1.5 11.3 3 17-.2 5.6-3.3 7-8.9 8.6-14.6l7.3-27.2c1.5-5.7 3-11.4-.2-17-3.3-5.6-8.9-7.1-14.6-8.7L595 657c-5.7-1.6-11.3-3-17 .2ZM558.9 728.7c-5.6 3.2-7.1 8.8-8.7 14.6l-7.3 27.1c-1.5 5.8-3 11.4.3 17 3.2 5.6 8.8 7.1 14.6 8.7l27.1 7.2c5.7 1.6 11.4 3 17-.2s7.1-8.8 8.7-14.6l7.2-27.1c1.6-5.8 3-11.4-.2-17s-8.8-7.1-14.6-8.7l-27.1-7.2c-5.8-1.6-11.4-3-17 .2ZM783.6 176c-5.6 3.2-7.1 8.8-8.7 14.6l-7.3 27.1c-1.5 5.8-3 11.4.2 17 3.3 5.6 9 7.2 14.7 8.7l27.1 7.3c5.7 1.5 11.4 3 17-.2 5.6-3.3 7.1-8.9 8.7-14.6l7.2-27.2c1.6-5.7 3-11.4-.2-17s-8.8-7.1-14.6-8.6l-27.1-7.3c-5.8-1.6-11.4-3-17 .2ZM764.4 247.5c-5.6 3.2-7.1 8.8-8.6 14.6l-7.3 27.1c-1.5 5.8-3 11.4.2 17s8.9 7.1 14.6 8.7l27.2 7.2c5.7 1.6 11.3 3 17-.2 5.6-3.2 7-8.8 8.6-14.6l7.3-27.1c1.5-5.8 3-11.4-.2-17-3.3-5.6-8.9-7.1-14.6-8.7l-27.2-7.2c-5.7-1.6-11.3-3-17 .2ZM745.3 319c-5.6 3.2-7.1 8.8-8.7 14.5l-7.3 27.2c-1.5 5.7-3 11.4.2 17 3.3 5.6 9 7.1 14.6 8.6l27.2 7.3c5.7 1.6 11.4 3 17-.2s7.1-8.8 8.7-14.6l7.2-27.1c1.6-5.8 3-11.4-.2-17s-8.8-7.2-14.6-8.7l-27.1-7.3c-5.8-1.5-11.4-3-17 .2ZM726.1 390.4c-5.6 3.3-7.1 8.9-8.6 14.6l-7.3 27.2c-1.6 5.7-3 11.3.2 17 3.2 5.6 8.9 7 14.6 8.6l27.1 7.3c5.8 1.5 11.4 3 17-.2 5.7-3.3 7.2-8.9 8.7-14.6l7.3-27.2c1.5-5.7 3-11.3-.2-17-3.3-5.6-8.9-7-14.6-8.6l-27.2-7.3c-5.7-1.5-11.3-3-17 .2ZM707 461.9c-5.6 3.2-7.2 8.9-8.7 14.6l-7.3 27.2c-1.5 5.7-3 11.3.2 17 3.3 5.6 8.9 7 14.6 8.6l27.2 7.3c5.7 1.5 11.4 3 17-.2 5.6-3.3 7.1-8.9 8.6-14.6l7.3-27.2c1.6-5.7 3-11.3-.2-17-3.2-5.6-8.8-7.1-14.6-8.6l-27.1-7.3c-5.8-1.5-11.4-3-17 .2ZM687.8 533.4c-5.6 3.2-7.1 8.8-8.6 14.6l-7.3 27.1c-1.6 5.8-3 11.4.2 17s8.8 7.1 14.6 8.7l27.1 7.3c5.8 1.5 11.4 3 17-.2 5.7-3.3 7.2-9 8.7-14.7l7.3-27.1c1.5-5.7 3-11.4-.2-17-3.3-5.6-8.9-7.1-14.6-8.7l-27.2-7.2c-5.7-1.6-11.3-3-17 .2ZM668.7 604.9c-5.7 3.2-7.2 8.8-8.7 14.6l-7.3 27.1c-1.5 5.8-3 11.4.2 17 3.3 5.6 8.9 7.1 14.6 8.7l27.2 7.2c5.7 1.6 11.3 3 17-.2 5.6-3.2 7.1-8.8 8.6-14.6l7.3-27.1c1.6-5.8 3-11.4-.2-17s-8.9-7.1-14.6-8.7l-27.1-7.3c-5.8-1.5-11.4-3-17 .3ZM649.5 676.3c-5.6 3.3-7.1 8.9-8.6 14.6l-7.3 27.2c-1.6 5.7-3 11.3.2 17 3.2 5.6 8.8 7.1 14.6 8.6l27.1 7.3c5.8 1.6 11.4 3 17-.2s7.2-8.9 8.7-14.6l7.3-27.1c1.5-5.8 3-11.4-.2-17-3.3-5.7-8.9-7.2-14.6-8.7l-27.2-7.3c-5.7-1.5-11.4-3-17 .2ZM630.4 747.8c-5.7 3.3-7.2 8.9-8.7 14.6l-7.3 27.2c-1.5 5.7-3 11.3.2 17 3.3 5.6 8.9 7 14.6 8.6l27.2 7.3c5.7 1.5 11.3 3 17-.2 5.6-3.3 7.1-8.9 8.6-14.6l7.3-27.2c1.6-5.7 3-11.3-.2-17-3.2-5.6-8.9-7-14.6-8.6l-27.1-7.3c-5.8-1.5-11.4-3-17 .2Z"/></defs><path stroke="#FF3E3E" stroke-width="10" d="M139.1 843c-8.2 4.8-10.4 13-12 19.2l-.2.6-8.3 31-.2.5c-1.7 6.2-3.9 14.4.9 22.7 4.7 8.2 13 10.4 19.2 12l.5.2 31 8.3.6.2c6.2 1.6 14.4 3.9 22.6-.9 8.3-4.8 10.5-13 12.1-19.2l.2-.5 8.3-31 .1-.6c1.7-6.2 4-14.4-.8-22.7-4.8-8.2-13-10.4-19.2-12l-.6-.2-31-8.3-.5-.2c-6.2-1.6-14.5-3.8-22.7 1Z"/><path fill="#349D6B" fill-rule="evenodd" d="M121.9 900.7c2.2-8.2 4.3-16.2 12.3-20.8 8-4.7 16-2.5 24.2-.3l19.6 5.2c8.2 2.2 16.2 4.4 20.9 12.4 4.6 8 2.4 16 .2 24.2l-7.2 27.2c-2.2 8.2-4.4 16.3-12.4 21a23.2 23.2 0 0 1-17 2 5 5 0 0 0-3.6-4l-.9-.2a5 5 0 0 0-5.2 1.8l-1-.3a5 5 0 0 0-3.7-4.1l-1-.3a5 5 0 0 0-5.1 1.8l-6.3-1.7-2-.6a5 5 0 0 0-3.7-4l-.9-.3a5 5 0 0 0-4.6 1.1 21 21 0 0 1-9.6-8.6c-4.7-8-2.5-16-.3-24.3l7.3-27.2Z" clip-rule="evenodd"/><g filter="url(#a)"><path fill="#F2FFD8" d="M146.8 828c-6.5 3.8-8.2 10.2-10 16.7l-13.4 50.4c-1.8 6.5-3.5 13 .2 19.4 3.7 6.4 10.1 8.1 16.7 9.9l31 8.3c6.6 1.8 13 3.5 19.4-.2 6.5-3.7 8.2-10.2 10-16.7l13.4-50.4c1.8-6.5 3.5-13-.2-19.4-3.7-6.4-10.1-8.1-16.7-9.9l-31-8.3c-6.6-1.8-13-3.5-19.4.2Z"/></g><path fill="#B82942" fill-rule="evenodd" d="M122.7 897.7c-1.4 5.7-2.3 11.2 1 16.8 3.6 6.4 10 8.1 16.6 9.9l31 8.3c6.6 1.8 13 3.5 19.4-.2 5.6-3.2 7.7-8.5 9.2-14.1l-.8 3-5.5 20.9c-9.4 4.3-18.5 1.8-24 .3l-.8-.2-31-8.3-.9-.3c-5.6-1.4-14.7-3.8-20.6-12.2l5.6-20.9.8-3Z" clip-rule="evenodd"/><path fill="#FF3E3E" d="m172.6 854-.4-.2a5.5 5.5 0 0 1-3.5-2.6c-.8-1.4-1-2.9-.5-4.4a5.5 5.5 0 0 1 2.6-3.5c1.4-.7 2.8-1 4.4-.5l6 1.6c1.4.4 2.6 1.3 3.4 2.6.8 1.4 1 2.8.5 4.4l-10.5 39.4a5.5 5.5 0 0 1-2.7 3.5c-1.4.8-2.8 1-4.3.6a5.5 5.5 0 0 1-3.5-2.7c-.8-1.3-1-2.8-.6-4.3l9.1-34Z"/><circle cx="216.2" cy="846.4" r="22.5" fill="#B7B4FF" stroke="#F2FFD8" stroke-width="5" transform="rotate(15 216.2 846.4)"/><path fill="#514DAF" d="m210.4 842.4 4-2.3c.5-.3 1-.3 1.5-.2.5.1 1 .4 1.2.9.2.5.3 1 .2 1.4-.2.6-.5 1-1 1.2l-4 2.3 2.4 4c.2.5.3 1 .2 1.5-.2.5-.5.9-1 1.1-.4.3-.9.4-1.4.2-.5-.1-.9-.4-1.1-.9l-2.3-4-4 2.3c-.5.3-1 .4-1.5.2-.5-.1-1-.4-1.2-.9-.2-.4-.3-.9-.2-1.4.2-.5.5-.9 1-1.2l4-2.3-2.4-4c-.2-.5-.3-1-.2-1.4.2-.6.5-1 1-1.2.4-.3.9-.3 1.4-.2.5.1.8.4 1.1.9l2.3 4ZM225 844c-.8-.2-1.5-.1-2 .2a2.4 2.4 0 0 0-1 3.4c.4.6 1 1 1.7 1.2.7.2 1.4.2 2-.2a2.4 2.4 0 0 0 .9-3.4c-.3-.6-.9-1-1.6-1.2Zm-3.4 7.7c-1.2-.3-2.1-1-2.8-2.2a6 6 0 0 1 2.2-8.5c1.5-1 3.2-1.1 5-.7a6 6 0 0 1 3.9 3c.8 1.6 1 3.2.6 4.8a6.6 6.6 0 0 1-2.6 3.8l-6.7 4.7c-.4.3-.8.4-1.4.3-.5-.1-.9-.4-1.2-.8-.3-.4-.4-.9-.3-1.4 0-.5.3-1 .8-1.3l2.5-1.7Z"/><path stroke="#FFB800" stroke-width="10" d="M246.7 866.7c-8.3 4.7-10.5 13-12.1 19.2l-.2.5-8.3 31-.1.6c-1.7 6.1-4 14.4.8 22.6 4.8 8.3 13 10.5 19.2 12.1l.6.2 31 8.3.5.1c6.2 1.7 14.5 4 22.7-.9 8.2-4.7 10.4-13 12-19.1l.2-.6 8.3-31 .2-.5c1.7-6.2 3.9-14.5-.9-22.7-4.7-8.3-13-10.5-19.2-12.1l-.5-.2-31-8.3-.6-.1c-6.2-1.7-14.4-3.9-22.6.9Z"/><path fill="#349D6B" fill-rule="evenodd" d="M229.4 924.4c2.2-8.2 4.4-16.2 12.4-20.9 8-4.6 16-2.5 24.2-.3l19.6 5.3c8.2 2.1 16.2 4.3 20.8 12.3 4.6 8 2.5 16 .3 24.3l-7.3 27.2c-2.2 8.2-4.3 16.2-12.4 20.8a23.2 23.2 0 0 1-17 2.1 5 5 0 0 0-3.5-3.9l-1-.2a5 5 0 0 0-5.2 1.7l-1-.3a5 5 0 0 0-3.7-4l-.9-.3a5 5 0 0 0-5.2 1.7l-6.3-1.7-2-.5a5 5 0 0 0-3.6-4.1l-1-.3a5 5 0 0 0-4.6 1.2 21 21 0 0 1-9.6-8.7c-4.6-8-2.5-16-.3-24.2l7.3-27.2Z" clip-rule="evenodd"/><g filter="url(#b)"><path fill="#F2FFD8" d="M254.3 851.7c-6.4 3.7-8.1 10.1-9.9 16.7L231 918.7c-1.7 6.6-3.5 13 .3 19.4 3.7 6.5 10 8.2 16.7 10l31 8.3c6.5 1.7 13 3.4 19.4-.3 6.4-3.7 8.1-10.1 9.9-16.7l13.5-50.3c1.8-6.6 3.5-13-.2-19.4-3.8-6.5-10.2-8.2-16.7-10l-31-8.3c-6.6-1.7-13-3.4-19.5.3Z"/></g><path fill="#DC5D01" fill-rule="evenodd" d="M230.2 921.3c-1.4 5.7-2.3 11.3 1 16.8 3.7 6.5 10 8.2 16.7 10l31 8.3c6.5 1.7 13 3.4 19.4-.3 5.6-3.2 7.6-8.4 9.2-14l-.8 3-5.6 20.8c-9.3 4.3-18.4 1.8-24 .3l-.8-.2-31-8.3-.8-.2c-5.6-1.5-14.7-4-20.7-12.3l5.6-20.8.8-3Z" clip-rule="evenodd"/><path fill="#FFB800" d="m292.7 894.7.4.4c2.6 3.2 3.2 7.2 2 11.9a15.3 15.3 0 0 1-8.4 9.8 20 20 0 0 1-14.1 1c-7.6-2-12.5-6.5-14.7-13.4a6.6 6.6 0 0 1-.2-4.2 5.5 5.5 0 0 1 2.7-3.5c1.4-.7 2.8-1 4.3-.5a5 5 0 0 1 3.4 3c1 4 3.4 6.5 7.4 7.6 2 .5 3.9.6 5.5.1a4.2 4.2 0 0 0 3-3c.5-1.6.3-3-.6-4.3a13.4 13.4 0 0 0-6.4-3.3 5.2 5.2 0 0 1-3.3-2.4 5.2 5.2 0 0 1-.4-4 5.2 5.2 0 0 1 2.3-3.4c1.2-.7 2.6-.8 4.1-.4 2.8.7 5 .8 6.6.3 1.2-.6 2-1.5 2.3-2.7.3-1.3 0-2.4-1-3.4-.9-1-2.5-1.9-4.8-2.5-2.3-.6-4.1-.3-5.5.8a32.2 32.2 0 0 1-3.4 2.4c-1.4.8-2.8 1-4.3.6a5.2 5.2 0 0 1-3.4-2.4 5.2 5.2 0 0 1-.4-4.1 8.8 8.8 0 0 1 2.4-4 19.7 19.7 0 0 1 29.1 3.6c2.6 3.5 3.3 7.4 2.3 11.8-1 3.7-3.3 6.5-6.9 8.2Z"/><circle cx="323.7" cy="870" r="22.5" fill="#B7B4FF" stroke="#F2FFD8" stroke-width="5" transform="rotate(15 323.7 870)"/><path fill="#514DAF" d="m318 866 4-2.3c.4-.2.9-.3 1.4-.2.5.2.9.5 1.1 1 .3.4.4.9.2 1.4-.1.5-.4.9-.9 1.1l-4 2.3 2.3 4c.3.5.4 1 .2 1.5-.1.5-.4.9-.8 1.2a1.9 1.9 0 0 1-2.7-.7l-2.3-4-4 2.3c-.5.2-1 .3-1.5.2-.5-.2-.8-.5-1.1-1-.3-.4-.3-.9-.2-1.4.1-.5.4-.9.9-1.1l4-2.4-2.3-4c-.3-.4-.3-1-.2-1.4.1-.5.4-1 .9-1.2.5-.2 1-.3 1.4-.2.5.2 1 .5 1.2 1l2.3 4Zm16.1 4c.1-.5 0-1-.2-1.4-.3-.5-.8-.9-1.6-1-.7-.3-1.4-.2-2 .3-.5.4-.9 1-1 1.7-.2.5-.5.9-1 1.1-.4.3-1 .4-1.4.2-.5-.1-1-.4-1.2-.9-.2-.4-.3-.9-.2-1.4a6.6 6.6 0 0 1 3-4c1.4-1 3-1.2 4.8-.7 1.8.4 3 1.4 4 2.8.8 1.4 1 2.9.6 4.4-.5 1.6-1.9 3-4.3 4.1l-3.8 1.8 4.5 1.2c.5.2 1 .5 1.2 1 .2.4.3.9.2 1.4-.2.5-.5.9-1 1.1-.4.3-.9.3-1.4.2l-8.9-2.4a2 2 0 0 1-1.3-.9c-.2-.5-.3-1-.2-1.5.2-.5.5-.8 1-1.1l7.6-3.6c1.5-.8 2.4-1.6 2.6-2.4Z"/><path stroke="#FF7A00" stroke-width="10" d="M153.2 983.5c-8.2 4.7-10.4 13-12 19.2l-.2.5-8.3 31-.2.6c-1.6 6.2-3.8 14.4 1 22.6 4.7 8.3 13 10.5 19.1 12.1l.5.2 31 8.3.6.1c6.2 1.7 14.4 4 22.7-.8 8.2-4.8 10.4-13 12-19.2l.2-.6 8.3-31 .2-.5c1.6-6.2 3.9-14.5-.9-22.7-4.8-8.3-13-10.5-19.2-12.1l-.5-.2-31-8.3-.6-.1c-6.2-1.7-14.4-3.9-22.7.9Z"/><path fill="#349D6B" fill-rule="evenodd" d="M136 1041.2c2.2-8.2 4.3-16.2 12.4-20.9 8-4.6 16-2.5 24.2-.3l19.6 5.3c8.2 2.2 16.2 4.3 20.8 12.3 4.6 8 2.5 16 .3 24.3L206 1089c-2.2 8.2-4.4 16.2-12.4 20.9a23.2 23.2 0 0 1-17 2 5 5 0 0 0-3.6-3.9l-.9-.2a5 5 0 0 0-5.2 1.7l-1-.3a5 5 0 0 0-3.7-4l-.9-.3a5 5 0 0 0-5.2 1.7l-6.3-1.7-2-.5a5 5 0 0 0-3.6-4.1l-1-.3a5 5 0 0 0-4.6 1.2 21 21 0 0 1-9.6-8.7c-4.6-8-2.5-16-.3-24.2l7.3-27.2Z" clip-rule="evenodd"/><g filter="url(#c)"><path fill="#F2FFD8" d="M161 968.5c-6.5 3.7-8.2 10.1-10 16.7l-13.5 50.3c-1.7 6.6-3.5 13 .3 19.4 3.7 6.5 10 8.2 16.6 10l31 8.3c6.6 1.7 13 3.4 19.5-.3 6.4-3.7 8.1-10.1 9.9-16.7l13.5-50.3c1.7-6.6 3.5-13-.3-19.4-3.7-6.5-10-8.2-16.6-10l-31-8.3c-6.6-1.7-13-3.4-19.5.3Z"/></g><path fill="#CA4A03" fill-rule="evenodd" d="M136.8 1038.1c-1.4 5.7-2.3 11.3 1 16.8 3.7 6.5 10 8.2 16.6 10l31 8.3c6.6 1.7 13 3.4 19.5-.3 5.6-3.2 7.6-8.4 9.2-14l-.8 3-5.6 20.8c-9.3 4.3-18.4 1.8-24 .3l-.8-.2-31-8.3-.8-.2c-5.7-1.5-14.8-4-20.7-12.3l5.6-20.8.8-3Z" clip-rule="evenodd"/><path fill="#FF5C00" d="M195 1002.2c.3-1.5 0-3-.8-4.5-.8-1.4-2.3-2.4-4.6-3a6.7 6.7 0 0 0-5.9 1 9 9 0 0 0-3.4 5.1 5.5 5.5 0 0 1-2.7 3.5c-1.4.8-2.8 1-4.3.6a5.5 5.5 0 0 1-3.5-2.7c-.8-1.4-1-2.8-.6-4.3 1.4-5.3 4.4-9.4 8.8-12.2 4.4-2.8 9.3-3.5 14.6-2 5.3 1.4 9.2 4.2 11.7 8.4 2.6 4.2 3.3 8.7 2 13.4-1.4 4.6-5.7 8.7-13 12.3l-11.2 5.3 13.5 3.7c1.5.4 2.7 1.3 3.5 2.6.8 1.4 1 2.8.5 4.4a5.5 5.5 0 0 1-2.6 3.4c-1.4.8-2.8 1-4.4.6l-26.7-7.1a6.2 6.2 0 0 1-3.9-2.8c-.8-1.4-1-2.8-.6-4.4a5.5 5.5 0 0 1 2.7-3.4l23.1-10.7c4.5-2.5 7-5 7.8-7.2Z"/><circle cx="230.3" cy="986.8" r="22.5" fill="#B7B4FF" stroke="#F2FFD8" stroke-width="5" transform="rotate(15 230.3 986.8)"/><path fill="#514DAF" d="m224.6 982.9 4-2.4c.5-.2 1-.3 1.4-.1.6 0 1 .4 1.2.8.3.5.3 1 .2 1.5-.1.5-.4.9-.9 1.1l-4 2.4 2.3 4c.3.4.3 1 .2 1.4-.1.5-.4 1-.9 1.2-.5.3-1 .3-1.5.2-.5-.2-.8-.5-1.1-1l-2.3-4-4 2.4c-.5.2-1 .3-1.5.2-.5-.2-.9-.5-1.2-1-.2-.4-.3-.8-.1-1.4 0-.5.4-.9.8-1.1l4-2.3-2.3-4c-.2-.5-.3-1-.1-1.5 0-.5.4-.9.8-1.2.5-.2 1-.3 1.5-.1.5 0 .9.4 1.1.8l2.4 4Zm11.8 11c.8.3 1.4.2 2-.1a2.4 2.4 0 0 0 1-3.4c-.4-.6-1-1-1.7-1.2-.7-.2-1.4-.2-2 .2-.6.3-1 .8-1.2 1.5-.2.6 0 1.3.3 1.9.3.6.9 1 1.6 1.2Zm3.4-7.6c1.2.3 2 1 2.8 2.2a6 6 0 0 1 .7 4.7 6.2 6.2 0 0 1-3 3.8 6.1 6.1 0 0 1-4.9.7c-1.7-.5-3-1.5-4-3-.8-1.6-1-3.2-.6-4.8a6.6 6.6 0 0 1 2.7-3.8l6.6-4.7c.5-.3 1-.4 1.4-.3a1.9 1.9 0 0 1 1.6 2.2c-.1.5-.4 1-.8 1.2l-2.5 1.8Z"/><path stroke="#2C5BD4" stroke-width="10" d="M461.7 914c-8.2 4.7-10.4 13-12 19.1l-.2.6-8.3 31-.2.5c-1.6 6.2-3.8 14.5 1 22.7 4.7 8.3 13 10.5 19.1 12.1l.6.1 31 8.4.5.1c6.2 1.7 14.4 3.9 22.7-.9 8.2-4.7 10.4-13 12-19.2l.2-.5 8.3-31 .2-.6c1.6-6.2 3.9-14.4-.9-22.6-4.8-8.3-13-10.5-19.2-12.1l-.5-.2-31-8.3-.6-.1c-6.2-1.7-14.4-4-22.7.8Z"/><path fill="#349D6B" fill-rule="evenodd" d="M448.4 957.2c2.2-8.2 4.3-16.3 12.4-20.9 8-4.6 16-2.5 24.2-.3l19.6 5.2c8.2 2.2 16.2 4.4 20.8 12.4 4.6 8 2.5 16 .3 24.3l-7.3 27.2c-2.2 8.2-4.4 16.2-12.4 20.8a20.5 20.5 0 0 1-10.9 2.8 5 5 0 0 0-3.6-4l-1-.2a5 5 0 0 0-5.7 2.5l-3-.8-10-2.7a5 5 0 0 0-3.8-5l-.9-.3a5 5 0 0 0-5.7 2.6l-.5-.1a5 5 0 0 0-3.7-5.2l-1-.2a5 5 0 0 0-5.3 2 21 21 0 0 1-9.5-8.7c-4.6-8-2.5-16-.3-24.2l7.3-27.2Z" clip-rule="evenodd"/><g filter="url(#d)"><path fill="#F2FFD8" d="M466.8 908.6c-6.4 3.7-8.1 10.1-9.9 16.7L446 966c-1.7 6.6-3.5 13 .3 19.4 3.7 6.4 10 8.2 16.6 10l31 8.2c6.6 1.8 13 3.5 19.5-.2 6.4-3.7 8.1-10.1 9.9-16.7l10.9-40.7c1.8-6.5 3.5-13-.2-19.4-3.8-6.4-10.2-8.1-16.7-9.9l-31-8.3c-6.6-1.8-13-3.5-19.5.2Z"/></g><path fill="#1E3998" fill-rule="evenodd" d="M445.3 968.6c-1.4 5.7-2.3 11.2 1 16.8 3.7 6.4 10 8.2 16.6 10l31 8.2c6.6 1.8 13 3.5 19.5-.2 5.6-3.2 7.6-8.5 9.2-14l-.8 3-5.6 20.8c-9.3 4.3-18.4 1.8-24 .3l-.8-.2-31-8.3-.8-.2c-5.6-1.5-14.7-4-20.7-12.3l5.6-20.8.8-3Z" clip-rule="evenodd"/><circle cx="536.2" cy="926.9" r="22.5" fill="#B7B4FF" stroke="#F2FFD8" stroke-width="5" transform="rotate(15 536.2 927)"/><path fill="#514DAF" d="m530.4 923 4-2.4c.5-.2 1-.3 1.4-.1.6.1 1 .4 1.2.8.3.5.3 1 .2 1.5-.1.5-.4.9-.9 1.2l-4 2.3 2.3 4c.3.5.3 1 .2 1.4-.1.5-.4 1-.9 1.2-.5.3-1 .3-1.5.2-.4-.2-.8-.5-1-.9l-2.4-4-4 2.3c-.5.3-1 .3-1.5.2-.5-.2-.9-.5-1.1-1-.3-.4-.4-.8-.2-1.4.1-.5.4-.8.8-1.1l4-2.3-2.3-4c-.2-.5-.3-1-.1-1.5.1-.5.4-.9.8-1.2.5-.2 1-.3 1.5-.1.5.1.9.4 1.1.8l2.4 4Zm17.3 6.6c1.4 1.4 1.8 3 1.4 4.5a5 5 0 0 1-2.9 3.4 7 7 0 0 1-4.9.3 7.1 7.1 0 0 1-4-2.7 5 5 0 0 1-.8-4.4c.4-1.5 1.5-2.6 3.4-3.2a4.5 4.5 0 0 1-.4-3.4 5 5 0 0 1 2-2.9c1.2-.7 2.6-.9 4.4-.4 1.8.5 3 1.3 3.5 2.5a5 5 0 0 1 .4 3.6c-.3 1.1-1 2-2 2.7Zm-5.3 4.4a3 3 0 0 0 2 0c.4-.2.8-.6.9-1 .1-.5 0-1-.3-1.4-.4-.5-.9-.8-1.6-1-.8-.2-1.5-.2-2 0-.6.2-1 .5-1 1-.2.5 0 1 .3 1.4.4.5 1 .8 1.7 1Zm1.7-6.5c.5.1 1 0 1.3-.1.3-.2.5-.5.7-1 0-.3 0-.7-.2-1-.2-.4-.5-.6-1-.8l-1.3.1c-.3.2-.6.5-.7 1 0 .3 0 .7.2 1 .2.4.5.6 1 .8Z"/><path fill="#2C5BD4" d="m499.3 936.3-16-4.3a5.5 5.5 0 0 1-3.4-2.6c-.8-1.4-1-2.9-.6-4.4a5.5 5.5 0 0 1 2.7-3.5c1.3-.7 2.8-1 4.3-.5l24.8 6.6c1 .2 1.8.7 2.6 1.4 1.2 1 1.8 2.4 1.9 4 0 1.6-.5 3-1.5 4.1l-31 34a5.5 5.5 0 0 1-4 1.8c-1.5 0-2.9-.4-4-1.5a5.5 5.5 0 0 1-1.9-4c0-1.5.5-3 1.5-4l24.6-27.1Z"/><path stroke="#00939C" stroke-width="10" d="M354.2 890.3c-8.2 4.8-10.4 13-12.1 19.2l-.1.5-8.4 31-.1.6c-1.7 6.2-3.9 14.4.9 22.7 4.7 8.2 13 10.4 19.2 12l.5.2 31 8.3.6.2c6.2 1.6 14.4 3.8 22.6-1 8.3-4.7 10.5-13 12.1-19.1l.2-.5 8.3-31 .1-.6c1.7-6.2 4-14.4-.8-22.7-4.8-8.2-13-10.4-19.2-12l-.6-.2-31-8.3-.5-.2c-6.2-1.6-14.5-3.8-22.7 1Z"/><path fill="#349D6B" fill-rule="evenodd" d="M337 948c2.2-8.2 4.3-16.2 12.3-20.8 8-4.7 16-2.5 24.2-.4l19.6 5.3c8.2 2.2 16.2 4.3 20.9 12.4 4.6 8 2.4 16 .2 24.2L407 996c-2.2 8.2-4.3 16.2-12.3 20.9a23.2 23.2 0 0 1-17 2 5 5 0 0 0-3.6-3.8l-.9-.3a5 5 0 0 0-5.2 1.7l-1-.3a5 5 0 0 0-3.7-4l-1-.3a5 5 0 0 0-5.1 1.7l-6.3-1.6-2-.6a5 5 0 0 0-3.7-4l-.9-.3a5 5 0 0 0-4.6 1.1 21 21 0 0 1-9.7-8.6c-4.6-8-2.4-16-.2-24.3L337 948Z" clip-rule="evenodd"/><g filter="url(#e)"><path fill="#F2FFD8" d="M361.9 875.3c-6.5 3.7-8.2 10.1-10 16.7l-13.4 50.4c-1.8 6.5-3.5 13 .2 19.4 3.7 6.4 10.1 8.1 16.7 9.9l31 8.3c6.6 1.8 13 3.5 19.4-.2 6.5-3.8 8.2-10.2 10-16.7l13.4-50.4c1.8-6.5 3.5-13-.2-19.4-3.7-6.4-10.1-8.1-16.7-9.9l-31-8.3c-6.6-1.8-13-3.5-19.4.2Z"/></g><path fill="#015C8F" fill-rule="evenodd" d="M337.8 945c-1.4 5.6-2.3 11.2 1 16.8 3.6 6.4 10 8.1 16.6 9.9l31 8.3c6.6 1.8 13 3.5 19.4-.2 5.6-3.3 7.6-8.5 9.2-14.1l-.8 3-5.5 20.9c-9.4 4.2-18.5 1.8-24 .3l-.9-.2-31-8.4-.8-.2c-5.6-1.5-14.7-3.9-20.6-12.3L337 948l.8-3Z" clip-rule="evenodd"/><circle cx="431.2" cy="893.6" r="22.5" fill="#B7B4FF" stroke="#F2FFD8" stroke-width="5" transform="rotate(15 431.2 893.6)"/><path fill="#514DAF" d="m428.3 890.4 4-2.3c.5-.2 1-.3 1.5-.2.5.2.9.5 1.1 1 .3.4.4.9.2 1.4-.1.5-.4.9-.9 1.1l-4 2.3 2.3 4c.3.5.4 1 .2 1.5-.1.5-.4.9-.9 1.2a1.9 1.9 0 0 1-2.6-.7l-2.3-4-4 2.3c-.5.2-1 .3-1.5.2-.5-.2-.9-.5-1.1-1-.3-.4-.3-.9-.2-1.4.1-.5.4-.9.9-1.1l4-2.4-2.3-4c-.3-.4-.3-1-.2-1.4.1-.5.4-1 .9-1.2.4-.2 1-.3 1.4-.2.5.2 1 .5 1.2 1l2.3 4Zm10.1.5h-.1c-.5-.1-.9-.4-1.2-.9-.2-.4-.3-1-.1-1.4 0-.5.4-1 .8-1.2.5-.2 1-.3 1.5-.2l2 .6c.5 0 .9.4 1.1.8.3.5.4 1 .2 1.5l-3.5 13.1c-.1.6-.4 1-.9 1.2-.5.3-1 .3-1.4.2-.6-.1-1-.4-1.2-.9-.3-.4-.3-1-.2-1.4l3-11.4Z"/><path fill="#00939C" d="M390.6 908.4c5.8 2 9.6 4.7 11.5 8.2 1.9 3.5 2.2 7.6 1 12.3a19.3 19.3 0 0 1-8.4 10.9c-4 2.6-9 3.2-14.6 1.7a23 23 0 0 1-14.8-11.2c-.8-1.3-1-2.8-.6-4.3a5.5 5.5 0 0 1 2.7-3.5c1.3-.8 2.8-1 4.3-.6 1.5.5 2.7 1.3 3.5 2.7 2.7 3.2 5.3 5.2 7.9 5.9a8 8 0 0 0 5.5-.4c1.8-.8 2.9-2 3.3-3.9a5 5 0 0 0-1-4.7c-1-1.4-3.3-2.6-6.8-3.5l-9.7-2.6a6 6 0 0 1-3.6-2.5c-.8-1.2-1-2.6-.6-4 .2-1 .5-1.7.9-2.4l6-15c.7-1.1 1.5-2 2.5-2.6 1.3-.8 2.8-1 4.3-.5l21.6 5.8c1.6.4 2.7 1.3 3.5 2.6.8 1.4 1 2.8.6 4.4a5.5 5.5 0 0 1-2.7 3.4c-1.3.8-2.8 1-4.3.6l-17-4.5-2.4 5.7 7.4 2Z"/><path stroke="#0092E3" stroke-width="10" d="M368.3 1030.8c-8.2 4.7-10.4 13-12 19.1l-.2.6-8.3 31-.2.5c-1.6 6.2-3.8 14.5 1 22.7 4.7 8.3 13 10.5 19.1 12.1l.5.2 31 8.3.6.1c6.2 1.7 14.4 3.9 22.7-.9 8.2-4.7 10.4-13 12-19.2l.2-.5 8.3-31 .2-.6c1.6-6.2 3.8-14.4-1-22.6-4.7-8.3-13-10.5-19.1-12.1l-.5-.2-31-8.3-.6-.1c-6.2-1.7-14.4-4-22.7.8Z"/><path fill="#349D6B" fill-rule="evenodd" d="M351 1088.5c2.3-8.2 4.4-16.3 12.5-20.9 8-4.6 16-2.5 24.2-.3l19.6 5.2c8.2 2.2 16.2 4.4 20.8 12.4 4.6 8 2.5 16 .3 24.3l-7.3 27.2c-2.2 8.2-4.4 16.2-12.4 20.8a23.2 23.2 0 0 1-17 2.1 5 5 0 0 0-3.6-3.9l-.9-.2a5 5 0 0 0-5.2 1.7l-1-.3a5 5 0 0 0-3.7-4l-.9-.3a5 5 0 0 0-5.2 1.7l-6.3-1.7-2-.5a5 5 0 0 0-3.6-4.1l-1-.3a5 5 0 0 0-4.6 1.2 21 21 0 0 1-9.6-8.7c-4.6-8-2.5-16-.3-24.2l7.3-27.2Z" clip-rule="evenodd"/><g filter="url(#f)"><path fill="#F2FFD8" d="M376 1015.8c-6.4 3.7-8.1 10-9.9 16.7l-13.5 50.3c-1.8 6.6-3.5 13 .2 19.4 3.8 6.4 10.2 8.2 16.7 10l31 8.2c6.6 1.8 13 3.5 19.5-.2 6.4-3.7 8.1-10.1 9.9-16.7l13.5-50.3c1.7-6.6 3.4-13-.3-19.5-3.7-6.4-10-8.1-16.7-9.9l-31-8.3c-6.5-1.7-13-3.5-19.4.3Z"/></g><path fill="#0162A8" fill-rule="evenodd" d="M352 1085.4c-1.5 5.7-2.4 11.2.8 16.8 3.8 6.4 10.2 8.2 16.7 10l31 8.2c6.6 1.8 13 3.5 19.5-.2 5.5-3.2 7.6-8.5 9.2-14l-.8 3-5.6 20.8c-9.3 4.3-18.4 1.8-24 .3l-.8-.2-31-8.3-.8-.2c-5.7-1.5-14.8-4-20.7-12.3l5.6-20.8.8-3Z" clip-rule="evenodd"/><path fill="#0092E3" d="M397.2 1070.9c2.2.6 4.3.4 6-.7 1.9-1 3-2.5 3.6-4.5a7 7 0 0 0-.8-5.6c-1-1.8-2.7-3-5-3.6a7.7 7.7 0 0 0-6 .7 7.3 7.3 0 0 0-2.7 10.1c1 1.8 2.7 3 5 3.6Zm10.1-23c3.5.9 6.3 3 8.4 6.6 2.7 4.7 3.4 9.5 2.1 14.2a18.4 18.4 0 0 1-8.8 11.2 18.3 18.3 0 0 1-14.7 2 18.5 18.5 0 0 1-11.9-9.1 18.5 18.5 0 0 1-2-14.1c1.3-4.7 4-8.5 8.1-11.4l19.9-14c1.2-1 2.6-1.3 4.2-1a5.6 5.6 0 0 1 4.6 6.6c-.3 1.5-1 2.8-2.3 3.7l-7.6 5.3Z"/><circle cx="445.4" cy="1034.1" r="22.5" fill="#B7B4FF" stroke="#F2FFD8" stroke-width="5" transform="rotate(15 445.4 1034)"/><path fill="#514DAF" d="m439.8 1030.2 4-2.3c.5-.3 1-.4 1.5-.2.5.1.9.4 1.1.9.3.4.4.9.2 1.4-.1.5-.4.9-.9 1.2l-4 2.3 2.3 4c.3.5.4 1 .2 1.5-.1.5-.4.8-.9 1.1-.4.3-1 .3-1.4.2-.5-.1-.9-.4-1.2-.9l-2.3-4-4 2.3c-.5.3-1 .3-1.5.2-.5-.1-.9-.4-1.1-.9a1.9 1.9 0 0 1 .7-2.6l4-2.3-2.3-4c-.3-.5-.3-1-.2-1.5.1-.5.4-.9.9-1.1.4-.3 1-.4 1.4-.2.5.1 1 .4 1.2.9l2.3 4Zm14.2 3.7c2 .7 3.2 1.6 3.9 2.8.6 1.1.7 2.5.3 4a6.4 6.4 0 0 1-2.8 3.7c-1.4.8-3 1-4.9.5a7.6 7.6 0 0 1-5-3.7c-.2-.4-.3-1-.1-1.4.1-.5.4-1 .9-1.2.4-.3 1-.3 1.4-.2.5.2 1 .5 1.2 1 .9 1 1.8 1.6 2.6 1.9.7.1 1.3.1 1.9-.1.5-.3.9-.7 1-1.4.2-.5.1-1-.3-1.5-.3-.5-1.1-.9-2.2-1.2l-3.3-.9a2 2 0 0 1-1.2-.8c-.2-.4-.3-.8-.2-1.4l.3-.7 2-5c.2-.4.5-.7.8-.9.5-.2 1-.3 1.5-.2l7.2 2c.5.1.9.4 1.2.8.2.5.3 1 .1 1.5 0 .5-.4.9-.8 1.2-.5.2-1 .3-1.5.1l-5.6-1.5-.8 2 2.4.6Z"/><path stroke="#009C64" stroke-width="10" d="M260.8 1007.1c-8.3 4.8-10.5 13-12.1 19.2l-.2.5-8.3 31-.1.6c-1.7 6.2-3.9 14.4.9 22.7 4.7 8.2 13 10.4 19.2 12l.5.2 31 8.3.6.2c6.1 1.6 14.4 3.9 22.6-1 8.3-4.7 10.5-13 12.1-19.1l.2-.5 8.3-31 .1-.6c1.7-6.2 3.9-14.4-.9-22.7-4.7-8.2-13-10.4-19.1-12l-.6-.2-31-8.3-.6-.2c-6.1-1.6-14.4-3.9-22.6 1Z"/><path fill="#349D6B" fill-rule="evenodd" d="M243.5 1064.8c2.2-8.2 4.4-16.2 12.4-20.8 8-4.7 16-2.5 24.2-.3l19.6 5.2c8.2 2.2 16.2 4.3 20.8 12.4 4.7 8 2.5 16 .3 24.2l-7.3 27.2c-2.2 8.2-4.3 16.3-12.3 20.9a23.2 23.2 0 0 1-17 2 5 5 0 0 0-3.6-3.8l-1-.3a5 5 0 0 0-5.1 1.7l-1-.3a5 5 0 0 0-3.7-4l-1-.3a5 5 0 0 0-5.2 1.7l-6.3-1.6-2-.6a5 5 0 0 0-3.6-4l-.9-.3a5 5 0 0 0-4.7 1.1 21 21 0 0 1-9.6-8.6c-4.6-8-2.4-16-.2-24.3l7.2-27.2Z" clip-rule="evenodd"/><g filter="url(#g)"><path fill="#F2FFD8" d="M268.5 992.1c-6.5 3.7-8.2 10.1-10 16.7l-13.4 50.4c-1.8 6.5-3.5 13 .2 19.4 3.7 6.4 10.1 8.1 16.7 9.9l31 8.3c6.6 1.8 13 3.5 19.4-.2 6.5-3.8 8.2-10.2 10-16.7l13.4-50.4c1.8-6.5 3.5-13-.2-19.4-3.7-6.4-10.1-8.1-16.7-9.9l-31-8.3c-6.6-1.8-13-3.5-19.4.2Z"/></g><path fill="#016775" fill-rule="evenodd" d="M244.4 1061.8c-1.5 5.6-2.3 11.2.9 16.8 3.7 6.4 10.1 8.1 16.7 9.9l31 8.3c6.6 1.8 13 3.5 19.4-.2 5.6-3.3 7.6-8.5 9.2-14.1l-.8 3-5.6 20.8c-9.3 4.4-18.4 1.9-24 .4l-.8-.3-31-8.3-.8-.2c-5.6-1.5-14.7-3.9-20.6-12.3l5.5-20.8.9-3Z" clip-rule="evenodd"/><circle cx="337.8" cy="1010.5" r="22.5" fill="#B7B4FF" stroke="#F2FFD8" stroke-width="5" transform="rotate(15 337.8 1010.5)"/><path fill="#514DAF" d="m332.3 1006.5 4-2.3c.4-.2 1-.3 1.4-.2.5.2 1 .5 1.2 1 .3.4.3.9.2 1.4-.2.5-.5.9-1 1.1l-4 2.3 2.4 4c.3.5.3 1 .2 1.5-.2.5-.4.9-.9 1.2-.5.2-1 .3-1.5.2-.5-.2-.8-.5-1.1-1l-2.3-4-4 2.4c-.5.2-1 .3-1.5.1-.5 0-.9-.4-1.2-.8-.2-.5-.3-1-.2-1.5.2-.5.5-.9 1-1.1l4-2.4-2.4-4c-.2-.4-.3-1-.2-1.4.2-.5.5-1 1-1.2.4-.3.9-.3 1.4-.2.5.2.9.5 1.1 1l2.4 4Zm15.4 2-5.3-1.5c-.5-.1-.9-.4-1.2-.9-.2-.4-.3-.9-.1-1.4 0-.5.4-.9.8-1.2.5-.2 1-.3 1.5-.1l8.3 2.2c.3 0 .6.2.8.4.4.4.6.8.6 1.4 0 .5-.1 1-.5 1.3l-10.3 11.3c-.3.4-.8.6-1.3.7-.5 0-1-.2-1.4-.5-.4-.4-.6-.8-.6-1.3 0-.6.2-1 .5-1.4l8.2-9Z"/><path fill="#009C64" d="M286.1 1005.3c-1.3-.4-2.4.3-3.6.9l-5.2 3c-1.1.7-2.2 1.3-2.6 2.7-.3 1.3.3 2.4 1 3.5l23.8 41.4c.6 1 1.3 2.2 2.6 2.5 1.4.4 2.5-.2 3.6-.9l5.2-3c1.2-.7 2.3-1.3 2.6-2.6.4-1.4-.3-2.5-.9-3.6l-23.9-41.3c-.6-1.1-1.2-2.2-2.6-2.6Z"/><path fill="#009C64" d="M321.1 1024.3c.4-1.3-.2-2.4-.9-3.5l-3-5.3c-.7-1.1-1.3-2.2-2.6-2.6-1.4-.3-2.5.3-3.6 1l-41.3 23.8c-1.2.6-2.2 1.3-2.6 2.6-.4 1.4.3 2.5.9 3.6l3 5.3c.7 1 1.3 2.1 2.7 2.5 1.3.4 2.4-.3 3.5-.9l41.4-23.9c1-.6 2.2-1.2 2.5-2.6Z"/><path stroke="#FF5CB4" stroke-width="10" d="M569.3 937.6c-8.3 4.7-10.5 13-12.1 19.2l-.2.5-8.3 31-.1.6c-1.7 6.2-3.9 14.4.9 22.6 4.7 8.3 13 10.5 19.2 12.1l.5.2 31 8.3.6.2c6.2 1.6 14.4 3.8 22.6-1 8.3-4.7 10.5-13 12.1-19.1l.2-.6 8.3-31 .1-.5c1.7-6.2 4-14.5-.9-22.7-4.7-8.2-13-10.4-19.1-12l-.6-.2-31-8.3-.5-.2c-6.2-1.7-14.5-3.9-22.7.9Z"/><path fill="#349D6B" fill-rule="evenodd" d="M552 995.3c2.2-8.2 4.4-16.2 12.4-20.9 8-4.6 16-2.5 24.2-.3l19.6 5.3c8.2 2.2 16.2 4.3 20.8 12.3 4.7 8 2.5 16.1.3 24.3l-7.3 27.2c-2.2 8.2-4.3 16.2-12.3 20.9a23.2 23.2 0 0 1-17 2 5 5 0 0 0-3.6-3.8l-1-.3a5 5 0 0 0-5.1 1.7l-1-.3a5 5 0 0 0-3.7-4l-1-.3a5 5 0 0 0-5.1 1.7l-6.3-1.7-2-.5a5 5 0 0 0-3.7-4l-.9-.3a5 5 0 0 0-4.6 1.1 21 21 0 0 1-9.7-8.7c-4.6-8-2.4-16-.2-24.2l7.2-27.2Z" clip-rule="evenodd"/><g filter="url(#h)"><path fill="#F2FFD8" d="M577 922.6c-6.5 3.7-8.2 10.1-10 16.7l-13.4 50.3c-1.8 6.6-3.5 13 .2 19.4 3.7 6.5 10.1 8.2 16.7 10l31 8.3c6.6 1.7 13 3.5 19.4-.3 6.5-3.7 8.2-10 10-16.6l13.4-50.4c1.8-6.6 3.5-13-.2-19.4-3.7-6.4-10.1-8.2-16.7-10l-31-8.2c-6.6-1.8-13-3.5-19.4.2Z"/></g><path fill="#9A359C" fill-rule="evenodd" d="M552.9 992.3c-1.5 5.6-2.3 11.2.9 16.8 3.7 6.4 10.1 8.1 16.7 9.9l31 8.3c6.6 1.7 13 3.5 19.4-.3 5.6-3.2 7.6-8.4 9.2-14l-.8 3-5.6 20.8c-9.3 4.3-18.4 1.9-24 .4l-.8-.3-31-8.3-.8-.2c-5.6-1.5-14.7-3.9-20.6-12.3l5.5-20.8.9-3Z" clip-rule="evenodd"/><path fill="#FF5CB4" d="M605.9 948.9a7.7 7.7 0 0 0-6.1.7 7.3 7.3 0 0 0-2.7 10.1c1 1.8 2.7 3 5 3.6 2.2.6 4.2.4 6-.7 1.8-1 3-2.5 3.5-4.5a7 7 0 0 0-.8-5.6c-1-1.8-2.7-3-4.9-3.6Zm-10 23c-3.6-.9-6.4-3.1-8.4-6.7A18 18 0 0 1 594 940c4.6-2.8 9.6-3.5 14.9-2 5.3 1.3 9.2 4.4 11.7 9 2.6 4.8 3.3 9.5 2 14.2-1.2 4.7-3.9 8.5-8 11.3l-19.8 14.2a5.3 5.3 0 0 1-4.3.9c-1.5-.3-2.8-1-3.7-2.4a5.6 5.6 0 0 1-1-4.2c.4-1.6 1.1-2.8 2.4-3.7l7.6-5.3Z" opacity=".3"/><circle cx="646.3" cy="940.9" r="22.5" fill="#514DAF" stroke="#F2FFD8" stroke-width="5" transform="rotate(15 646.3 941)"/><path stroke="#fff" stroke-linecap="round" stroke-linejoin="round" stroke-width="5" d="m640.7 938.9 3.5 6.1 9.2-5.3"/><path stroke="#802CD4" stroke-width="10" d="M475.9 1054.4c-8.3 4.8-10.5 13-12.1 19.2l-.2.5-8.3 31-.1.6c-1.7 6.2-3.9 14.4.9 22.6 4.7 8.3 13 10.5 19.1 12.2h.6l31 8.4.6.1c6.1 1.7 14.4 4 22.6-.8 8.3-4.8 10.5-13 12.1-19.2l.2-.6 8.3-31 .1-.5c1.7-6.2 3.9-14.5-.9-22.7-4.7-8.2-13-10.4-19.2-12l-.5-.2-31-8.3-.6-.2c-6.1-1.7-14.4-3.9-22.6.9Z"/><path fill="#349D6B" fill-rule="evenodd" d="M458.6 1112.1c2.2-8.2 4.4-16.2 12.4-20.9 8-4.6 16-2.5 24.2-.3l19.6 5.3c8.2 2.2 16.2 4.3 20.8 12.3 4.7 8 2.5 16.1.3 24.3l-7.3 27.2c-2.2 8.2-4.3 16.2-12.3 20.9a23.2 23.2 0 0 1-17 2 5 5 0 0 0-3.6-3.9l-1-.2a5 5 0 0 0-5.1 1.7l-1.1-.3a5 5 0 0 0-3.7-4l-.9-.3a5 5 0 0 0-5.2 1.7l-6.3-1.7-2-.5a5 5 0 0 0-3.6-4l-.9-.3a5 5 0 0 0-4.7 1.1 21 21 0 0 1-9.6-8.6c-4.6-8-2.5-16.1-.3-24.3l7.3-27.2Z" clip-rule="evenodd"/><g filter="url(#i)"><path fill="#F2FFD8" d="M483.6 1039.4c-6.5 3.7-8.2 10.1-10 16.7l-13.4 50.3c-1.8 6.6-3.5 13 .2 19.4 3.7 6.5 10.1 8.2 16.7 10l31 8.3c6.6 1.7 13 3.5 19.4-.3 6.4-3.7 8.2-10 10-16.6l13.4-50.4c1.8-6.6 3.5-13-.2-19.4-3.7-6.4-10.1-8.2-16.7-10l-31-8.2c-6.6-1.8-13-3.5-19.4.2Z"/></g><path fill="#371A8C" fill-rule="evenodd" d="M459.5 1109c-1.5 5.7-2.3 11.3.9 16.8 3.7 6.5 10.1 8.2 16.7 10l31 8.3c6.6 1.7 13 3.5 19.4-.3 5.6-3.2 7.6-8.4 9.2-14l-.8 3-5.6 20.8c-9.3 4.3-18.4 1.9-24 .4l-.8-.3-31-8.3-.8-.2c-5.6-1.5-14.7-3.9-20.6-12.3l5.5-20.8.9-3Z" clip-rule="evenodd"/><path fill="#802CD4" d="M521 1081c4 4.3 5.4 8.8 4.1 13.5-1.2 4.7-4.1 8.1-8.6 10.1s-9.4 2.4-14.7 1a21.3 21.3 0 0 1-12.2-8.2c-3-4-3.8-8.4-2.5-13 1.3-4.8 4.7-8 10.4-9.7a13.5 13.5 0 0 1-1.3-10.2c.9-3.5 3-6.4 6.3-8.7 3.3-2.2 7.6-2.6 13-1.2 5.3 1.5 8.8 4 10.5 7.6a15 15 0 0 1 1.2 10.6c-.9 3.5-3 6.2-6.2 8.2Zm-16 13.2c2.3.6 4.2.6 5.7 0a4.6 4.6 0 0 0 3-3.2c.3-1.5 0-2.8-1-4.1a8.5 8.5 0 0 0-4.9-3 9.7 9.7 0 0 0-6 0c-1.6.7-2.6 1.7-3 3.1-.3 1.5 0 2.9 1.1 4.2a10 10 0 0 0 5.2 3Zm5.1-19.6c1.5.4 2.7.3 3.8-.3 1-.6 1.7-1.5 2-2.7.3-1.2.2-2.3-.4-3.3-.6-1.1-1.7-1.8-3.1-2.2a4.8 4.8 0 0 0-3.8.3c-1 .6-1.7 1.5-2 2.7-.4 1.2-.2 2.3.4 3.3.6 1 1.6 1.8 3.1 2.2Z"/><circle cx="552.9" cy="1057.7" r="22.5" fill="#B7B4FF" stroke="#F2FFD8" stroke-width="5" transform="rotate(15 553 1057.7)"/><path fill="#514DAF" d="m546.3 1053.5 4-2.3c.5-.2 1-.3 1.5-.2.5.2.9.5 1.2 1 .2.4.3.9.2 1.4-.2.5-.5.9-1 1.1l-4 2.3 2.4 4c.2.5.3 1 .2 1.5-.2.5-.5 1-1 1.2-.4.2-.9.3-1.4.2-.5-.2-.9-.5-1.1-1l-2.4-4-4 2.4c-.4.2-1 .3-1.4.2-.5-.2-1-.5-1.2-1-.3-.4-.3-.9-.2-1.4.2-.5.5-.9 1-1.1l4-2.3-2.4-4c-.3-.5-.3-1-.2-1.5.2-.5.4-1 .9-1.2.5-.2 1-.3 1.4-.2.6.2 1 .5 1.2 1l2.3 4Zm18.9-1.2c.5.1.9.4 1.1.9.3.4.4 1 .2 1.4l-2 7.7.8.2c.5.1 1 .4 1.2.9.2.4.3 1 .2 1.4-.2.5-.5 1-1 1.2-.4.2-.8.3-1.4.2l-.8-.3-.5 2c-.2.5-.5 1-1 1.2-.4.2-.9.3-1.4.2-.5-.2-.9-.5-1.1-1-.3-.4-.4-.9-.2-1.4l.5-2-6-1.5c-.4-.2-.8-.5-1-1-.3-.4-.4-.9-.3-1.4l.5-1.7c.1-.5.4-.9.8-1.2l8.5-5.9c.5-.3 1-.4 1.5-.3l1.4.4Zm-4.4 9 1.1-4.2-4.6 3.2 3.5 1Z"/><mask id="j" width="719" height="399" x="7" y="506" maskUnits="userSpaceOnUse" style="mask-type:alpha"><path fill="#23C15F" fill-rule="evenodd" d="M39.7 566c5.5-20.6 10.9-40.6 31-52.2 20-11.6 40.1-6.2 60.6-.7l535.5 143.4c20.5 5.5 40.6 11 52.2 31 11.6 20.1 6.2 40.2.7 60.7l-26 97c-5.5 20.4-10.8 40.5-31 52-14.7 8.6-29.5 8-44.4 4.8a5 5 0 0 0-3.7-4.8l-.5-.1a5 5 0 0 0-5.7 2.6L602 898l-1.4-.4a5 5 0 0 0-3.7-5.1l-1-.2a5 5 0 0 0-5.7 2.6l-17.6-4.8a5 5 0 0 0-3.7-5l-1-.3a5 5 0 0 0-5.7 2.6l-13-3.5a5 5 0 0 0-3.8-5.2l-.9-.2a5 5 0 0 0-5.7 2.6l-.5-.1a5 5 0 0 0-3.7-5.2l-.9-.2a5 5 0 0 0-5.8 2.6l-7.6-2a5 5 0 0 0-3.7-5.2l-1-.3a5 5 0 0 0-5.7 2.6l-17.6-4.7a5 5 0 0 0-3.7-5.1l-1-.3a5 5 0 0 0-5.7 2.6l-13-3.5a5 5 0 0 0-3.8-5.1l-.9-.2a5 5 0 0 0-5.7 2.6l-.5-.2a5 5 0 0 0-3.7-5.1l-.9-.2a5 5 0 0 0-5.8 2.6l-7.7-2.1a5 5 0 0 0-3.6-5.1l-1-.3a5 5 0 0 0-5.7 2.6l-17.6-4.7a5 5 0 0 0-3.7-5.1l-1-.3a5 5 0 0 0-5.7 2.6l-13-3.5a5 5 0 0 0-3.8-5.1l-.9-.3a5 5 0 0 0-5.8 2.6h-.4a5 5 0 0 0-3.7-5.2l-1-.3a5 5 0 0 0-5.7 2.6l-7.7-2a5 5 0 0 0-3.7-5.2l-.9-.2a5 5 0 0 0-5.7 2.6l-17.6-4.7a5 5 0 0 0-3.7-5.1l-1-.3a5 5 0 0 0-5.7 2.6l-13.1-3.5a5 5 0 0 0-3.7-5.1l-.9-.3a5 5 0 0 0-5.8 2.6l-.4-.1a5 5 0 0 0-3.7-5.1l-1-.3a5 5 0 0 0-5.7 2.6l-7.7-2a5 5 0 0 0-3.7-5.2l-.9-.2a5 5 0 0 0-5.7 2.6l-17.6-4.7a5 5 0 0 0-3.7-5.2l-1-.2a5 5 0 0 0-5.7 2.6l-13.1-3.5a5 5 0 0 0-3.7-5.2l-1-.2a5 5 0 0 0-5.7 2.6l-.4-.1a5 5 0 0 0-3.7-5.2l-1-.2a5 5 0 0 0-5.7 2.6l-7.7-2a5 5 0 0 0-3.7-5.2l-.9-.2a5 5 0 0 0-5.8 2.6l-17.6-4.8a5 5 0 0 0-3.7-5l-.9-.3a5 5 0 0 0-5.7 2.6l-13.1-3.5a5 5 0 0 0-3.7-5.2l-1-.2a5 5 0 0 0-5.7 2.6l-.4-.1a5 5 0 0 0-3.7-5.2l-1-.2a5 5 0 0 0-5.7 2.6l-7.7-2a5 5 0 0 0-3.7-5.2l-.9-.3a5 5 0 0 0-5.8 2.6L90.8 761a5 5 0 0 0-3.7-5.1l-.9-.2a5 5 0 0 0-5.7 2.5l-13.1-3.5a5 5 0 0 0-3.7-5l-1-.3a5 5 0 0 0-5.7 2.5l-.5-.1a5 5 0 0 0-3.7-5l-.4-.2a5 5 0 0 0-5.5 2 57.1 57.1 0 0 1-32.4-25c-11.6-20.1-6.3-40.2-.8-60.7l26-97Z" clip-rule="evenodd"/></mask><g mask="url(#j)"><path fill="#349D6B" d="M70.7 513.8c-20.1 11.6-25.5 31.6-31 52.2l-26 97c-5.5 20.4-10.8 40.5.8 60.6 11.6 20 31.6 25.4 52.1 31L602.1 898c20.5 5.5 40.6 10.9 60.7-.7 20-11.6 25.4-31.7 31-52.2l26-97c5.4-20.4 10.8-40.5-.8-60.6-11.6-20-31.7-25.5-52.2-31L131.3 513.1c-20.5-5.5-40.5-11-60.6.7Z"/></g><path stroke="#B133FF" stroke-width="15" d="M190 27.4c-16.3 9.4-20.6 25.6-24.1 38.7l-.3 1L12 640.1l-.2 1c-3.5 13-7.9 29.3 1.5 45.5 9.3 16.2 25.6 20.5 38.7 24l.9.3 582.9 156.2.9.2c13.1 3.6 29.3 8 45.5-1.5 16.3-9.3 20.6-25.5 24.1-38.7l.2-.9 153.6-573.2.3-.9c3.5-13.1 7.9-29.3-1.5-45.6-9.4-16.2-25.6-20.5-38.7-24l-1-.3L236.5 26.2l-.9-.3c-13.1-3.5-29.3-7.9-45.6 1.5Z"/><path fill="#6624D2" fill-rule="evenodd" d="M684.3 873.4c-18.4 9.7-36.6 4.8-49 1.4l-1.4-.4-583-156.2-1.4-.3c-12.4-3.3-30.7-8.2-41.7-25.8.7-9.7 3.3-19.4 6-29.2l26-97v-.5l-20.5 76.8c-3.7 13.8-7.3 27.2.5 40.7 7.8 13.6 21.3 17.2 35 20.9l583 156.1c13.7 3.7 27.2 7.3 40.7-.5 13.4-7.7 17-21 20.7-34.7l-5.5 20.4c-2.6 9.8-5.2 19.5-9.4 28.3Z" clip-rule="evenodd"/><g filter="url(#k)"><path fill="none" d="M193.7 33.9c-13.5 7.8-17.1 21.3-20.8 35L19.3 642.3c-3.7 13.8-7.3 27.2.5 40.7 7.8 13.6 21.3 17.2 35 20.9l583 156.1c13.7 3.7 27.2 7.3 40.7-.5 13.5-7.7 17.1-21.2 20.8-35l153.6-573.2c3.7-13.8 7.3-27.3-.5-40.8-7.8-13.5-21.3-17.1-35-20.8l-583-156.2c-13.7-3.7-27.2-7.3-40.7.5Z" shape-rendering="crispEdges"/></g><g filter="url(#l)"><path fill="#F2FFD8" d="M201.5 5c-13.5 7.7-17.2 21.2-20.8 35L19.3 642.2c-3.7 13.8-7.3 27.2.5 40.7 7.8 13.6 21.3 17.2 35 20.9l583 156.1c13.7 3.7 27.2 7.3 40.7-.5 13.5-7.7 17.1-21.2 20.8-35l161.4-602.2c3.7-13.8 7.3-27.3-.5-40.8-7.8-13.5-21.3-17-35-20.8L242.1 4.4C228.4.7 215-2.9 201.5 5Z"/></g><mask id="m" width="872" height="863" x="0" y="17" maskUnits="userSpaceOnUse" style="mask-type:alpha"><path fill="#000" fill-rule="evenodd" d="M236.2 21.4c-12.9-3.4-31.8-8.5-50.8 2.4-19 11-24 30-27.4 42.8l-.4 1.4L4.8 638.3l-.4 1.4c-3.4 12.8-8.6 31.8 2.4 50.7 11 19 30 24 42.7 27.5l1.5.3 582.9 156.2 1.4.4c12.8 3.5 31.7 8.6 50.7-2.4 19-11 24-29.9 27.4-42.7a360.6 360.6 0 0 1 .4-1.4l152.8-570.4.4-1.4c3.4-12.8 8.6-31.7-2.4-50.7-11-19-29.9-24-42.7-27.4l-1.4-.4-583-156.2-1.3-.4Zm-43.3 15.4c-13.5 7.8-17.1 21.3-20.8 35l-2 7.4c3.7-13.7 7.4-27 20.7-34.7 13.6-7.8 27-4.2 40.8-.5l582.9 156.2c13.8 3.7 27.3 7.3 35 20.8 7.9 13.5 4.2 27 .6 40.8l2-7.7c3.7-13.8 7.3-27.3-.5-40.8-7.8-13.5-21.2-17.1-35-20.8l-583-156.2c-13.7-3.7-27.2-7.3-40.7.5Z" clip-rule="evenodd"/></mask><g mask="url(#m)"><g filter="url(#n)"><path fill="none" d="M684.3 873.4c-18.4 9.7-36.6 4.8-49 1.4l-1.4-.4-583-156.2-1.4-.3c-12.4-3.3-30.7-8.2-41.7-25.8.7-9.7 3.3-19.4 6-29.2l5.4-20.4c-3.7 13.6-7.2 27 .6 40.4 7.8 13.6 21.3 17.2 35 20.9l583 156.1c13.7 3.7 27.2 7.3 40.7-.5 13.4-7.7 17-21 20.7-34.7l-5.5 20.4c-2.6 9.8-5.2 19.5-9.4 28.3ZM39.7 566l.1-.4v.4Z" clip-rule="evenodd" shape-rendering="crispEdges"/></g><path stroke="#349D6B" stroke-dasharray="1 17 1 14 1 11 1 10 1 9 1 10 1 11 1 12 1 14 1 16 1 18 1 20 1 20 1 21 1 20 1 20 1 18 1 17" stroke-linecap="round" stroke-linejoin="round" stroke-width="10" d="M26.9 714.4 652.8 882"/></g><mask id="o" width="805" height="805" x="40" y="20" maskUnits="userSpaceOnUse" style="mask-type:alpha"><use xlink:href="#reuse-0"/><use xlink:href="#reuse-1"/></mask><g mask="url(#o)"><path fill="#EA98EE" d="M208.5 17.1 848 188.4 676.6 828 37.2 656.5z"/><path fill="#00C7E2" d="m424 74.9 210.5 56.4L578 341.8l-210.6-56.4L423.9 75ZM361.6 288l-56.4 210.6L94.6 442l56.5-210.5L361.6 288ZM791.5 403.2 735 613.7l-210.5-56.4 56.4-210.6 210.6 56.5ZM309 503.7l210.6 56.4L463 770.7l-210.5-56.4L309 503.7Z"/></g><g filter="url(#p)"><path fill="#fff" d="M818.1 160.8 254 9.7S434.3 63 534.8 90C635.2 117 818 160.8 818 160.8Z"/></g><mask id="q" width="805" height="805" x="40" y="20" maskUnits="userSpaceOnUse" style="mask-type:alpha"><use xlink:href="#reuse-0"/><use xlink:href="#reuse-1"/></mask><g mask="url(#q)"><path fill="#FFCA41" d="m361.6 288-56.4 210.6L94.6 442l56.5-210.5L361.6 288Z"/><path fill="#FFCA41" d="M752.2 545.9 734 613.5 94.6 442l18.1-67.6L752.2 546Z"/><path fill="#FFCA41" d="M347.6 54.4 176.3 693.8l-67.6-18L280 36.2l67.6 18.1Z"/><path fill="#00CD44" d="m408.8 683.7-18.1 67.6-67.6-18.1 18.1-67.6 67.6 18Z"/><path fill="#FFF8EC" d="M193.6 410c-4 2.3-5 6.3-6.2 10.4l-5.2 19.4c-1 4-2.1 8 .2 12.1 2.3 4 6.3 5.1 10.4 6.2l19.4 5.2c4.1 1 8.1 2.2 12.1-.2 4-2.3 5.1-6.3 6.2-10.4l5.2-19.4c1.1-4 2.2-8-.1-12.1-2.3-4-6.4-5.1-10.5-6.2l-19.3-5.2c-4.2-1.1-8.2-2.2-12.2.1Z"/><path fill="#00CD44" d="m661.6 598.2-18.2 67.6-67.6-18.1L594 580l67.7 18Z"/><path fill="#00E34B" d="m471.4 164.2-18.1 67.6-67.6-18.1 18-67.6 67.7 18Z"/><path fill="#00CD44" d="m471.4 164.2-18.1 67.6-67.6-18.1 18-67.6 67.7 18ZM251.8 411.8l-18 67.6-67.7-18.1 18.1-67.6 67.6 18.1Z"/><path fill="#FF6745" d="m466.3 469.3-18.1 67.6-67.7-18.1 18.2-67.7 67.6 18.2ZM642.4 669.7l-18.1 67.6-67.6-18.1 18-67.6 67.7 18ZM771.3 474.4l-18 67.6-67.7-18.1 18.1-67.6 67.6 18Z"/></g><path fill="#E8FFA7" d="M193.6 410c-4 2.3-5 6.3-6.2 10.4l-5.2 19.4c-1 4-2.1 8 .2 12.1 2.3 4 6.3 5.1 10.4 6.2l19.4 5.2c4.1 1 8.1 2.2 12.1-.2 4-2.3 5.1-6.3 6.2-10.4l5.2-19.4c1.1-4 2.2-8-.1-12.1-2.3-4-6.4-5.1-10.5-6.2l-19.3-5.2c-4.2-1.1-8.2-2.2-12.2.1Z"/><path fill="#FFF4FA" d="m233.9 49.9-.3-.1c-1-.3-1.8-.9-2.3-1.8-.6-.9-.7-1.9-.4-2.9.3-1 .8-1.8 1.8-2.3.9-.5 1.8-.7 2.8-.4l4 1c1 .4 1.8 1 2.3 1.9.5.9.7 1.8.4 2.8l-7 26.4c-.3 1-1 1.8-1.8 2.3-1 .5-1.9.6-3 .4-1-.3-1.7-.9-2.2-1.8-.6-1-.7-1.9-.4-3l6-22.5Z"/><path fill="#E56000" d="M313 79.5c2.7 2.9 3.7 5.9 2.8 9a9.9 9.9 0 0 1-5.8 6.7c-3 1.4-6.2 1.6-9.7.7-3.5-1-6.3-2.8-8.2-5.5a9.9 9.9 0 0 1-1.6-8.7c.8-3.1 3.1-5.3 6.9-6.4a9 9 0 0 1-.9-6.8 10 10 0 0 1 4.2-5.8c2.2-1.5 5.1-1.8 8.7-.8 3.5 1 5.9 2.6 7 5a10 10 0 0 1 .8 7.1 9 9 0 0 1-4.1 5.5Zm-10.5 8.8c1.5.4 2.7.4 3.7 0a3 3 0 0 0 2-2.2 3 3 0 0 0-.7-2.7 5.7 5.7 0 0 0-3.2-2 6.5 6.5 0 0 0-4 0c-1 .5-1.7 1.1-2 2.1-.3 1 0 1.9.7 2.8.8.9 2 1.5 3.5 2Zm3.3-13.1c1 .3 1.8.2 2.5-.2s1.2-1 1.4-1.8c.2-.8 0-1.5-.3-2.2-.4-.7-1.1-1.2-2-1.5-1-.2-1.9-.2-2.6.2-.7.4-1.1 1-1.4 1.8-.2.8 0 1.6.3 2.3.4.7 1.1 1.1 2.1 1.4Z"/><path fill="#146D5D" d="m437.5 190.2.2.3c1.8 2.1 2.2 4.8 1.3 7.9-.9 3-2.7 5.2-5.5 6.5-3 1.4-6 1.6-9.4.7a13 13 0 0 1-9.8-8.9c-.4-.9-.4-1.8-.1-2.8.2-1 .8-1.8 1.7-2.3 1-.5 2-.7 3-.4 1 .3 1.7 1 2.2 2a6.5 6.5 0 0 0 5 5c1.3.4 2.5.5 3.6.1 1-.3 1.7-1 2-2 .3-1 .2-2-.4-2.8a9 9 0 0 0-4.3-2.2c-1-.3-1.7-.8-2.2-1.6-.5-.8-.5-1.7-.3-2.7.3-1 .8-1.8 1.6-2.3.8-.4 1.7-.5 2.7-.2 1.9.4 3.3.5 4.4.2.8-.4 1.3-1 1.5-1.8.2-.9 0-1.6-.6-2.3a6.4 6.4 0 0 0-3.2-1.6c-1.5-.4-2.8-.3-3.7.5l-2.3 1.6c-.9.5-1.8.6-2.8.3-1-.2-1.8-.8-2.3-1.5-.4-.8-.5-1.7-.2-2.8.2-1 .8-1.9 1.5-2.6a13.1 13.1 0 0 1 19.5 2.4c1.7 2.3 2.2 5 1.5 7.9a8.1 8.1 0 0 1-4.6 5.4Z"/><path fill="#FFF4FA" d="M588.7 766.2c2.7 2.9 3.6 6 2.8 9a9.9 9.9 0 0 1-5.8 6.8c-3 1.3-6.3 1.5-9.8.6-3.5-1-6.2-2.8-8.1-5.4a9.9 9.9 0 0 1-1.7-8.8c.9-3 3.2-5.2 7-6.4a9 9 0 0 1-1-6.8 10 10 0 0 1 4.3-5.8c2.2-1.4 5-1.7 8.6-.8 3.6 1 6 2.7 7 5a10 10 0 0 1 .9 7.2 9 9 0 0 1-4.2 5.4Zm-10.6 8.8c1.5.4 2.8.4 3.8 0a3 3 0 0 0 1.9-2.1 3 3 0 0 0-.6-2.8 5.7 5.7 0 0 0-3.3-1.9 6.5 6.5 0 0 0-4 0c-1 .4-1.7 1-2 2-.2 1 0 2 .8 2.8.8 1 1.9 1.6 3.4 2Zm3.3-13c1 .2 1.9.1 2.6-.3.7-.4 1.1-1 1.3-1.8.2-.7.1-1.5-.3-2.2-.4-.7-1-1.2-2-1.4-1-.3-1.9-.2-2.5.2-.7.4-1.2 1-1.4 1.8-.2.8-.1 1.5.3 2.2.4.7 1 1.2 2 1.4ZM667.1 166l-10.6-2.9c-1-.3-1.8-.9-2.3-1.8-.5-.9-.7-1.8-.4-2.9.3-1 .9-1.8 1.8-2.3.9-.5 1.9-.6 2.9-.4l16.5 4.5c.7.1 1.2.4 1.8.9.7.7 1.1 1.6 1.2 2.7 0 1-.3 2-1 2.7l-20.6 22.6c-.7.8-1.6 1.2-2.7 1.3-1 0-2-.3-2.7-1a3.7 3.7 0 0 1-1.3-2.7c0-1 .3-2 1-2.7l16.4-18Z"/><circle cx="647.3" cy="149.2" r="4" fill="#F2FFD8" transform="rotate(15 647.3 149.2)"/><circle cx="713.6" cy="473.4" r="4" fill="#F2FFD8" transform="rotate(15 713.6 473.4)"/><circle cx="623" cy="525.7" r="4" fill="#F2FFD8" transform="rotate(15 623 525.7)"/><circle cx="532.4" cy="578.1" r="4" fill="#F2FFD8" transform="rotate(15 532.4 578)"/><circle cx="460.9" cy="558.9" r="4" fill="#F2FFD8" transform="rotate(15 460.9 559)"/><circle cx="317.9" cy="520.6" r="4" fill="#F2FFD8" transform="rotate(15 318 520.6)"/><circle cx="413.7" cy="163.2" r="4" fill="#F2FFD8" transform="rotate(15 413.7 163.2)"/><circle cx="218.4" cy="34.3" r="4" fill="#F2FFD8" transform="rotate(15 218.4 34.3)"/><circle cx="289.9" cy="53.4" r="4" fill="#F2FFD8" transform="rotate(15 289.9 53.4)"/><circle cx="408.6" cy="468.3" r="4" fill="#F2FFD8" transform="rotate(15 408.6 468.3)"/><circle cx="265.6" cy="430" r="4" fill="#F2FFD8" transform="rotate(15 265.6 430)"/><circle cx="232.4" cy="267.9" r="4" fill="#F2FFD8" transform="rotate(15 232.4 267.9)"/><circle cx="213.3" cy="339.3" r="4" fill="#F2FFD8" transform="rotate(15 213.3 339.3)"/><circle cx="141.8" cy="320.2" r="4" fill="#F2FFD8" transform="rotate(15 141.8 320.2)"/><circle cx="122.6" cy="391.7" r="4" fill="#F2FFD8" transform="rotate(15 122.6 391.7)"/><circle cx="303.9" cy="287" r="4" fill="#F2FFD8" transform="rotate(15 304 287)"/><circle cx="584.7" cy="668.7" r="4" fill="#F2FFD8" transform="rotate(15 584.7 668.7)"/><circle cx="298.8" cy="592.1" r="4" fill="#F2FFD8" transform="rotate(15 298.8 592)"/><circle cx="422.6" cy="701.9" r="4" fill="#F2FFD8" transform="rotate(15 422.6 701.9)"/><circle cx="370.3" cy="611.2" r="4" fill="#F2FFD8" transform="rotate(15 370.3 611.2)"/><path fill="#FFF4FA" d="M534.1 670.3c.3-1 0-2-.5-3-.5-.9-1.5-1.6-3-2a4.5 4.5 0 0 0-4 .7 6 6 0 0 0-2.3 3.4c-.3 1-.8 1.8-1.8 2.3-.9.6-1.8.7-2.8.4-1-.3-1.8-.9-2.4-1.8-.5-.9-.6-1.8-.3-2.9 1-3.5 2.9-6.2 5.8-8 3-2 6.2-2.4 9.7-1.4 3.6 1 6.2 2.8 7.9 5.6a11 11 0 0 1 1.3 9c-1 3-3.8 5.7-8.6 8.1l-7.6 3.6 9 2.4c1 .3 1.8.9 2.4 1.8.5.9.6 1.9.3 2.9-.2 1-.8 1.8-1.7 2.3-1 .5-1.9.6-3 .4l-17.7-4.8c-1.2-.3-2.1-1-2.6-1.9-.6-.9-.7-1.8-.4-2.8.2-1 .8-1.8 1.7-2.4l15.5-7c3-1.8 4.7-3.4 5.1-4.9ZM511.6 736.8a5.2 5.2 0 0 0-4.1.5c-1.2.7-2 1.7-2.3 3-.4 1.3-.2 2.6.5 3.8.7 1.2 1.8 2 3.3 2.4 1.5.4 2.8.2 4-.5 1.2-.7 2-1.7 2.4-3 .3-1.3.1-2.5-.6-3.7a5 5 0 0 0-3.2-2.5Zm-6.8 15.4c-2.3-.6-4.2-2-5.5-4.4a12 12 0 0 1 4.3-17c3.1-1.8 6.4-2.3 10-1.3 3.5 1 6 3 7.8 6.1 1.7 3.1 2.2 6.2 1.3 9.4-.8 3.1-2.6 5.6-5.3 7.6L504 762c-.8.6-1.8.8-2.8.6-1-.2-1.8-.7-2.5-1.6-.6-.8-.8-1.8-.6-2.8.2-1 .7-1.9 1.6-2.5l5-3.5Z"/><path fill="#146D5D" d="m627.7 624.2.2.3c1.7 2.1 2.1 4.8 1.3 7.9-1 3-2.8 5.2-5.5 6.5-3 1.4-6.1 1.6-9.5.7a13 13 0 0 1-9.8-8.9c-.3-.8-.3-1.8 0-2.8.2-1 .8-1.8 1.7-2.3 1-.5 1.9-.7 2.9-.4 1 .3 1.8 1 2.2 2a6.5 6.5 0 0 0 5 5c1.3.4 2.5.5 3.6.1 1.1-.3 1.8-1 2-2 .3-1 .2-2-.3-2.8a9 9 0 0 0-4.3-2.2c-1-.3-1.8-.8-2.3-1.6-.4-.8-.5-1.7-.2-2.7.2-1 .8-1.8 1.6-2.3.8-.4 1.7-.5 2.7-.2 1.8.4 3.3.5 4.3.2.8-.4 1.3-1 1.6-1.8.2-.9 0-1.6-.6-2.3a6.4 6.4 0 0 0-3.2-1.6c-1.6-.4-2.8-.3-3.8.5-.9.7-1.6 1.3-2.2 1.6-1 .5-1.9.6-2.9.3-1-.2-1.7-.8-2.2-1.5-.5-.8-.5-1.7-.3-2.8.3-1 .8-1.9 1.6-2.6a13.1 13.1 0 0 1 19.4 2.4c1.7 2.3 2.2 5 1.6 7.9a8.1 8.1 0 0 1-4.6 5.4Z"/><path fill="#FFF4FA" d="M687.7 651.4c1.5.4 2.8.3 4-.4 1.2-.7 2-1.7 2.4-3 .3-1.3.1-2.6-.6-3.8a5 5 0 0 0-3.3-2.4 5.2 5.2 0 0 0-4 .5c-1.2.7-2 1.7-2.3 3-.4 1.3-.2 2.5.5 3.7.7 1.2 1.8 2 3.3 2.4Zm6.7-15.3a9 9 0 0 1 5.6 4.4c1.8 3.2 2.3 6.3 1.4 9.5-.8 3.1-2.8 5.6-5.9 7.5-3 1.8-6.3 2.2-9.8 1.3-3.5-1-6.2-3-7.9-6a12.4 12.4 0 0 1-1.3-9.5c.8-3.1 2.6-5.7 5.4-7.6l13.2-9.4c.8-.6 1.8-.8 2.8-.6 1 .2 1.9.7 2.5 1.5.6 1 .8 1.9.6 3-.2 1-.7 1.8-1.5 2.4l-5.1 3.5ZM673.6 708.2c3.8 1.3 6.4 3.2 7.6 5.5 1.3 2.3 1.5 5 .6 8.2-1 3-2.8 5.5-5.5 7.2-2.8 1.8-6 2.2-9.8 1.2a15.3 15.3 0 0 1-9.9-7.5c-.5-.9-.6-1.8-.3-2.9.2-1 .8-1.8 1.7-2.3 1-.5 2-.6 3-.4 1 .3 1.7 1 2.3 1.8a11 11 0 0 0 5.2 4c1.4.3 2.6.2 3.7-.3a3.8 3.8 0 0 0 2.2-2.6c.3-1.2.1-2.3-.6-3.2-.8-.9-2.3-1.7-4.6-2.3l-6.5-1.7a4 4 0 0 1-2.3-1.7c-.6-.8-.7-1.7-.5-2.7l.6-1.6 4-10c.5-.7 1-1.3 1.7-1.7.9-.5 1.8-.6 2.9-.3l14.4 3.8c1 .3 1.8.9 2.3 1.8.5.9.7 1.9.4 2.9-.3 1-.9 1.8-1.8 2.3-.9.5-1.9.7-2.9.4l-11.3-3-1.6 3.8 5 1.3ZM652.5 774.9h-.3c-1-.3-1.8-1-2.3-1.8-.6-1-.7-2-.4-3 .3-1 .9-1.7 1.8-2.3.9-.5 1.8-.6 2.9-.3l4 1c1 .3 1.7.9 2.2 1.8.6 1 .7 1.9.4 2.9l-7 26.3c-.3 1-1 1.8-1.8 2.3-1 .6-1.9.7-3 .4-1-.3-1.7-.9-2.2-1.8-.6-.9-.7-1.8-.4-2.9l6-22.6Z"/><path fill="#960137" d="M729 489h-.2c-1-.4-1.8-1-2.3-1.9-.5-.9-.7-1.8-.4-2.8.3-1 .9-1.8 1.8-2.4.9-.5 1.8-.6 2.9-.3l4 1c1 .3 1.7.9 2.2 1.8.6.9.7 1.9.4 2.9l-7 26.3c-.3 1-.9 1.8-1.8 2.3-1 .5-1.9.7-2.9.4-1-.3-1.8-.9-2.3-1.8-.5-.9-.7-1.9-.4-2.9l6-22.6ZM609.3 678.5c1 .3 1.8.9 2.3 1.8.5 1 .7 1.9.4 2.9l-4.1 15.3 1.7.4c1 .3 1.8.9 2.3 1.8.5 1 .6 1.9.4 2.9-.3 1-.9 1.8-1.8 2.3-1 .5-1.9.7-2.9.4l-1.7-.5-1 4c-.3 1-1 1.8-1.8 2.3-1 .5-1.9.7-3 .4-1-.3-1.7-.9-2.2-1.8-.6-.9-.7-1.9-.4-2.9l1-4-11.8-3.1c-1-.3-1.8-.9-2.3-1.8-.6-.9-.7-1.9-.4-2.9l.9-3.4c.3-1 .8-1.8 1.6-2.4l17.1-11.8c.9-.6 1.8-.8 2.9-.6l2.8.7Zm-8.8 18 2.2-8.3-9.2 6.4 7 2Z"/><path fill="#F2FFD8" fill-opacity=".8" d="M263.8 521.8c3.9 1.3 6.4 3.2 7.7 5.5 1.2 2.3 1.4 5 .6 8.2-1 3-2.8 5.5-5.5 7.2-2.8 1.8-6 2.2-9.8 1.2a15.3 15.3 0 0 1-9.9-7.5c-.5-.9-.6-1.8-.3-2.9.2-1 .8-1.7 1.7-2.3 1-.5 1.9-.6 3-.3 1 .2 1.7.8 2.2 1.7a11 11 0 0 0 5.3 4c1.3.3 2.6.2 3.7-.3a3.8 3.8 0 0 0 2.2-2.6c.3-1.2.1-2.3-.7-3.2-.7-.9-2.2-1.7-4.5-2.3l-6.5-1.7a4 4 0 0 1-2.4-1.7c-.5-.8-.6-1.7-.4-2.7l.6-1.6 4-9.9c.5-.8 1-1.4 1.6-1.8 1-.5 2-.6 3-.3l14.4 3.8c1 .3 1.8.9 2.3 1.8.5 1 .6 1.9.4 2.9-.3 1-.9 1.8-1.8 2.3-1 .5-1.9.7-2.9.4l-11.3-3-1.6 3.8 5 1.3Z"/><path fill="#FFF4FA" d="M464.4 341.1a5.2 5.2 0 0 0-4.1.5c-1.2.7-2 1.7-2.3 3-.4 1.3-.2 2.6.5 3.8.7 1.2 1.8 2 3.3 2.4 1.5.4 2.8.2 4-.5a4.8 4.8 0 0 0 1.8-6.7 5 5 0 0 0-3.2-2.5Zm-6.8 15.4c-2.3-.6-4.1-2-5.5-4.4a12 12 0 0 1 4.4-17c3-1.8 6.3-2.3 9.8-1.3 3.6 1 6.2 3 7.9 6.1 1.7 3.1 2.2 6.2 1.3 9.4-.8 3.1-2.6 5.7-5.3 7.6l-13.3 9.4c-.8.6-1.8.8-2.8.6-1-.2-1.8-.7-2.5-1.6-.6-.8-.8-1.8-.6-2.8.2-1 .7-1.9 1.6-2.5l5-3.5ZM549.9 593.9a5.2 5.2 0 0 0-4.1.4c-1.2.7-2 1.7-2.3 3-.4 1.3-.2 2.6.5 3.8.7 1.2 1.8 2 3.3 2.4 1.5.4 2.8.3 4-.4 1.2-.7 2-1.7 2.4-3 .3-1.3.1-2.6-.6-3.8a5 5 0 0 0-3.2-2.4Zm-6.8 15.4c-2.3-.7-4.1-2.1-5.5-4.5a12 12 0 0 1 4.4-17c3-1.8 6.3-2.2 9.8-1.3 3.6 1 6.2 3 7.9 6.1 1.7 3.2 2.2 6.3 1.3 9.4-.8 3.2-2.6 5.7-5.3 7.6l-13.3 9.4c-.8.6-1.8.8-2.8.6-1-.2-1.8-.7-2.5-1.5-.6-.9-.8-1.8-.6-2.9.2-1 .7-1.8 1.6-2.4l5-3.5Z"/><path fill="#D8FFF8" d="M338.9 541.4c.2-1 0-2-.5-3-.6-1-1.6-1.6-3.1-2a4.5 4.5 0 0 0-4 .6 6 6 0 0 0-2.3 3.5c-.2 1-.8 1.8-1.7 2.3-1 .5-2 .6-3 .4-1-.3-1.7-.9-2.2-1.8-.6-1-.7-1.9-.4-2.9 1-3.5 2.9-6.2 5.8-8 3-2 6.2-2.4 9.8-1.5 3.5 1 6.1 2.9 7.8 5.7a11 11 0 0 1 1.3 9c-1 3-3.8 5.7-8.6 8l-7.6 3.7 9 2.4c1 .3 1.9.8 2.4 1.8.5.9.6 1.8.4 2.8-.3 1-.9 1.8-1.8 2.4-1 .5-1.9.6-3 .3l-17.7-4.7c-1.2-.4-2-1-2.6-1.9-.6-.9-.7-1.9-.4-2.9.3-1 .9-1.8 1.8-2.3l15.4-7.1c3-1.7 4.7-3.3 5.2-4.8ZM311.1 627.2c1.5.4 2.9.2 4-.5 1.3-.7 2-1.7 2.4-3 .4-1.3.2-2.5-.5-3.7a5 5 0 0 0-3.3-2.5 5.2 5.2 0 0 0-4 .5 4.9 4.9 0 0 0-1.8 6.8c.6 1.2 1.7 2 3.2 2.4Zm6.7-15.4a9 9 0 0 1 5.6 4.4c1.8 3.2 2.3 6.3 1.5 9.5-.9 3.1-2.8 5.6-5.9 7.5-3 1.8-6.3 2.3-9.8 1.3-3.6-1-6.2-3-8-6a12.4 12.4 0 0 1-1.2-9.5c.8-3.1 2.6-5.6 5.3-7.6l13.3-9.4c.8-.6 1.7-.8 2.8-.6 1 .2 1.8.7 2.5 1.6.5.8.7 1.8.6 2.8-.2 1-.7 1.9-1.6 2.5l-5 3.5Z"/><path fill="#F2FFD8" fill-opacity=".8" d="M302.8 689.6c2.7 2.9 3.6 5.9 2.8 9a9.9 9.9 0 0 1-5.8 6.8c-3 1.3-6.3 1.5-9.8.6-3.5-1-6.2-2.8-8.2-5.4a9.9 9.9 0 0 1-1.6-8.8c.8-3 3.1-5.2 7-6.4a9 9 0 0 1-1-6.8 10 10 0 0 1 4.3-5.8c2.1-1.5 5-1.7 8.6-.8 3.6 1 6 2.7 7 5a10 10 0 0 1 .9 7.1 9 9 0 0 1-4.2 5.5Zm-10.6 8.8c1.5.4 2.8.4 3.8 0a3 3 0 0 0 1.9-2.1 3 3 0 0 0-.6-2.8 5.7 5.7 0 0 0-3.3-1.9 6.5 6.5 0 0 0-4 0c-1 .4-1.7 1-2 2-.2 1 0 2 .8 2.8.7 1 1.9 1.6 3.4 2Zm3.3-13c1 .2 1.9.1 2.5-.3.7-.4 1.2-1 1.4-1.8.2-.8.1-1.5-.3-2.2-.4-.7-1-1.2-2-1.4-1-.3-1.9-.2-2.6.2-.7.4-1.1 1-1.3 1.8-.2.8-.1 1.5.3 2.2.4.7 1 1.2 2 1.4Z"/><path fill="#E56000" d="M140.1 407.5a5.2 5.2 0 0 0-4 .5c-1.2.6-2 1.6-2.3 3-.4 1.2-.2 2.5.5 3.7.7 1.2 1.8 2 3.3 2.4 1.5.4 2.8.3 4-.4 1.2-.7 2-1.7 2.4-3 .3-1.3.1-2.6-.6-3.8a5 5 0 0 0-3.3-2.4Zm-6.7 15.4c-2.3-.6-4.2-2.1-5.5-4.5a12 12 0 0 1 4.3-17c3.1-1.8 6.4-2.2 10-1.3 3.4 1 6 3 7.8 6.1 1.7 3.2 2.2 6.3 1.3 9.4-.8 3.2-2.6 5.7-5.4 7.6l-13.2 9.4c-.8.6-1.8.8-2.8.6-1-.1-1.9-.7-2.5-1.5-.6-.9-.8-1.8-.6-2.9.2-1 .7-1.8 1.6-2.4l5-3.5Z"/><path fill="#960137" d="M431.7 494.3c2.7 3 3.6 6 2.8 9a9.9 9.9 0 0 1-5.8 6.8c-3 1.3-6.3 1.5-9.8.6-3.5-1-6.2-2.7-8.1-5.4a9.9 9.9 0 0 1-1.7-8.7c.9-3.2 3.2-5.3 7-6.5a9 9 0 0 1-1-6.8 10 10 0 0 1 4.3-5.7c2.2-1.5 5-1.8 8.6-.9 3.6 1 6 2.7 7 5a10 10 0 0 1 .9 7.2 9 9 0 0 1-4.2 5.4Zm-10.6 8.8c1.5.4 2.8.4 3.8 0a3 3 0 0 0 2-2.1 3 3 0 0 0-.7-2.8 5.7 5.7 0 0 0-3.3-1.9 6.5 6.5 0 0 0-3.9 0c-1.1.4-1.8 1-2 2-.3 1 0 2 .7 2.9.8.9 2 1.5 3.4 2Zm3.4-13c1 .2 1.8.1 2.5-.3s1.1-1 1.3-1.7c.3-.8.2-1.6-.2-2.3-.4-.7-1.1-1.1-2.1-1.4-1-.3-1.8-.2-2.5.2s-1.2 1-1.4 1.8c-.2.8-.1 1.5.3 2.2.4.7 1 1.2 2 1.4Z"/><path fill="#E56000" d="M166.4 330c1 .3 1.8.9 2.3 1.8.5 1 .7 1.9.4 2.9L165 350l1.7.4c1 .3 1.8.9 2.3 1.8.5 1 .7 1.9.4 2.9-.3 1-.9 1.8-1.8 2.3-.9.5-1.9.7-2.9.4l-1.7-.5-1 4c-.3 1-.9 1.8-1.8 2.3-1 .5-1.9.7-2.9.4-1-.3-1.8-.9-2.3-1.8-.5-.9-.7-1.9-.4-2.9l1-4-11.8-3.1c-1-.3-1.8-.9-2.3-1.8-.6-.9-.7-1.9-.4-2.9l.9-3.4c.3-1 .8-1.8 1.6-2.4l17.1-11.8c.9-.6 1.8-.8 2.9-.6l2.8.7Zm-8.8 18 2.3-8.3-9.3 6.4 7 2ZM176.4 264.3h-.3c-1-.4-1.8-1-2.3-1.9-.5-.9-.7-1.8-.4-2.8.3-1 .9-1.8 1.8-2.4.9-.5 1.9-.6 2.9-.3l4 1c1 .3 1.7.9 2.3 1.8.5.9.6 1.9.3 2.9l-7 26.3c-.3 1-.9 1.8-1.8 2.3-.9.5-1.9.7-2.9.4-1-.3-1.8-.9-2.3-1.8-.5-.9-.6-1.9-.4-2.9l6.1-22.6Z"/><path fill="#D8FFF8" d="M404.9 555.3h-.3c-1-.3-1.8-.9-2.3-1.8-.6-1-.7-1.9-.4-2.9.3-1 .8-1.8 1.8-2.3.9-.5 1.8-.7 2.8-.4l4 1c1 .3 1.8 1 2.3 1.8.5 1 .7 2 .4 3l-7 26.2c-.3 1-1 1.8-1.8 2.4-1 .5-1.9.6-3 .3-1-.2-1.7-.8-2.2-1.7-.6-1-.7-1.9-.4-3l6-22.6ZM387.8 627a5.2 5.2 0 0 0-4.1.5c-1.2.7-2 1.7-2.3 3-.4 1.3-.2 2.6.5 3.8.7 1.2 1.8 2 3.3 2.4 1.5.4 2.8.2 4-.5a4.8 4.8 0 0 0 1.8-6.7 5 5 0 0 0-3.2-2.4Zm-6.8 15.4c-2.3-.6-4.2-2-5.5-4.4a12 12 0 0 1 4.3-17c3.1-1.8 6.4-2.2 10-1.3 3.5 1 6 3 7.8 6.1 1.7 3.1 2.2 6.3 1.3 9.4-.8 3.1-2.6 5.7-5.3 7.6l-13.3 9.4c-.8.6-1.8.8-2.8.6-1-.2-1.9-.7-2.5-1.5-.6-1-.8-1.9-.6-2.9.2-1 .7-1.9 1.6-2.5l5-3.5Z"/><path fill="#146D5D" d="M375 709.7s0 .2.2.3c1.7 2.1 2.1 4.8 1.3 7.9-1 3-2.8 5.2-5.6 6.5-2.9 1.4-6 1.6-9.4.7a13 13 0 0 1-9.8-8.9c-.4-.9-.4-1.8-.1-2.8.3-1 .8-1.8 1.8-2.3.9-.5 1.8-.7 2.8-.4 1 .3 1.8 1 2.3 2a6.5 6.5 0 0 0 5 5c1.3.4 2.5.5 3.6.1 1-.3 1.8-1 2-2 .3-1 .2-2-.4-2.8a9 9 0 0 0-4.3-2.2c-1-.3-1.7-.8-2.2-1.6-.4-.8-.5-1.7-.3-2.7.3-1 .8-1.8 1.6-2.3.8-.4 1.7-.5 2.7-.2 1.9.4 3.3.5 4.4.2.8-.4 1.3-1 1.5-1.8.3-.9 0-1.6-.6-2.3a6.4 6.4 0 0 0-3.2-1.6c-1.5-.4-2.7-.3-3.7.5l-2.2 1.6c-1 .5-2 .6-3 .3-1-.2-1.7-.8-2.1-1.5-.5-.8-.6-1.7-.3-2.8.3-1 .8-1.9 1.5-2.6a13.1 13.1 0 0 1 19.5 2.4c1.7 2.3 2.2 5 1.5 7.9a8.1 8.1 0 0 1-4.6 5.4ZM218 437.8l.2.3c1.7 2.1 2.1 4.8 1.3 8-1 3-2.8 5.1-5.6 6.4-2.9 1.4-6 1.7-9.4.8a13 13 0 0 1-9.8-9c-.3-.8-.4-1.8 0-2.8.2-1 .8-1.8 1.7-2.3.9-.5 1.9-.7 2.9-.4 1 .3 1.7 1 2.2 2a6.5 6.5 0 0 0 5 5c1.3.5 2.5.5 3.6.2 1-.4 1.8-1 2-2 .3-1 .2-2-.4-3a9 9 0 0 0-4.3-2.1c-1-.3-1.7-.8-2.2-1.6-.4-.8-.5-1.7-.2-2.7.2-1 .8-1.8 1.6-2.2.7-.5 1.6-.6 2.7-.3 1.8.5 3.3.5 4.3.2.8-.4 1.3-1 1.6-1.8.2-.9 0-1.6-.7-2.3a6.4 6.4 0 0 0-3.2-1.6c-1.5-.4-2.7-.3-3.7.5l-2.2 1.6c-1 .5-1.9.6-3 .4-1-.3-1.7-.9-2.1-1.6-.5-.8-.6-1.7-.3-2.8.3-1 .8-1.9 1.6-2.6a13.1 13.1 0 0 1 19.4 2.4c1.7 2.3 2.2 5 1.5 7.9a8.1 8.1 0 0 1-4.6 5.4Z"/><path fill="#E56000" d="m233.1 356.1-10.6-2.8c-1-.3-1.8-1-2.3-1.8-.5-1-.7-1.9-.4-3 .3-1 .9-1.7 1.8-2.2.9-.6 1.8-.7 2.9-.4l16.5 4.4c.7.2 1.2.5 1.8 1 .7.7 1.1 1.6 1.2 2.6 0 1-.3 2-1 2.7l-20.6 22.7c-.7.8-1.6 1.2-2.7 1.2-1 0-2-.3-2.7-1a3.7 3.7 0 0 1-1.3-2.6c0-1 .3-2 1-2.8l16.4-18ZM244.8 303c1.5.3 2.8.2 4-.5 1.2-.7 2-1.7 2.4-3 .3-1.3.1-2.6-.6-3.8a5 5 0 0 0-3.2-2.4 5.2 5.2 0 0 0-4.1.5c-1.2.7-2 1.7-2.3 3-.4 1.3-.2 2.5.5 3.7.7 1.2 1.8 2 3.3 2.4Zm6.7-15.4a9 9 0 0 1 5.6 4.4c1.8 3.2 2.3 6.3 1.4 9.5-.8 3.1-2.8 5.6-5.8 7.5-3 1.8-6.4 2.2-9.9 1.3-3.5-1-6.2-3-7.9-6.1a12.4 12.4 0 0 1-1.3-9.4c.9-3.1 2.6-5.7 5.4-7.6l13.2-9.4c.9-.6 1.8-.8 2.8-.6 1 .2 1.9.7 2.5 1.5.6 1 .8 1.9.6 3-.2 1-.7 1.8-1.5 2.4l-5.1 3.5Z"/><path fill="#D8FFF8" d="M485.5 568.8c1 .2 1.8.8 2.3 1.7.5 1 .6 1.9.4 3l-4.1 15.2 1.7.5c1 .2 1.8.8 2.3 1.7.5 1 .6 1.9.4 3-.3 1-.9 1.7-1.8 2.2-1 .6-1.9.7-2.9.4l-1.7-.4-1 4c-.3 1-1 1.7-1.8 2.2-1 .6-1.9.7-3 .4-1-.3-1.7-.9-2.2-1.8-.6-.9-.7-1.8-.4-2.9l1-4L463 591c-1-.3-1.8-.9-2.3-1.8-.6-.9-.7-1.8-.4-2.9l.9-3.4c.3-1 .8-1.8 1.6-2.4l17-11.8c1-.6 2-.8 3-.6l2.8.8Zm-8.8 18 2.2-8.4-9.2 6.4 7 2ZM459.1 650.7c3.9 1.4 6.4 3.2 7.7 5.5 1.2 2.4 1.4 5.1.6 8.2-1 3-2.8 5.5-5.5 7.3-2.8 1.7-6 2.1-9.8 1.1a15.3 15.3 0 0 1-9.9-7.4c-.5-1-.6-1.9-.4-3 .3-1 .9-1.7 1.8-2.2 1-.6 1.9-.7 2.9-.4 1 .3 1.8.9 2.3 1.8a11 11 0 0 0 5.3 3.9c1.3.3 2.6.2 3.7-.3a3.8 3.8 0 0 0 2.2-2.6c.3-1.2 0-2.2-.7-3.1-.7-1-2.2-1.7-4.5-2.3l-6.5-1.8a4 4 0 0 1-2.4-1.6c-.5-.8-.7-1.8-.4-2.8l.6-1.5 4-10c.5-.8 1-1.4 1.6-1.7 1-.5 2-.7 3-.4l14.4 3.9c1 .2 1.7.8 2.3 1.7.5 1 .6 2 .3 3-.2 1-.8 1.7-1.7 2.2-1 .6-1.9.7-3 .4l-11.2-3-1.6 3.8 5 1.3ZM442.4 718.6l-10.6-2.8c-1-.3-1.8-.9-2.3-1.8-.5-.9-.7-1.9-.4-2.9.3-1 .9-1.8 1.8-2.3.9-.5 1.9-.7 2.9-.4l16.5 4.5c.7 0 1.2.4 1.8.9.7.7 1.1 1.6 1.2 2.6 0 1-.3 2-1 2.8l-20.6 22.6c-.7.8-1.6 1.2-2.7 1.2-1 0-2-.2-2.7-1a3.7 3.7 0 0 1-1.3-2.6c0-1 .3-2 1-2.7l16.4-18Z"/><path fill="#E56000" d="M283 450.3c3.8 1.4 6.4 3.2 7.6 5.5 1.3 2.4 1.5 5.1.7 8.2-1 3-2.8 5.5-5.6 7.3-2.7 1.7-6 2.1-9.7 1.1a15.3 15.3 0 0 1-10-7.4c-.4-1-.6-2-.3-3s.9-1.7 1.8-2.2c.9-.6 1.9-.7 2.9-.4 1 .2 1.8.8 2.3 1.7a11 11 0 0 0 5.3 4c1.3.3 2.5.2 3.6-.3a3.8 3.8 0 0 0 2.3-2.6c.3-1.2 0-2.2-.7-3.1-.7-1-2.3-1.7-4.5-2.4L272 455a4 4 0 0 1-2.3-1.6c-.6-.8-.7-1.8-.4-2.8l.5-1.5 4.1-10c.4-.8 1-1.4 1.6-1.7 1-.6 1.9-.7 2.9-.4l14.4 3.9c1 .2 1.8.8 2.3 1.7.6 1 .7 1.9.4 3-.3 1-.8 1.7-1.8 2.2-.9.6-1.8.7-2.8.4l-11.3-3-1.6 3.8 4.9 1.3ZM635.3 560.8c1.5.4 2.9.3 4-.4a4.8 4.8 0 0 0 1.9-6.8 5 5 0 0 0-3.3-2.4 5.2 5.2 0 0 0-4 .4 4.9 4.9 0 0 0-1.8 6.8c.7 1.2 1.8 2 3.2 2.4Zm6.8-15.4a9 9 0 0 1 5.5 4.5c1.8 3.1 2.3 6.3 1.5 9.4-.9 3.2-2.8 5.7-5.9 7.5-3 1.9-6.3 2.3-9.8 1.4-3.6-1-6.2-3-8-6.1a12.4 12.4 0 0 1-1.2-9.4c.8-3.2 2.6-5.7 5.3-7.6l13.3-9.4c.8-.6 1.8-.8 2.8-.6a3.7 3.7 0 0 1 3.1 4.4c-.2 1-.7 1.8-1.6 2.4l-5 3.5ZM305.7 379.3c.2-1 0-2-.5-3-.6-1-1.6-1.6-3-2a4.5 4.5 0 0 0-4 .6 6 6 0 0 0-2.3 3.5c-.3 1-.9 1.8-1.8 2.3-1 .5-1.9.6-2.9.4-1-.3-1.8-.9-2.3-1.8-.5-1-.7-1.9-.4-2.9 1-3.5 2.9-6.2 5.8-8 3-2 6.3-2.4 9.8-1.5 3.5 1 6.1 2.9 7.8 5.7a11 11 0 0 1 1.3 9v-.1c-.9 3-3.7 5.8-8.6 8.2l-7.5 3.6 9 2.4c1 .2 1.8.8 2.3 1.7.5 1 .7 2 .4 3-.3 1-.9 1.7-1.8 2.3-.9.5-1.9.6-2.9.3l-17.8-4.7c-1.2-.4-2-1-2.6-1.9-.5-1-.7-1.9-.4-2.9.3-1 .9-1.8 1.8-2.3l15.4-7.1c3-1.7 4.7-3.3 5.2-4.8ZM327 313c2.8 3 3.7 6 2.8 9a9.9 9.9 0 0 1-5.7 6.8c-3 1.4-6.3 1.6-9.8.6-3.5-.9-6.2-2.7-8.2-5.4a9.9 9.9 0 0 1-1.6-8.7c.8-3.1 3.1-5.3 6.9-6.4a9 9 0 0 1-.9-6.8 10 10 0 0 1 4.2-5.8c2.2-1.5 5.1-1.8 8.7-.8 3.5 1 5.9 2.6 7 5a10 10 0 0 1 .8 7.1 9 9 0 0 1-4.1 5.5Zm-10.5 8.8c1.5.4 2.7.4 3.7 0a3 3 0 0 0 2-2 3 3 0 0 0-.7-2.8 5.7 5.7 0 0 0-3.2-2 6.5 6.5 0 0 0-4 0c-1 .4-1.7 1.1-2 2-.2 1 0 2 .8 2.9.7.9 1.9 1.5 3.4 2Zm3.3-13c1 .3 1.8.2 2.5-.2s1.2-1 1.4-1.8c.2-.8.1-1.5-.3-2.2-.4-.7-1-1.2-2-1.5-1-.2-1.9-.2-2.6.2-.7.4-1.1 1-1.3 1.8-.2.8-.2 1.6.2 2.3.4.6 1.1 1.1 2.1 1.4Z"/><path stroke="#C03879" stroke-linecap="round" stroke-width="10" d="M288.6 290.1c1.5-5.7 3-11.3 8.7-14.6 5.6-3.2 11.2-1.7 17-.2m-33 42c-1.5 5.7-3 11.3.2 17 3.3 5.6 8.9 7 14.6 8.6m60.1-34.7c1.5-5.7 3-11.3-.2-17-3.3-5.6-8.9-7-14.6-8.6m7.5 52.8c-1.5 5.7-3 11.3-8.6 14.6-5.7 3.2-11.3 1.7-17 .2"/><defs><filter id="a" width="94.7" height="110.8" x="121.4" y="823.8" color-interpolation-filters="sRGB" filterUnits="userSpaceOnUse"><feFlood flood-opacity="0" result="BackgroundImageFix"/><feBlend in="SourceGraphic" in2="BackgroundImageFix" result="shape"/><feColorMatrix in="SourceAlpha" result="hardAlpha" values="0 0 0 0 0 0 0 0 0 0 0 0 0 0 0 0 0 0 127 0"/><feOffset dy="-20"/><feGaussianBlur stdDeviation="1"/><feComposite in2="hardAlpha" k2="-1" k3="1" operator="arithmetic"/><feColorMatrix values="0 0 0 0 0.506146 0 0 0 0 0.784879 0 0 0 0 0.941667 0 0 0 1 0"/><feBlend in2="shape" result="effect1_innerShadow_43_1385"/></filter><filter id="b" width="94.7" height="110.8" x="229" y="847.5" color-interpolation-filters="sRGB" filterUnits="userSpaceOnUse"><feFlood flood-opacity="0" result="BackgroundImageFix"/><feBlend in="SourceGraphic" in2="BackgroundImageFix" result="shape"/><feColorMatrix in="SourceAlpha" result="hardAlpha" values="0 0 0 0 0 0 0 0 0 0 0 0 0 0 0 0 0 0 127 0"/><feOffset dy="-20"/><feGaussianBlur stdDeviation="1"/><feComposite in2="hardAlpha" k2="-1" k3="1" operator="arithmetic"/><feColorMatrix values="0 0 0 0 0.506146 0 0 0 0 0.784879 0 0 0 0 0.941667 0 0 0 1 0"/><feBlend in2="shape" result="effect1_innerShadow_43_1385"/></filter><filter id="c" width="94.7" height="110.8" x="135.5" y="964.3" color-interpolation-filters="sRGB" filterUnits="userSpaceOnUse"><feFlood flood-opacity="0" result="BackgroundImageFix"/><feBlend in="SourceGraphic" in2="BackgroundImageFix" result="shape"/><feColorMatrix in="SourceAlpha" result="hardAlpha" values="0 0 0 0 0 0 0 0 0 0 0 0 0 0 0 0 0 0 127 0"/><feOffset dy="-20"/><feGaussianBlur stdDeviation="1"/><feComposite in2="hardAlpha" k2="-1" k3="1" operator="arithmetic"/><feColorMatrix values="0 0 0 0 0.506146 0 0 0 0 0.784879 0 0 0 0 0.941667 0 0 0 1 0"/><feBlend in2="shape" result="effect1_innerShadow_43_1385"/></filter><filter id="d" width="92.1" height="101.2" x="444" y="904.4" color-interpolation-filters="sRGB" filterUnits="userSpaceOnUse"><feFlood flood-opacity="0" result="BackgroundImageFix"/><feBlend in="SourceGraphic" in2="BackgroundImageFix" result="shape"/><feColorMatrix in="SourceAlpha" result="hardAlpha" values="0 0 0 0 0 0 0 0 0 0 0 0 0 0 0 0 0 0 127 0"/><feOffset dy="-10"/><feGaussianBlur stdDeviation="1"/><feComposite in2="hardAlpha" k2="-1" k3="1" operator="arithmetic"/><feColorMatrix values="0 0 0 0 0.506146 0 0 0 0 0.784879 0 0 0 0 0.941667 0 0 0 1 0"/><feBlend in2="shape" result="effect1_innerShadow_43_1385"/></filter><filter id="e" width="94.7" height="110.8" x="336.5" y="871.1" color-interpolation-filters="sRGB" filterUnits="userSpaceOnUse"><feFlood flood-opacity="0" result="BackgroundImageFix"/><feBlend in="SourceGraphic" in2="BackgroundImageFix" result="shape"/><feColorMatrix in="SourceAlpha" result="hardAlpha" values="0 0 0 0 0 0 0 0 0 0 0 0 0 0 0 0 0 0 127 0"/><feOffset dy="-20"/><feGaussianBlur stdDeviation="1"/><feComposite in2="hardAlpha" k2="-1" k3="1" operator="arithmetic"/><feColorMatrix values="0 0 0 0 0.506146 0 0 0 0 0.784879 0 0 0 0 0.941667 0 0 0 1 0"/><feBlend in2="shape" result="effect1_innerShadow_43_1385"/></filter><filter id="f" width="94.7" height="110.8" x="350.6" y="1011.6" color-interpolation-filters="sRGB" filterUnits="userSpaceOnUse"><feFlood flood-opacity="0" result="BackgroundImageFix"/><feBlend in="SourceGraphic" in2="BackgroundImageFix" result="shape"/><feColorMatrix in="SourceAlpha" result="hardAlpha" values="0 0 0 0 0 0 0 0 0 0 0 0 0 0 0 0 0 0 127 0"/><feOffset dy="-20"/><feGaussianBlur stdDeviation="1"/><feComposite in2="hardAlpha" k2="-1" k3="1" operator="arithmetic"/><feColorMatrix values="0 0 0 0 0.506146 0 0 0 0 0.784879 0 0 0 0 0.941667 0 0 0 1 0"/><feBlend in2="shape" result="effect1_innerShadow_43_1385"/></filter><filter id="g" width="94.7" height="110.8" x="243.1" y="987.9" color-interpolation-filters="sRGB" filterUnits="userSpaceOnUse"><feFlood flood-opacity="0" result="BackgroundImageFix"/><feBlend in="SourceGraphic" in2="BackgroundImageFix" result="shape"/><feColorMatrix in="SourceAlpha" result="hardAlpha" values="0 0 0 0 0 0 0 0 0 0 0 0 0 0 0 0 0 0 127 0"/><feOffset dy="-20"/><feGaussianBlur stdDeviation="1"/><feComposite in2="hardAlpha" k2="-1" k3="1" operator="arithmetic"/><feColorMatrix values="0 0 0 0 0.506146 0 0 0 0 0.784879 0 0 0 0 0.941667 0 0 0 1 0"/><feBlend in2="shape" result="effect1_innerShadow_43_1385"/></filter><filter id="h" width="94.7" height="110.8" x="551.6" y="918.4" color-interpolation-filters="sRGB" filterUnits="userSpaceOnUse"><feFlood flood-opacity="0" result="BackgroundImageFix"/><feBlend in="SourceGraphic" in2="BackgroundImageFix" result="shape"/><feColorMatrix in="SourceAlpha" result="hardAlpha" values="0 0 0 0 0 0 0 0 0 0 0 0 0 0 0 0 0 0 127 0"/><feOffset dy="-20"/><feGaussianBlur stdDeviation="1"/><feComposite in2="hardAlpha" k2="-1" k3="1" operator="arithmetic"/><feColorMatrix values="0 0 0 0 0.506146 0 0 0 0 0.784879 0 0 0 0 0.941667 0 0 0 1 0"/><feBlend in2="shape" result="effect1_innerShadow_43_1385"/></filter><filter id="i" width="94.7" height="110.8" x="458.2" y="1035.2" color-interpolation-filters="sRGB" filterUnits="userSpaceOnUse"><feFlood flood-opacity="0" result="BackgroundImageFix"/><feBlend in="SourceGraphic" in2="BackgroundImageFix" result="shape"/><feColorMatrix in="SourceAlpha" result="hardAlpha" values="0 0 0 0 0 0 0 0 0 0 0 0 0 0 0 0 0 0 127 0"/><feOffset dy="-20"/><feGaussianBlur stdDeviation="1"/><feComposite in2="hardAlpha" k2="-1" k3="1" operator="arithmetic"/><feColorMatrix values="0 0 0 0 0.506146 0 0 0 0 0.784879 0 0 0 0 0.941667 0 0 0 1 0"/><feBlend in2="shape" result="effect1_innerShadow_43_1385"/></filter><filter id="k" width="851.9" height="844.8" x="10.2" y="26.3" color-interpolation-filters="sRGB" filterUnits="userSpaceOnUse"><feFlood flood-opacity="0" result="BackgroundImageFix"/><feColorMatrix in="SourceAlpha" result="hardAlpha" values="0 0 0 0 0 0 0 0 0 0 0 0 0 0 0 0 0 0 127 0"/><feOffset dy="2"/><feGaussianBlur stdDeviation="2.5"/><feComposite in2="hardAlpha" operator="out"/><feColorMatrix values="0 0 0 0 0.0825174 0 0 0 0 0.211177 0 0 0 0 0.404167 0 0 0 1 0"/><feBlend in2="BackgroundImageFix" result="effect1_dropShadow_43_1385"/><feBlend in="SourceGraphic" in2="effect1_dropShadow_43_1385" result="shape"/></filter><filter id="l" width="849.7" height="867.8" x="15.2" y="-1.7" color-interpolation-filters="sRGB" filterUnits="userSpaceOnUse"><feFlood flood-opacity="0" result="BackgroundImageFix"/><feBlend in="SourceGraphic" in2="BackgroundImageFix" result="shape"/><feColorMatrix in="SourceAlpha" result="hardAlpha" values="0 0 0 0 0 0 0 0 0 0 0 0 0 0 0 0 0 0 127 0"/><feOffset dy="-20"/><feGaussianBlur stdDeviation="1"/><feComposite in2="hardAlpha" k2="-1" k3="1" operator="arithmetic"/><feColorMatrix values="0 0 0 0 0.506146 0 0 0 0 0.784879 0 0 0 0 0.941667 0 0 0 1 0"/><feBlend in2="shape" result="effect1_innerShadow_43_1385"/><feColorMatrix in="SourceAlpha" result="hardAlpha" values="0 0 0 0 0 0 0 0 0 0 0 0 0 0 0 0 0 0 127 0"/><feOffset dy="2"/><feGaussianBlur stdDeviation="1"/><feComposite in2="hardAlpha" k2="-1" k3="1" operator="arithmetic"/><feColorMatrix values="0 0 0 0 1 0 0 0 0 1 0 0 0 0 1 0 0 0 1 0"/><feBlend in2="effect1_innerShadow_43_1385" result="effect2_innerShadow_43_1385"/></filter><filter id="n" width="695.4" height="317.5" x="5.8" y="563.6" color-interpolation-filters="sRGB" filterUnits="userSpaceOnUse"><feFlood flood-opacity="0" result="BackgroundImageFix"/><feColorMatrix in="SourceAlpha" result="hardAlpha" values="0 0 0 0 0 0 0 0 0 0 0 0 0 0 0 0 0 0 127 0"/><feOffset/><feGaussianBlur stdDeviation="1"/><feComposite in2="hardAlpha" operator="out"/><feColorMatrix values="0 0 0 0 0.0815972 0 0 0 0 0.112604 0 0 0 0 0.391667 0 0 0 1 0"/><feBlend in2="BackgroundImageFix" result="effect1_dropShadow_43_1385"/><feBlend in="SourceGraphic" in2="effect1_dropShadow_43_1385" result="shape"/></filter><filter id="p" width="568.1" height="155.2" x="252" y="7.7" color-interpolation-filters="sRGB" filterUnits="userSpaceOnUse"><feFlood flood-opacity="0" result="BackgroundImageFix"/><feBlend in="SourceGraphic" in2="BackgroundImageFix" result="shape"/><feGaussianBlur result="effect1_foregroundBlur_43_1385" stdDeviation="1"/></filter></defs></svg>